<svg width="41" height="40" viewBox="0 0 41 40" fill="none" xmlns="http://www.w3.org/2000/svg">
<path d="M31.1079 10.6014L32.9869 11.2277L32.3605 6.21706C30.4815 8.09606 28.6025 9.97506 28.6025 12.4804C28.6025 14.9857 29.8552 17.491 29.8552 19.9964C29.8552 22.5017 26.7235 24.3807 24.2182 24.3807C21.7129 24.3807 21.7129 21.249 21.7129 21.249V7.46973H23.5919L20.4602 0.580078L17.3286 7.46973H19.2076V21.249C19.2076 21.249 19.2076 24.3807 16.7022 24.3807C14.1969 24.3807 11.0653 22.5017 11.0653 19.9964C11.0653 17.491 12.3179 14.9857 12.3179 12.4804C12.3179 9.97506 10.4389 8.09606 8.55993 6.21706L7.93359 11.2277L9.81259 10.6014C11.0653 14.3594 7.93359 16.2384 7.93359 21.8754C7.93359 27.5123 15.4496 28.765 17.9549 28.765V39.4127H22.9656V28.765C25.4709 28.765 32.9869 27.5123 32.9869 21.8754C32.9869 16.2384 29.8552 14.3594 31.1079 10.6014Z" fill="#FDB62F"/>
<path d="M32.9869 11.2281L32.8246 9.92969C32.7297 10.3482 32.6891 10.7453 32.6915 11.1296L32.9869 11.2281Z" fill="#FFBF41"/>
<path d="M19.2071 21.249C19.2071 21.249 19.207 22.2517 18.753 23.1224C21.0856 22.9819 21.0861 19.9964 21.0861 19.9964L21.1146 2.02064L20.4598 0.580078L17.3281 7.46973H19.2071V21.249Z" fill="#FDB62F"/>
<path d="M19.8339 39.4124V27.5121C17.3286 27.5121 9.81259 26.2594 9.81259 20.6224C9.81259 15.2038 12.7055 13.8357 11.2607 9.28723C10.5451 8.20219 9.55266 7.20945 8.55993 6.2168L7.93359 11.2275L9.81259 10.6011C11.0653 14.3591 7.93359 16.2381 7.93359 21.8751C7.93359 27.5121 15.4496 28.7647 17.9549 28.7647V39.4124H19.8339Z" fill="#FDB62F"/>
<path d="M22.9655 36.2802H17.9548C17.263 36.2802 16.7021 35.7194 16.7021 35.0275V32.5222C16.7021 31.8303 17.263 31.2695 17.9548 31.2695H22.9655C23.6573 31.2695 24.2181 31.8303 24.2181 32.5222V35.0275C24.2181 35.7193 23.6573 36.2802 22.9655 36.2802Z" fill="#FC892E"/>
<path d="M19.2075 35.0275V32.5222C19.2075 31.8304 19.7683 31.2695 20.4601 31.2695H17.9548C17.263 31.2695 16.7021 31.8304 16.7021 32.5222V35.0275C16.7021 35.7193 17.263 36.2802 17.9548 36.2802H20.4601C19.7684 36.2802 19.2075 35.7193 19.2075 35.0275Z" fill="#FC892E"/>
<path d="M20.4607 24.3809C20.4607 24.3809 19.208 25.0072 19.208 26.2599C19.208 27.5125 20.4607 28.1389 20.4607 28.1389C20.4607 28.1389 21.7133 27.5125 21.7133 26.2599C21.7133 25.0072 20.4607 24.3809 20.4607 24.3809Z" fill="#FC467E"/>
</svg>
