<svg width="41" height="40" viewBox="0 0 41 40" fill="none" xmlns="http://www.w3.org/2000/svg">
<path d="M11.7695 16.2024C14.0117 14.4524 15.543 16.7884 14.5742 18.6634L24.4883 14.3977C22.5508 13.3352 23.3398 11.0228 25.207 10.7103C25.207 10.7024 17.1836 7.804 11.7695 16.2024Z" fill="#F7BC79"/>
<path d="M22.6368 13.5939C18.6134 13.2189 8.74621 18.2189 20.5821 26.3596C20.5821 26.3596 21.8556 26.4143 21.9571 27.9455L22.4884 32.133C22.4884 32.133 24.129 36.0549 29.1603 36.6877C28.4571 33.8283 27.9259 30.9221 27.5743 28.0002C27.5743 28.0002 24.4493 26.0939 23.7071 24.3986L28.8009 25.0392C28.8009 25.0392 29.7462 26.258 30.2228 29.2189C30.2228 29.2189 30.9103 30.0627 32.8165 30.383C32.8165 30.383 30.6446 27.3127 30.09 20.633C29.6759 16.8283 27.1759 13.8127 22.6368 13.5939Z" fill="#F1BE82"/>
<path d="M30.0116 37.8603C25.621 36.7509 21.5194 33.5166 21.7538 31.29C21.8319 29.9384 21.6366 28.2822 21.0272 27.6338C20.8788 27.4619 20.6678 27.3681 20.4413 27.3759C19.2147 27.3759 18.7069 29.0556 18.5116 30.0556C18.371 30.7666 17.8788 31.3525 17.1991 31.6025L14.5585 32.5791C14.2303 32.7041 13.8553 32.5322 13.7382 32.2041C13.6132 31.8759 13.785 31.5009 14.1132 31.3838L16.7616 30.4072C17.0194 30.3134 17.2069 30.0869 17.2616 29.8213C17.7225 27.4228 18.8553 26.1025 20.4491 26.1025C21.0272 26.1025 21.5741 26.3369 21.9647 26.7666C23.1366 28.0088 23.0819 30.6103 23.035 31.3759C22.9413 32.7275 25.8397 35.0244 28.746 36.1338C28.2069 34.8369 27.5116 32.6181 27.1053 29.2119C27.0507 28.7588 26.8085 28.3447 26.4413 28.0791C25.1835 27.1728 23.5428 25.7822 22.871 24.3056C22.66 23.8838 23.0272 23.3525 23.496 23.3994L28.9022 23.7666C29.2538 23.79 29.5194 24.0947 29.496 24.4463C29.4725 24.7978 29.1678 25.0634 28.8163 25.04L24.6835 24.7588C25.4413 25.6884 26.5194 26.54 27.1991 27.0322C27.8553 27.5088 28.285 28.2431 28.3866 29.0478C29.0585 34.6259 30.535 36.8291 30.5507 36.8525C30.8319 37.2588 30.5038 37.8759 30.0116 37.8603Z" fill="#F1BE82"/>
<path d="M29.9336 3.91361L29.2617 4.73393C29.1992 4.81205 29.0898 4.81986 29.0117 4.75736C28.9648 4.7183 28.9414 4.6558 28.9492 4.60111L29.1133 3.31986C29.1445 3.0933 29.0039 2.88236 28.7852 2.82768C24.9727 1.76518 19.8242 1.58549 14.1992 4.87455C13.8398 5.08549 13.6523 5.50736 13.7461 5.91361L13.9492 6.7808C13.9727 6.87455 13.9102 6.9683 13.8164 6.99174C13.7539 7.00736 13.6914 6.98393 13.6523 6.94486L12.9727 6.26518C12.7539 6.04643 12.4102 6.02299 12.168 6.20268C10.4961 7.43705 8.81641 9.18705 7.84766 10.6558C7.58984 11.0464 7.61328 11.5699 7.91797 11.9292L8.96484 13.1714C9.02734 13.2496 9.01953 13.3589 8.94141 13.4214C8.89453 13.4605 8.83984 13.4683 8.78516 13.4605L7.77734 13.1949C7.68359 13.1714 7.58984 13.2261 7.55859 13.3199C7.55078 13.3511 7.55078 13.3746 7.55859 13.4058L7.64453 13.7652C7.66797 13.8589 7.60547 13.9527 7.51172 13.9761C7.48047 13.9839 7.45703 13.9839 7.42578 13.9761L6.43359 13.7261C6.34766 13.7027 6.25391 13.7496 6.22266 13.8355C5.41797 15.9839 5.09766 18.1949 5.06641 20.3042C6.09766 21.5933 8.44922 21.7652 9.06641 20.0464C11.4883 9.4058 23.6523 8.51518 29.0977 9.38236C29.0977 9.38236 30.7305 6.83549 34.4492 6.20268C34.6523 6.17143 34.793 5.97611 34.7539 5.77299C34.7383 5.67143 34.6836 5.58549 34.5977 5.52299C33.4961 4.7808 32.3164 4.14799 31.082 3.64018C30.6836 3.45268 30.2148 3.56986 29.9336 3.91361Z" fill="#D61E1E"/>
<path d="M5.08222 20.2891C5.07441 21.1328 5.10566 21.9688 5.18378 22.8125C5.42597 27.0313 8.29316 30.1016 7.81659 34.7656C7.81659 34.7656 9.55878 31.1094 8.77753 25.5C8.52753 23.6719 8.63691 21.8125 9.08222 20.0234C7.84003 20.6562 6.39472 20.75 5.08222 20.2891Z" fill="#D61E1E"/>
<path d="M27.5508 11.8753C27.5508 11.8753 20.7695 9.45347 14.7695 13.7972C12.957 15.1097 11.8008 16.7972 11.082 18.5238C10.168 20.3597 8.75391 21.2113 7.84766 20.4691C10.8867 8.43784 22.2461 6.92222 29.1133 9.35972L27.5508 11.8753Z" fill="#F7BC79"/>
<path d="M17.7694 21.9844C14.4022 20.2109 16.2772 15.8828 17.5897 14.9453C9.19124 20.1172 16.3397 27.6719 14.6522 31.7109L17.7225 30.4375C17.7225 30.4375 17.5662 27.25 20.5819 26.3594C20.5819 26.3594 21.8553 26.4141 21.9569 27.9453L22.035 28.5703L22.6522 27.9609C22.6522 27.9687 21.6834 24.0469 17.7694 21.9844Z" fill="#F1BE82"/>
<path d="M12.6684 23.7892C12.5981 23.4454 12.8169 23.1017 13.1528 23.0235C14.0903 22.797 16.1372 22.1095 19.5747 20.0626C23.4887 17.7267 28.0981 17.7501 29.8872 17.8673C30.3794 17.8985 30.7466 18.3204 30.7153 18.8048C30.6841 19.2813 30.2856 19.6485 29.8012 19.6329C27.9341 19.5782 23.7856 19.7032 20.4419 21.6485C17.1997 23.5313 14.6684 24.297 13.52 24.5782C13.1684 24.6642 12.8091 24.4454 12.7231 24.0938C12.7231 24.086 12.7153 24.0782 12.7153 24.0626L12.6684 23.7892Z" fill="#D61E1E"/>
<path d="M7.84766 20.4609C6.88672 24.6406 7.79297 28.0469 7.79297 28.0469C8.83984 33.3906 7.20703 36.6875 7.20703 36.6875C10.4648 34.5078 9.87891 28.9609 9.42578 27.6562C8.97266 26.3516 9.92578 25.6328 9.92578 25.6328C9.85547 24.1797 9.90234 21.3125 11.082 18.5156C9.95703 19.6953 8.83984 20.25 7.84766 20.4609Z" fill="#F7BC79"/>
</svg>
