<svg width="41" height="40" viewBox="0 0 41 40" fill="none" xmlns="http://www.w3.org/2000/svg">
<g clip-path="url(#clip0_54551_50885)">
<path d="M15.0385 15.9982C17.7047 15.9982 19.8661 12.9105 19.8661 9.10163C19.8661 5.29277 17.7047 2.20508 15.0385 2.20508C12.3723 2.20508 10.2109 5.29277 10.2109 9.10163C10.2109 12.9105 12.3723 15.9982 15.0385 15.9982Z" fill="#FDBD40"/>
<path d="M26.0727 15.9982C28.7389 15.9982 30.9003 12.9105 30.9003 9.10163C30.9003 5.29277 28.7389 2.20508 26.0727 2.20508C23.4065 2.20508 21.2451 5.29277 21.2451 9.10163C21.2451 12.9105 23.4065 15.9982 26.0727 15.9982Z" fill="#FDBD40"/>
<path d="M8.83153 17.377C8.83153 21.186 8.35842 24.2736 6.07291 24.2736C3.78739 24.2736 0.555664 21.186 0.555664 17.377C0.555664 13.5681 2.40808 10.4805 4.69359 10.4805C6.97911 10.4805 8.83153 13.5681 8.83153 17.377Z" fill="#FDBD40"/>
<path d="M40.5561 17.377C40.5561 21.186 37.3244 24.2736 35.0389 24.2736C32.7534 24.2736 32.2803 21.186 32.2803 17.377C32.2803 13.5681 34.1327 10.4805 36.4182 10.4805C38.7037 10.4805 40.5561 13.5681 40.5561 17.377Z" fill="#FDBD40"/>
<path d="M31.5904 29.1997C31.5904 33.3314 29.4525 36.8032 24.6939 37.7873C23.8125 37.9694 21.5084 33.9287 20.556 33.9287C19.6036 33.9287 17.2994 37.9694 16.418 37.7873C11.6594 36.8032 9.52148 33.3314 9.52148 29.1997C9.52148 24.3025 14.4615 17.377 20.556 17.377C26.6504 17.377 31.5904 24.3025 31.5904 29.1997Z" fill="#FDBD40"/>
<path d="M12.2796 29.7921H12.2658C11.8851 29.7846 11.5824 29.4698 11.59 29.0889V29.0886C11.6665 25.2811 15.7134 19.4473 20.5555 19.4473C20.9364 19.4473 21.2452 19.7561 21.2452 20.1369C21.2452 20.5178 20.9364 20.8266 20.5555 20.8266C16.5314 20.8266 13.0341 25.9183 12.9693 29.1162C12.9618 29.4917 12.6552 29.7922 12.2796 29.7921Z" fill="#FCF05A"/>
</g>
<defs>
<clipPath id="clip0_54551_50885">
<rect width="40" height="40" fill="white" transform="translate(0.555664)"/>
</clipPath>
</defs>
</svg>
