<svg width="41" height="40" viewBox="0 0 41 40" fill="none" xmlns="http://www.w3.org/2000/svg">
<path d="M6.40234 38.125H32.6523V21.555C32.0992 21.0669 31.6842 20.4194 31.5055 19.6419C31.2242 18.4225 31.5386 17.2706 32.2148 16.4194C32.773 15.7169 32.7942 14.7275 32.3192 13.9669C31.783 13.1081 31.9098 11.9931 32.6261 11.2769L32.6523 11.25V9.375H31.4023H28.9023H6.40234C4.33109 9.375 2.65234 7.69625 2.65234 5.625V34.375C2.65234 36.4462 4.33109 38.125 6.40234 38.125Z" fill="#8C421C"/>
<path d="M32.3185 13.9669C31.7822 13.1081 31.9091 11.9931 32.6254 11.2769L32.6522 11.25V9.375H30.1522C26.4022 31.875 18.2772 36.25 3.18848 36.3C3.84348 37.3919 5.03598 38.125 6.40223 38.125H32.6522V21.555C32.0991 21.0669 31.6841 20.4194 31.5054 19.6419C31.2241 18.4225 31.5385 17.2706 32.2147 16.4194C32.7722 15.7169 32.7935 14.7275 32.3185 13.9669Z" fill="#8C421C"/>
<path d="M17.6523 33.75C23.1752 33.75 27.6523 29.2728 27.6523 23.75C27.6523 18.2272 23.1752 13.75 17.6523 13.75C12.1295 13.75 7.65234 18.2272 7.65234 23.75C7.65234 29.2728 12.1295 33.75 17.6523 33.75Z" fill="#FDD995"/>
<path d="M22.8305 23.5994C23.5705 23.0369 23.7511 22.0356 23.3367 21.25H20.1523L17.6523 15.625L15.1523 21.25H10.1523L13.9023 25L12.0273 30L17.6523 27.5L19.0873 28.1375C20.0298 26.0406 21.6123 24.5256 22.8305 23.5994Z" fill="#F74F2E"/>
<path d="M6.40234 1.875C4.33109 1.875 2.65234 3.55375 2.65234 5.625C2.65234 7.69625 4.33109 9.375 6.40234 9.375H31.4023V1.875H6.40234Z" fill="#7D3B19"/>
<path d="M28.4348 28.2056C27.7148 27.6063 27.8498 26.4638 28.688 26.0444C29.7973 25.49 30.1698 24.0881 29.4817 23.0562L28.3017 21.2856C26.6998 18.8844 26.2342 15.9006 27.0273 13.125L24.313 14.4819C23.8455 14.7156 23.448 15.0244 23.1198 15.3825C21.7555 16.8744 21.6367 19.2475 23.0817 20.8737C23.1855 20.9906 23.2667 21.1175 23.3367 21.2494C23.7511 22.035 23.5705 23.0363 22.8305 23.5987C21.6123 24.525 20.0298 26.0406 19.0867 28.1369C18.5973 29.2269 18.2773 30.47 18.2773 31.875C18.2773 35.3288 21.0786 38.1281 24.533 38.125C26.5073 38.1231 28.3373 37.0394 29.4373 35.3994C32.1498 31.355 30.188 29.6644 28.4348 28.2056Z" fill="#FDB62F"/>
<path d="M36.8706 14.225C36.0856 13.7413 35.8512 12.8188 36.4044 12.0806L36.4262 12.0512C36.7912 11.565 36.8181 10.915 36.5006 10.4069L33.9025 6.25V9.09938C33.9025 9.67625 33.6731 10.2294 33.2656 10.6369L32.6525 11.25L32.6256 11.2769C31.91 11.9925 31.7825 13.1081 32.3187 13.9669C32.7937 14.7275 32.7725 15.7169 32.2144 16.4194C31.5381 17.2706 31.2244 18.4225 31.505 19.6419C31.6844 20.4194 32.0994 21.0675 32.6519 21.555C33.3581 22.1781 34.295 22.5344 35.3137 22.4969C39.5744 22.3412 39.7925 16.0262 36.8706 14.225Z" fill="#FDB62F"/>
<path d="M6.40234 4.375H28.9023V9.375H6.40234V4.375Z" fill="#FDD995"/>
<path d="M25.1521 20C25.7771 22.5 27.6521 23.125 27.0271 25C26.4021 26.875 25.1521 28.75 27.0271 30C28.3427 30.8769 28.4271 34.5219 28.3608 36.6194C28.7658 36.2612 29.1321 35.8544 29.4371 35.3994C32.1496 31.3544 30.1877 29.6644 28.4346 28.2056C27.7146 27.6063 27.8496 26.4638 28.6877 26.0444C29.7971 25.49 30.1696 24.0881 29.4814 23.0562L28.3014 21.2856C26.6996 18.8844 26.2339 15.9006 27.0271 13.125C27.0271 13.125 24.5271 17.5 25.1521 20Z" fill="#FDB62F"/>
<path d="M37.0273 18.125C37.0273 19.7006 36.1392 21.7119 34.003 22.3156C34.4148 22.4469 34.8555 22.5138 35.3142 22.4969C39.5736 22.3406 39.7917 16.0256 36.8705 14.225C36.0855 13.7413 35.8511 12.8188 36.4042 12.0806L36.4261 12.0512C36.7911 11.565 36.818 10.915 36.5005 10.4069L33.9023 6.25C33.9023 6.25 34.5273 10 34.5273 11.875C34.5273 13.75 37.0273 16.25 37.0273 18.125Z" fill="#FDB62F"/>
</svg>
