<svg width="41" height="40" viewBox="0 0 41 40" fill="none" xmlns="http://www.w3.org/2000/svg">
<path d="M9.27359 3.70493C7.66654 2.0978 5.44116 1.17578 3.16842 1.17578H2.06543V2.27877C2.06543 4.55151 2.98745 6.7769 4.59458 8.38395L25.3577 29.1471L27.6972 26.8076L30.0367 24.4681L9.27359 3.70493Z" fill="#E1E6F0"/>
<path d="M9.27359 3.70493C7.66654 2.0978 5.44116 1.17578 3.16842 1.17578H2.06543L27.6972 26.8076L30.0367 24.4681L9.27359 3.70493Z" fill="#E1E6F0"/>
<path d="M38.6096 1.17578C36.3369 1.17578 34.1115 2.0978 32.5044 3.70493L11.7412 24.4681L14.0807 26.8076L16.4202 29.1471L37.1834 8.38402C38.7905 6.77697 39.7126 4.55158 39.7126 2.27884V1.17585H38.6096V1.17578Z" fill="#F3F5F9"/>
<path d="M37.1837 8.38395C38.7908 6.7769 39.7128 4.55151 39.7128 2.27877V1.17578L14.0811 26.8075L16.4206 29.147L37.1837 8.38395Z" fill="#F3F5F9"/>
<path d="M23.9834 5.98828L28.3947 1.57699L29.9542 3.13646L25.5429 7.54775L23.9834 5.98828Z" fill="#FFDF40"/>
<path d="M11.8174 3.13281L13.3769 1.57334L17.7881 5.98463L16.2287 7.5441L11.8174 3.13281Z" fill="#FFDF40"/>
<path d="M20.8881 1.17578H19.7852V7.86723H20.8881H21.9911V1.17578H20.8881Z" fill="#FFDF40"/>
<path d="M20.8887 1.17578H21.9917V7.86723H20.8887V1.17578Z" fill="#FFDF40"/>
<path d="M11.3787 29.51L9.03857 27.1699L3.03325 33.1763C1.74282 34.4668 1.74282 36.565 3.03325 37.8554C4.32367 39.1459 6.42287 39.1449 7.71337 37.8543L13.7176 31.849L11.3787 29.51Z" fill="#515866"/>
<path d="M7.71332 37.8541L13.7175 31.8488L11.3785 29.5098L3.0332 37.8552C4.32355 39.1456 6.42276 39.1446 7.71332 37.8541Z" fill="#515866"/>
<path d="M18.1697 30.4395L14.3093 26.579L10.4488 22.7185L7.78613 22.0723C8.6694 22.9566 9.03133 24.2599 8.7297 25.4739C8.26549 27.3416 8.82235 29.3473 10.1817 30.7066C11.541 32.0659 13.5488 32.6185 15.4133 32.1586C16.6326 31.8548 17.9327 32.2189 18.8159 33.1021L18.1697 30.4395Z" fill="#FFDF40"/>
<path d="M15.4133 32.1596C16.6326 31.8559 17.9328 32.2199 18.816 33.1032L18.1697 30.4405L14.3092 26.5801L10.1816 30.7077C11.541 32.067 13.5488 32.6196 15.4133 32.1596Z" fill="#FFDF40"/>
<path d="M14.8608 26.0286L9.34583 20.5137L7.78613 22.0734L13.3011 27.5883L18.816 33.1032L20.3757 31.5435L14.8608 26.0286Z" fill="#FDB62F"/>
<path d="M13.2969 27.5859L14.8563 26.0265L20.3704 31.5406L18.811 33.1L13.2969 27.5859Z" fill="#FDB62F"/>
<path d="M38.745 33.1763L32.7396 27.1699L30.3995 29.51L28.0605 31.849L34.0648 37.8543C35.3553 39.1449 37.4545 39.1458 38.7449 37.8554C40.0354 36.565 40.0354 34.4668 38.745 33.1763Z" fill="#353D4D"/>
<path d="M38.7448 33.1763L32.7395 27.1699L30.3994 29.51L38.7448 37.8554C40.0353 36.565 40.0353 34.4668 38.7448 33.1763Z" fill="#353D4D"/>
<path d="M33.9918 22.0723L31.3291 22.7185L27.4686 26.579L23.6082 30.4395L22.9619 33.1021C23.8452 32.2189 25.1452 31.8548 26.3646 32.1586C28.229 32.6185 30.2368 32.0659 31.5962 30.7066C32.9555 29.3473 33.5124 27.3416 33.0481 25.4739C32.7466 24.2599 33.1085 22.9566 33.9918 22.0723Z" fill="#FFDF40"/>
<path d="M33.0483 25.4739C32.7467 24.2599 33.1086 22.9566 33.9919 22.0723L31.3292 22.7185L27.4688 26.579L31.5963 30.7066C32.9557 29.3472 33.5125 27.3416 33.0483 25.4739Z" fill="#FFDF40"/>
<path d="M32.4322 20.5137L26.9173 26.0286L21.4023 31.5435L22.962 33.1032L28.477 27.5883L33.9919 22.0734L32.4322 20.5137Z" fill="#FDB62F"/>
<path d="M26.9121 26.0273L32.4262 20.5132L33.9857 22.0727L28.4716 27.5868L26.9121 26.0273Z" fill="#FDB62F"/>
</svg>
