<svg width="41" height="40" viewBox="0 0 41 40" fill="none" xmlns="http://www.w3.org/2000/svg">
<g clip-path="url(#clip0_55055_72786)">
<path d="M8.39169 11.1707C12.4478 9.84791 16.3506 8.17486 20.1133 6.15368C23.843 8.14908 27.8047 9.84588 31.8295 11.1662V16.3043C31.8295 19.0937 31.319 21.7215 30.2907 24.1393C29.699 25.5317 28.9357 26.8543 27.9993 28.0983C27.5333 28.7173 27.0245 29.3171 26.4728 29.8959C25.1545 31.2787 22.193 33.6912 20.1108 34.4265C18.0284 33.6912 15.0668 31.2787 13.7487 29.8959C13.1969 29.3171 12.6881 28.7173 12.2221 28.0983C11.2857 26.8543 10.5221 25.5317 9.93068 24.1393C8.90239 21.7216 8.39184 19.0938 8.39184 16.3043L8.39169 11.1707ZM3.7041 7.67986V16.3044C3.7041 32.4844 17.8187 39.2189 20.1106 39.2189C22.4023 39.2189 36.5168 32.4844 36.5168 16.3044V7.67986C31.0163 6.18579 25.2615 3.79618 20.1106 0.78125C14.942 3.80633 9.53661 6.09564 3.7041 7.67986Z" fill="#FC892E"/>
<path d="M20.1132 6.1543C16.3505 8.17547 12.4477 9.84852 8.3916 11.1713V16.3049C8.3916 19.0943 8.90215 21.7221 9.93043 24.14L20.1105 13.9599L30.2909 24.1401C31.3188 21.7221 31.8294 19.0943 31.8294 16.3049V11.1667C27.8046 9.84649 23.843 8.14969 20.1132 6.1543Z" fill="#FDB62F"/>
<path d="M20.1107 13.959L9.93066 24.139C10.5221 25.5314 11.2857 26.8539 12.2221 28.0979L20.1108 20.2092L27.9994 28.098C28.9358 26.854 29.6991 25.5314 30.2911 24.1392L20.1107 13.959Z" fill="#EE4A4D"/>
<path d="M20.1104 20.209L12.2217 28.0977C12.6879 28.7167 13.1966 29.3165 13.7485 29.8953C15.0665 31.2781 18.0281 33.6907 20.1105 34.4259C22.1927 33.6907 25.1542 31.2781 26.4726 29.8953C27.0244 29.3165 27.533 28.7167 27.9991 28.0977L20.1104 20.209Z" fill="#FDB62F"/>
<path d="M19.3301 3.48063C19.3301 3.91094 19.681 4.26188 20.1113 4.26188C20.5416 4.26188 20.8926 3.91094 20.8926 3.48063C20.8926 3.05016 20.5416 2.69922 20.1113 2.69922C19.681 2.69922 19.3301 3.05023 19.3301 3.48063Z" fill="#61380E"/>
<path d="M7.37598 9.81641C7.80745 9.81641 8.15723 9.46663 8.15723 9.03516C8.15723 8.60368 7.80745 8.25391 7.37598 8.25391C6.9445 8.25391 6.59473 8.60368 6.59473 9.03516C6.59473 9.46663 6.9445 9.81641 7.37598 9.81641Z" fill="#61380E"/>
<path d="M6.72461 22.7012C7.15608 22.7012 7.50586 22.3514 7.50586 21.9199C7.50586 21.4884 7.15608 21.1387 6.72461 21.1387C6.29314 21.1387 5.94336 21.4884 5.94336 21.9199C5.94336 22.3514 6.29314 22.7012 6.72461 22.7012Z" fill="#61380E"/>
<path d="M20.1104 36.0859C19.68 36.0859 19.3291 36.4367 19.3291 36.8672C19.3291 37.2974 19.68 37.6485 20.1104 37.6485C20.5405 37.6485 20.8918 37.2974 20.8918 36.8672C20.8918 36.4367 20.5405 36.0859 20.1104 36.0859Z" fill="#61380E"/>
<path d="M32.8467 9.81641C33.2782 9.81641 33.6279 9.46663 33.6279 9.03516C33.6279 8.60368 33.2782 8.25391 32.8467 8.25391C32.4152 8.25391 32.0654 8.60368 32.0654 9.03516C32.0654 9.46663 32.4152 9.81641 32.8467 9.81641Z" fill="#61380E"/>
<path d="M33.4992 21.1367C33.0677 21.1367 32.7178 21.4867 32.7178 21.9181C32.7178 22.3495 33.0677 22.6993 33.4992 22.6993C33.9305 22.6993 34.2801 22.3495 34.2801 21.9181C34.2801 21.4868 33.9305 21.1367 33.4992 21.1367Z" fill="#61380E"/>
</g>
<defs>
<clipPath id="clip0_55055_72786">
<rect width="40" height="40" fill="white" transform="translate(0.110352)"/>
</clipPath>
</defs>
</svg>
