<svg width="41" height="40" viewBox="0 0 41 40" fill="none" xmlns="http://www.w3.org/2000/svg">
<g clip-path="url(#clip0_55055_72388)">
<path d="M38.1609 27.1627L37.4089 35.1394C36.6037 43.6774 29.4366 50.2011 20.8607 50.2011H19.725C17.9346 50.2011 16.2107 49.918 14.5947 49.3935C12.069 48.5753 9.80634 47.1676 7.97178 45.333C4.96361 42.3249 3.10291 38.1692 3.10291 33.579C2.97955 29.3984 5.05675 21.6014 6.25855 17.581C6.33412 17.3306 6.70054 17.3719 6.71892 17.6333C7.00324 21.9769 12.7295 22.523 14.0077 18.7036C17.0212 9.70725 13.9338 2.69827 13.3942 0.287324C13.3496 0.0900202 13.5567 -0.0672509 13.7344 0.0291543C24.042 5.57776 27.051 11.1501 27.8794 16.3686C28.1143 17.8498 30.2234 17.9233 30.558 16.4617C30.9093 14.9242 30.8018 13.5422 30.6805 12.7546C30.647 12.5336 30.9133 12.3947 31.0751 12.5496C36.3664 17.6051 34.973 24.5426 33.3733 28.7428C32.9571 29.8351 34.2977 30.7497 35.1646 29.965C36.1303 29.0916 36.9938 28.1063 37.7307 27.0349C37.8606 26.8453 38.1576 26.934 38.1609 27.1627Z" fill="#F44545"/>
<path d="M26.9643 20.2927L26.4025 26.2519C25.801 32.6304 20.4467 37.504 14.0398 37.504H13.1915C11.8539 37.504 10.566 37.2925 9.35876 36.9007C7.24267 34.5935 5.95544 31.5448 5.95544 28.2004C5.85595 24.9241 7.51946 18.8135 8.48229 15.6629C8.54211 15.4661 8.83599 15.4984 8.85064 15.7026C8.85461 15.7551 8.85857 15.8069 8.86254 15.8579C9.12743 19.029 13.6544 19.5591 14.6865 16.5427C16.4837 11.2913 15.5706 6.90252 14.8089 4.22461C17.6656 6.87414 18.8573 9.54596 19.2834 12.2288C19.4588 13.3353 21.0345 13.3903 21.2844 12.2983C21.5469 11.1497 21.4666 10.1172 21.376 9.52887C21.3509 9.36377 21.5499 9.26001 21.6708 9.37567C25.6237 13.1525 24.5827 18.3353 23.3877 21.4731C23.0767 22.2892 24.0783 22.9725 24.7259 22.3862C25.4473 21.7338 26.0924 20.9977 26.643 20.1972C26.74 20.0556 26.9619 20.1218 26.9643 20.2927Z" fill="#F44545"/>
<path d="M25.6277 24.9251V38.7447C25.6277 39.435 25.0632 39.9996 24.3729 39.9996H16.9427C16.2524 39.9996 15.6885 39.435 15.6885 38.7447V24.9251C15.6885 24.2348 16.2524 23.6699 16.9427 23.6699H24.3729C25.0632 23.6699 25.6277 24.2348 25.6277 24.9251Z" fill="#F2BB88"/>
<path d="M25.6279 24.9248V38.7441C25.6279 39.4347 25.0633 39.9989 24.373 39.9989H18.8594C18.1691 39.9989 17.6045 39.4347 17.6045 38.7441V24.9248C17.6045 24.2345 18.1691 23.6699 18.8594 23.6699H24.373C25.0633 23.6699 25.6279 24.2345 25.6279 24.9248Z" fill="#F2D1A5"/>
<path d="M24.8004 22.1602V27.5007C24.8004 30.1515 22.6315 32.3204 19.9805 32.3204H18.5394C15.4138 32.3204 12.8564 29.7633 12.8564 26.6377V22.1605H24.8004V22.1602Z" fill="#F2D1A5"/>
<path d="M24.7994 23.498V27.5019C24.7994 30.1524 22.6305 32.321 19.9801 32.321H19.526C19.5208 32.3207 19.5183 32.3207 19.5183 32.3207H18.5943C18.1805 32.3207 17.8677 31.9459 17.9415 31.5388L18.6401 27.696C18.7701 26.9798 19.0569 26.2977 19.5003 25.7203C20.9414 23.8429 23.3489 23.7031 23.3489 23.7031C23.3489 23.7031 23.9449 23.6079 24.7994 23.498Z" fill="#F2BB88"/>
<path d="M15.993 19.8476V22.4348C15.993 23.137 15.4183 23.7114 14.7161 23.7114H14.132C13.4298 23.7114 12.8555 23.137 12.8555 22.4348V19.8476C12.8555 19.3577 13.1353 18.9299 13.5427 18.7166C13.8812 18.538 14.1137 18.5707 14.7161 18.5707C15.4183 18.5707 15.993 19.1453 15.993 19.8476Z" fill="#F2BB88"/>
<path d="M19.1372 18.9401V22.4728C19.1372 23.2549 18.4976 23.8943 17.7157 23.8943H17.4215C16.6393 23.8943 16 23.2549 16 22.4728V18.9401C16 18.4268 16.2759 17.9745 16.6866 17.7245C17.0706 17.4914 17.3815 17.5185 17.7154 17.5185C18.4976 17.5185 19.1372 18.1582 19.1372 18.9401Z" fill="#F2BB88"/>
<path d="M22.2762 18.2899V22.3936C22.2762 23.2194 21.6008 23.8945 20.7753 23.8945H20.6395C19.814 23.8945 19.1387 23.2194 19.1387 22.3936V18.2899C19.1387 17.4626 19.8162 16.7891 20.6395 16.7891H20.7753C21.6008 16.7891 22.2762 17.4647 22.2762 18.2899Z" fill="#F2BB88"/>
<path d="M25.4139 17.8841V22.3467C25.4139 23.1981 24.7172 23.8942 23.866 23.8942H23.8245C22.9731 23.8942 22.2764 23.1981 22.2764 22.3467V17.8841C22.2764 17.0821 22.909 16.3359 23.866 16.3359C24.7172 16.3359 25.4139 17.0327 25.4139 17.8841Z" fill="#F2BB88"/>
<path d="M15.9932 19.8493V21.8256C15.8168 21.9186 15.616 21.9714 15.4039 21.9714H14.8195C14.1173 21.9714 13.543 21.3968 13.543 20.6952V18.7186C13.8814 18.5397 14.114 18.5727 14.7164 18.5727C15.4186 18.5724 15.9932 19.147 15.9932 19.8493Z" fill="#F2D1A5"/>
<path d="M19.1378 18.9401V21.9466C18.9229 22.0773 18.6714 22.1526 18.4029 22.1526H18.1093C17.3275 22.1526 16.6875 21.513 16.6875 20.7311V17.7245C17.0711 17.4914 17.3821 17.5185 17.7162 17.5185C18.4981 17.5185 19.1378 18.1582 19.1378 18.9401Z" fill="#F2D1A5"/>
<path d="M22.2764 18.2902V21.912C22.0414 22.0643 21.7622 22.1531 21.4631 22.1531H21.327C20.5018 22.1531 19.8262 21.478 19.8262 20.6522V17.0307C20.7499 16.4292 22.2764 16.9645 22.2764 18.2902Z" fill="#F2D1A5"/>
<path d="M25.4131 17.8842V21.8896C25.1669 22.0557 24.8702 22.1527 24.5526 22.1527H24.5107C23.6596 22.1527 22.9629 21.4566 22.9629 20.6052V16.5994C23.9514 15.9332 25.4131 16.5918 25.4131 17.8842Z" fill="#F2D1A5"/>
<path d="M25.4131 19.5647V21.8898C25.1669 22.0558 24.8702 22.1529 24.5526 22.1529H24.5107C23.6596 22.1529 22.9629 21.4568 22.9629 20.6053V19.1097C23.16 18.8552 23.46 18.7188 23.764 18.7188C23.9633 18.7188 24.1631 18.7767 24.338 18.8979L24.7747 19.2015L25.4131 19.5647Z" fill="#F2BB88"/>
<path d="M28.4544 23.1503C28.4544 22.225 28.0015 21.3586 27.2416 20.8306L25.4707 19.6002L25.0675 19.32C24.9058 19.208 24.7208 19.1543 24.5371 19.1543C24.2411 19.1543 23.9497 19.2938 23.7684 19.5541C23.158 20.4327 23.3775 21.6512 24.2561 22.2616L24.8399 22.6644C24.8536 22.6742 24.8667 22.6846 24.8792 22.6956C25.1481 22.9287 25.033 23.3737 24.6922 23.4759C24.1401 23.6413 22.6444 24.2016 21.4939 25.6661C21.0297 26.257 20.7252 26.9573 20.5909 27.6968L20.0578 30.6301C19.8975 31.5105 20.5741 32.3211 21.4692 32.3211C25.3117 32.3211 28.4559 29.1772 28.4559 25.3344V24.3166L28.4544 23.1503Z" fill="#F2D1A5"/>
<path d="M19.4015 32.3204H18.5394C15.4138 32.3204 12.8564 29.7633 12.8564 26.6377V23.0226C12.8564 22.5462 13.2425 22.1602 13.7186 22.1602C14.1949 22.1602 14.581 22.5462 14.581 23.0226V27.4992C14.581 30.1512 16.7505 32.3204 19.4015 32.3204Z" fill="#F2BB88"/>
</g>
<defs>
<clipPath id="clip0_55055_72388">
<rect width="40" height="40" fill="white" transform="translate(0.666016)"/>
</clipPath>
</defs>
</svg>
