<svg width="41" height="40" viewBox="0 0 41 40" fill="none" xmlns="http://www.w3.org/2000/svg">
<path d="M29.4804 20.0785C29.5573 19.9747 29.609 19.8544 29.6314 19.7271C29.6539 19.5998 29.6464 19.4691 29.6096 19.3452L24.8596 3.51185C24.8083 3.33953 24.7027 3.1884 24.5586 3.08102C24.4144 2.97363 24.2393 2.91575 24.0596 2.91602H12.3929C12.2518 2.91608 12.1131 2.95194 11.9897 3.02025C11.8663 3.08856 11.7622 3.18708 11.6873 3.30658C11.6123 3.42608 11.5689 3.56264 11.5612 3.70349C11.5534 3.84433 11.5815 3.98484 11.6429 4.11185L16.3262 13.7494H11.6471C11.4909 13.7491 11.3377 13.7928 11.2052 13.8754C11.0726 13.958 10.9659 14.0762 10.8973 14.2165C10.8286 14.3568 10.8008 14.5136 10.817 14.669C10.8332 14.8243 10.8927 14.972 10.9887 15.0952L27.9804 36.8744C28.0585 36.9744 28.1583 37.0554 28.2724 37.111C28.3865 37.1666 28.5118 37.1954 28.6387 37.1952C28.7726 37.1962 28.9044 37.1632 29.0221 37.0993C29.1948 37.0103 29.331 36.8637 29.407 36.6849C29.4831 36.5061 29.4943 36.3064 29.4387 36.1202L24.6679 20.416H28.8346C28.9607 20.4124 29.0844 20.3801 29.1963 20.3216C29.3082 20.2631 29.4053 20.18 29.4804 20.0785Z" fill="url(#paint0_linear_54539_46594)"/>
<defs>
<linearGradient id="paint0_linear_54539_46594" x1="13.8346" y1="20.0577" x2="32.6679" y2="20.0577" gradientUnits="userSpaceOnUse">
<stop stop-color="#FFB300"/>
<stop offset="0.27" stop-color="#FFBA11"/>
<stop offset="0.8" stop-color="#FFCD3C"/>
<stop offset="1" stop-color="#FFD54F"/>
</linearGradient>
</defs>
</svg>
