<svg width="41" height="40" viewBox="0 0 41 40" fill="none" xmlns="http://www.w3.org/2000/svg">
<g clip-path="url(#clip0_55055_72407)">
<path d="M34.061 25.0363C34.061 31.8983 28.498 37.4623 21.635 37.4623C20.564 37.4623 19.524 37.3263 18.533 37.0723C13.172 35.6943 9.20996 30.8283 9.20996 25.0373C9.20996 19.4113 12.949 14.6583 18.078 13.1283C19.205 12.7923 20.399 12.6113 21.635 12.6113C28.498 12.6113 34.061 18.1743 34.061 25.0363Z" fill="#F4D8B6"/>
<path d="M10.4805 26.9412C10.4805 26.9412 12.9315 22.7132 17.1925 23.9052C21.4535 25.0972 26.4665 23.7392 28.2545 24.7552C30.0425 25.7712 22.4805 32.1522 20.2615 31.3022C18.0425 30.4522 11.5175 28.6192 10.4805 26.9412Z" fill="#E74127"/>
<path d="M10.4805 26.9416C10.4805 26.9416 12.4675 35.2436 19.6105 36.4136C26.7535 37.5836 32.8035 32.0086 33.2785 23.9166C33.2785 23.9166 28.3325 22.5146 24.6235 25.2746C20.9145 28.0346 13.6375 29.0056 10.4805 26.9416Z" fill="#E74127"/>
<path d="M17.6179 33.4428C18.1867 33.4428 18.6479 32.9817 18.6479 32.4128C18.6479 31.844 18.1867 31.3828 17.6179 31.3828C17.049 31.3828 16.5879 31.844 16.5879 32.4128C16.5879 32.9817 17.049 33.4428 17.6179 33.4428Z" fill="#E74127"/>
<path d="M16.1333 22.1827C16.6055 22.1827 16.9883 21.7999 16.9883 21.3277C16.9883 20.8555 16.6055 20.4727 16.1333 20.4727C15.6611 20.4727 15.2783 20.8555 15.2783 21.3277C15.2783 21.7999 15.6611 22.1827 16.1333 22.1827Z" fill="#E74127"/>
<path d="M28.5279 31.503C29.3232 31.503 29.9679 30.8583 29.9679 30.063C29.9679 29.2678 29.3232 28.623 28.5279 28.623C27.7326 28.623 27.0879 29.2678 27.0879 30.063C27.0879 30.8583 27.7326 31.503 28.5279 31.503Z" fill="#E74127"/>
<path d="M23.7078 17.368C22.2238 16.149 23.4628 13.76 25.3118 14.28C25.4458 14.318 25.5838 14.361 25.7258 14.41C29.6118 15.757 33.0228 22.867 29.8768 22.237C27.7448 21.811 25.7338 19.033 23.7078 17.368ZM29.6758 25.482C29.3798 25.124 29.3758 24.6 29.6848 24.08C29.9138 23.694 30.2998 23.309 30.9508 23.118C32.5318 22.652 32.5078 28.315 30.3898 28.162C28.4428 28.021 30.6258 26.63 29.6758 25.482Z" fill="#F7EEDD"/>
<path opacity="0.22" d="M18.533 37.0729C13.172 35.6949 9.20996 30.8289 9.20996 25.0379C9.20996 19.4119 12.949 14.6589 18.078 13.1289L18.533 16.4769C18.533 16.4769 17.258 18.7829 13.537 18.2419C13.538 18.2419 6.44996 30.7209 18.533 37.0729Z" fill="#F4D8B6"/>
<path d="M19.4991 15.1838C19.4991 15.1838 18.3181 18.2308 13.6261 17.8338L12.8441 15.9978L10.7891 11.1768L16.2651 8.33984L16.8891 9.65984L19.4991 15.1838Z" fill="#F4D8B6"/>
<path opacity="0.22" d="M12.8441 15.9978L10.7891 11.1768L16.2651 8.33984L16.8891 9.65984C16.8891 9.65984 14.4221 13.2308 12.6331 12.6128C11.0681 12.0708 13.9211 15.2038 12.8441 15.9978Z" fill="#F4D8B6"/>
<path d="M15.5067 8.5198C13.9427 9.6898 11.1707 10.5248 11.1707 10.5248L11.0837 10.4198L8.55469 7.3698L14.5627 4.5918L14.5637 4.5968L15.5067 8.5198Z" fill="#E58D51"/>
<path d="M10.7896 7.5558C10.7896 7.5558 11.0216 9.0238 12.6776 9.1788C13.4716 9.2528 12.4076 9.8348 11.0856 10.4198L8.55664 7.3698L14.5646 4.5918L14.5656 4.5968C14.5646 4.5968 13.9906 6.4628 10.7896 7.5558Z" fill="#E58D51"/>
<path d="M11.7168 6.31653C13.3765 5.54894 14.6518 4.77511 14.5653 4.58813C14.4789 4.40116 13.0633 4.87185 11.4036 5.63944C9.7439 6.40704 8.46854 7.18087 8.55501 7.36784C8.64148 7.55482 10.057 7.08413 11.7168 6.31653Z" fill="#E58D51"/>
<path d="M9.87988 10.9837C9.87988 10.9837 12.5359 8.87673 16.5469 7.92773C16.5469 7.92773 16.9229 8.13173 16.8809 8.32473C16.8389 8.51773 13.4879 10.6337 10.3609 11.3867C10.3609 11.3867 9.93688 11.4617 9.87988 10.9837Z" fill="#7F431B"/>
<path d="M9.58203 10.4974C9.58203 10.4974 12.238 8.39041 16.249 7.44141C16.249 7.44141 16.625 7.64541 16.583 7.83841C16.541 8.03141 13.19 10.1474 10.063 10.9004C10.063 10.9004 9.63903 10.9754 9.58203 10.4974Z" fill="#7F431B"/>
<path d="M12.854 16.239C12.79 16.239 12.733 16.233 12.681 16.221C12.563 16.193 12.489 16.075 12.517 15.957C12.545 15.839 12.663 15.765 12.781 15.793C12.904 15.822 13.484 15.82 15.753 14.571C16.205 14.322 16.64 14.07 17.021 13.843C16.765 13.906 16.489 13.972 16.201 14.041C16.104 14.107 16.006 14.172 15.906 14.238C15.193 14.704 14.559 15.054 14.02 15.276C13.301 15.573 12.755 15.648 12.353 15.503C12.249 15.466 12.17 15.423 12.112 15.374C11.993 15.272 11.98 15.157 11.984 15.097C11.997 14.871 12.231 14.733 12.459 14.628C12.671 14.53 12.967 14.425 13.365 14.307C14.085 14.093 15.001 13.875 15.886 13.664C15.931 13.653 15.976 13.643 16.02 13.632C17.043 12.932 17.862 12.245 17.872 12.237C17.965 12.159 18.104 12.171 18.182 12.264C18.26 12.357 18.248 12.496 18.155 12.574C18.149 12.579 17.75 12.914 17.162 13.355C17.691 13.22 18.118 13.098 18.288 13.009C18.325 12.99 18.354 12.975 18.376 12.966C18.524 12.901 18.617 12.973 18.649 13.007C18.718 13.078 18.731 13.185 18.682 13.272C18.656 13.318 18.632 13.347 18.386 13.512C18.238 13.611 18.041 13.737 17.816 13.877C17.493 14.078 16.836 14.478 16.058 14.909C15.3 15.329 14.648 15.656 14.119 15.881C13.546 16.121 13.136 16.238 12.854 16.239ZM12.514 15.091C12.956 15.241 13.776 14.983 14.865 14.36C14.427 14.468 14.007 14.577 13.633 14.684C12.953 14.881 12.649 15.014 12.514 15.091Z" fill="#7F431B"/>
</g>
<defs>
<clipPath id="clip0_55055_72407">
<rect width="40" height="40" fill="white" transform="translate(0.666016)"/>
</clipPath>
</defs>
</svg>
