<svg width="41" height="40" viewBox="0 0 41 40" fill="none" xmlns="http://www.w3.org/2000/svg">
<path d="M34.6654 28.212L29.0688 11.7895L20.443 3.57812L11.8173 11.7895L6.2207 28.212L20.443 36.4234L34.6654 28.212Z" fill="#FFBB5F"/>
<path d="M11.8173 11.7891L15.8995 13.7141L11.2241 27.473L6.2207 28.2116L11.8173 11.7891Z" fill="#BB684B"/>
<path d="M11.2241 27.4727L20.443 32.5233V36.4227L6.2207 28.2113L11.2241 27.4727Z" fill="#934D35"/>
<path d="M15.8996 13.7145L20.4432 9.03922V3.57812L11.8174 11.7895L15.8996 13.7145Z" fill="#BB684B"/>
<path d="M29.0695 11.7891L24.9873 13.7141L29.6626 27.473L34.6661 28.2116L29.0695 11.7891Z" fill="#934D35"/>
<path d="M29.6623 27.4727L20.4434 32.5233V36.4227L34.6657 28.2113L29.6623 27.4727Z" fill="#BB684B"/>
<path d="M24.987 13.7145L20.4434 9.03922V3.57812L29.0691 11.7895L24.987 13.7145Z" fill="#BB684B"/>
<path d="M28.5456 8.43652C27.9719 9.6848 26.9642 10.6925 25.7159 11.2662C25.2666 11.4728 25.2666 12.1054 25.7159 12.312C26.9642 12.8857 27.9719 13.8932 28.5456 15.1415C28.7522 15.5909 29.3848 15.5909 29.5914 15.1415C30.1652 13.8932 31.1728 12.8857 32.4211 12.312C32.8705 12.1054 32.8705 11.4728 32.4211 11.2662C31.1728 10.6925 30.1652 9.6848 29.5914 8.43652C29.3848 7.9873 28.752 7.9873 28.5456 8.43652Z" fill="#F7C55A"/>
<path d="M21.1612 21.4535L24.8595 17.7553C24.9548 17.6599 25.0084 17.5307 25.0084 17.3959C25.0084 17.261 24.9548 17.132 24.8595 17.0365L20.8019 12.9788C20.6114 12.7884 20.2741 12.7882 20.0833 12.9788L16.0258 17.0363C15.8273 17.2348 15.8273 17.5565 16.0258 17.7549L19.7241 21.4532L16.0258 25.1515C15.8273 25.3499 15.8273 25.6717 16.0258 25.8701L20.0833 29.9276C20.1786 30.0229 20.3078 30.0765 20.4427 30.0765C20.5773 30.0765 20.7066 30.0229 20.8019 29.9278L24.8595 25.8701C24.9548 25.7748 25.0084 25.6456 25.0084 25.5107C25.0084 25.376 24.9548 25.2468 24.8595 25.1514L21.1612 21.4535ZM20.4427 14.057L23.7816 17.396L20.4427 20.7349L17.1037 17.396L20.4427 14.057ZM20.4427 28.8501L17.1037 25.511L20.4427 22.172L23.7816 25.5109L20.4427 28.8501Z" fill="#934D35"/>
</svg>
