<svg width="41" height="40" viewBox="0 0 41 40" fill="none" xmlns="http://www.w3.org/2000/svg">
<g clip-path="url(#clip0_55055_72171)">
<path d="M5.44406 10.0007C5.44406 9.90648 5.44406 10.0957 5.44406 10.0007C5.44406 7.5695 6.40983 5.23792 8.12891 3.51884C9.848 1.79976 12.1796 0.833984 14.6107 0.833984C16.3142 0.872817 17.9782 1.35421 19.4393 2.23085C20.9003 3.1075 22.1082 4.34922 22.9441 5.83398C23.7916 5.44315 24.6107 4.16732 27.9441 4.16732C31.1166 4.16732 33.9374 7.03148 34.6107 10.0007C37.1941 11.4173 39.6107 14.3465 39.6107 17.5007C39.6107 19.7108 38.7328 21.8304 37.17 23.3932C35.6071 24.956 33.4875 25.834 31.2774 25.834H9.61073C7.40059 25.834 5.28097 24.956 3.71817 23.3932C2.15537 21.8304 1.27739 19.7108 1.27739 17.5007C1.2724 15.9985 1.65284 14.5202 2.38235 13.2071C3.11185 11.894 4.16602 10.79 5.44406 10.0007Z" fill="#BEC3D2"/>
<path d="M30.6958 9.43941C31.2302 8.90504 31.0603 7.86876 30.3163 7.12481C29.5724 6.38086 28.5361 6.21097 28.0017 6.74533C27.4674 7.2797 27.6373 8.31598 28.3812 9.05993C29.1252 9.80388 30.1614 9.97378 30.6958 9.43941Z" fill="#FAFCFF"/>
<path d="M19.1897 5.44101C19.4581 5.17253 19.3729 4.65201 18.9993 4.27841C18.6257 3.90481 18.1052 3.8196 17.8367 4.08808C17.5682 4.35657 17.6535 4.87708 18.0271 5.25068C18.4007 5.62429 18.9212 5.7095 19.1897 5.44101Z" fill="#FAFCFF"/>
<path d="M31.9726 9.69092C32.107 9.55651 32.0645 9.29612 31.8777 9.10932C31.6909 8.92252 31.4305 8.88005 31.2961 9.01445C31.1617 9.14886 31.2042 9.40924 31.391 9.59605C31.5778 9.78285 31.8382 9.82532 31.9726 9.69092Z" fill="#FAFCFF"/>
<path d="M6.27702 25H5.44368C5.22267 25 5.01071 25.0878 4.85443 25.2441C4.69815 25.4004 4.61035 25.6123 4.61035 25.8333C4.61035 26.0543 4.69815 26.2663 4.85443 26.4226C5.01071 26.5789 5.22267 26.6667 5.44368 26.6667H6.27702C6.49803 26.6667 6.70999 26.5789 6.86627 26.4226C7.02255 26.2663 7.11035 26.0543 7.11035 25.8333C7.11035 25.6123 7.02255 25.4004 6.86627 25.2441C6.70999 25.0878 6.49803 25 6.27702 25Z" fill="#00A6FF"/>
<path d="M22.111 23.3333C22.111 22.4493 21.7598 21.6014 21.1347 20.9763C20.5096 20.3512 19.6617 20 18.7777 20C17.8936 20 17.0458 20.3512 16.4206 20.9763C15.7955 21.6014 15.4443 22.4493 15.4443 23.3333C15.4443 23.5543 15.5321 23.7663 15.6884 23.9226C15.8447 24.0789 16.0567 24.1667 16.2777 24.1667C16.4987 24.1667 16.7106 24.0789 16.8669 23.9226C17.0232 23.7663 17.111 23.5543 17.111 23.3333C17.111 23.0037 17.2088 22.6815 17.3919 22.4074C17.575 22.1333 17.8353 21.9197 18.1399 21.7935C18.4444 21.6674 18.7795 21.6344 19.1028 21.6987C19.4261 21.763 19.7231 21.9217 19.9562 22.1548C20.1893 22.3879 20.348 22.6849 20.4123 23.0082C20.4766 23.3315 20.4436 23.6666 20.3175 23.9711C20.1913 24.2757 19.9777 24.536 19.7036 24.7191C19.4295 24.9023 19.1073 25 18.7777 25H8.77767C8.55666 25 8.34469 25.0878 8.18841 25.2441C8.03213 25.4004 7.94434 25.6123 7.94434 25.8333C7.94434 26.0543 8.03213 26.2663 8.18841 26.4226C8.34469 26.5789 8.55666 26.6667 8.77767 26.6667H18.7777C19.6617 26.6667 20.5096 26.3155 21.1347 25.6904C21.7598 25.0652 22.111 24.2174 22.111 23.3333Z" fill="#00A6FF"/>
<path d="M13.777 30H12.9437C12.7227 30 12.5107 30.0878 12.3544 30.2441C12.1981 30.4004 12.1104 30.6123 12.1104 30.8333C12.1104 31.0543 12.1981 31.2663 12.3544 31.4226C12.5107 31.5789 12.7227 31.6667 12.9437 31.6667H13.777C13.998 31.6667 14.21 31.5789 14.3663 31.4226C14.5226 31.2663 14.6104 31.0543 14.6104 30.8333C14.6104 30.6123 14.5226 30.4004 14.3663 30.2441C14.21 30.0878 13.998 30 13.777 30ZM20.4437 30H16.277C16.056 30 15.844 30.0878 15.6878 30.2441C15.5315 30.4004 15.4437 30.6123 15.4437 30.8333C15.4437 31.0543 15.5315 31.2663 15.6878 31.4226C15.844 31.5789 16.056 31.6667 16.277 31.6667H20.4437C20.7733 31.6667 21.0956 31.7644 21.3696 31.9475C21.6437 32.1307 21.8573 32.391 21.9835 32.6955C22.1096 33.0001 22.1426 33.3352 22.0783 33.6585C22.014 33.9818 21.8553 34.2788 21.6222 34.5118C21.3891 34.7449 21.0921 34.9037 20.7688 34.968C20.4455 35.0323 20.1104 34.9993 19.8059 34.8731C19.5013 34.747 19.241 34.5334 19.0579 34.2593C18.8748 33.9852 18.777 33.663 18.777 33.3333C18.777 33.1123 18.6892 32.9004 18.5329 32.7441C18.3767 32.5878 18.1647 32.5 17.9437 32.5C17.7227 32.5 17.5107 32.5878 17.3544 32.7441C17.1981 32.9004 17.1104 33.1123 17.1104 33.3333C17.1104 33.9926 17.3058 34.6371 17.6721 35.1852C18.0384 35.7334 18.559 36.1606 19.1681 36.4129C19.7772 36.6652 20.4474 36.7312 21.094 36.6026C21.7406 36.474 22.3345 36.1565 22.8007 35.6904C23.2669 35.2242 23.5844 34.6302 23.713 33.9836C23.8416 33.337 23.7756 32.6668 23.5233 32.0577C23.271 31.4486 22.8438 30.928 22.2956 30.5618C21.7474 30.1955 21.103 30 20.4437 30Z" fill="#00A6FF"/>
<path d="M26.2773 30H24.6107C24.3897 30 24.1777 30.0878 24.0214 30.2441C23.8651 30.4004 23.7773 30.6123 23.7773 30.8333C23.7773 31.0543 23.8651 31.2663 24.0214 31.4226C24.1777 31.5789 24.3897 31.6667 24.6107 31.6667H26.2773C26.4984 31.6667 26.7103 31.5789 26.8666 31.4226C27.0229 31.2663 27.1107 31.0543 27.1107 30.8333C27.1107 30.6123 27.0229 30.4004 26.8666 30.2441C26.7103 30.0878 26.4984 30 26.2773 30Z" fill="#00A6FF"/>
<path d="M32.111 30H28.7777C28.5567 30 28.3447 30.0878 28.1884 30.2441C28.0321 30.4004 27.9443 30.6123 27.9443 30.8333C27.9443 31.0543 28.0321 31.2663 28.1884 31.4226C28.3447 31.5789 28.5567 31.6667 28.7777 31.6667H32.111C32.9951 31.6667 33.8429 32.0179 34.468 32.643C35.0931 33.2681 35.4443 34.1159 35.4443 35C35.4443 35.8841 35.0931 36.7319 34.468 37.357C33.8429 37.9821 32.9951 38.3333 32.111 38.3333C31.669 38.3333 31.2451 38.1577 30.9325 37.8452C30.6199 37.5326 30.4443 37.1087 30.4443 36.6667C30.4443 36.2246 30.6199 35.8007 30.9325 35.4882C31.2451 35.1756 31.669 35 32.111 35C32.332 35 32.544 34.9122 32.7003 34.7559C32.8565 34.5996 32.9443 34.3877 32.9443 34.1667C32.9443 33.9457 32.8565 33.7337 32.7003 33.5774C32.544 33.4211 32.332 33.3333 32.111 33.3333C31.2269 33.3333 30.3791 33.6845 29.754 34.3096C29.1289 34.9348 28.7777 35.7826 28.7777 36.6667C28.7777 37.5507 29.1289 38.3986 29.754 39.0237C30.3791 39.6488 31.2269 40 32.111 40C33.4371 40 34.7089 39.4732 35.6465 38.5355C36.5842 37.5979 37.111 36.3261 37.111 35C37.111 33.6739 36.5842 32.4021 35.6465 31.4645C34.7089 30.5268 33.4371 30 32.111 30Z" fill="#00A6FF"/>
<path d="M13.7773 27.5007H11.2773C11.0563 27.5007 10.8444 27.5884 10.6881 27.7447C10.5318 27.901 10.444 28.113 10.444 28.334C10.444 28.555 10.5318 28.767 10.6881 28.9232C10.8444 29.0795 11.0563 29.1673 11.2773 29.1673H13.7773C13.9984 29.1673 14.2103 29.0795 14.3666 28.9232C14.5229 28.767 14.6107 28.555 14.6107 28.334C14.6107 28.113 14.5229 27.901 14.3666 27.7447C14.2103 27.5884 13.9984 27.5007 13.7773 27.5007ZM26.2773 25.834C26.4984 25.834 26.7103 25.7462 26.8666 25.5899C27.0229 25.4336 27.1107 25.2217 27.1107 25.0007C27.1107 24.7796 27.0229 24.5677 26.8666 24.4114C26.7103 24.2551 26.4984 24.1673 26.2773 24.1673C25.8353 24.1673 25.4114 23.9917 25.0988 23.6792C24.7863 23.3666 24.6107 22.9427 24.6107 22.5007C24.6107 21.8376 24.8741 21.2017 25.3429 20.7329C25.8118 20.264 26.4476 20.0007 27.1107 20.0007C27.9947 20.0007 28.8426 20.3518 29.4677 20.977C30.0928 21.6021 30.444 22.4499 30.444 23.334C30.4457 23.8816 30.339 24.4242 30.1302 24.9304C29.9214 25.4367 29.6145 25.8967 29.2273 26.2839C28.8401 26.6712 28.3801 26.978 27.8738 27.1868C27.3675 27.3957 26.825 27.5023 26.2773 27.5007H16.2773C16.0563 27.5007 15.8444 27.5884 15.6881 27.7447C15.5318 27.901 15.444 28.113 15.444 28.334C15.444 28.555 15.5318 28.767 15.6881 28.9232C15.8444 29.0795 16.0563 29.1673 16.2773 29.1673H26.2773C27.0439 29.169 27.8031 29.0192 28.5116 28.7266C29.2201 28.4341 29.8638 28.0045 30.4058 27.4625C30.9478 26.9204 31.3774 26.2767 31.67 25.5683C31.9626 24.8598 32.1123 24.1005 32.1107 23.334C32.1094 22.0083 31.5821 20.7373 30.6448 19.7999C29.7074 18.8625 28.4364 18.3353 27.1107 18.334C26.006 18.3353 24.947 18.7747 24.1659 19.5558C23.3847 20.3369 22.9453 21.396 22.944 22.5007C22.944 23.3847 23.2952 24.2326 23.9203 24.8577C24.5454 25.4828 25.3933 25.834 26.2773 25.834ZM2.94401 25.0007H2.11068C1.88966 25.0007 1.6777 25.0884 1.52142 25.2447C1.36514 25.401 1.27734 25.613 1.27734 25.834C1.27734 26.055 1.36514 26.267 1.52142 26.4232C1.6777 26.5795 1.88966 26.6673 2.11068 26.6673H2.94401C3.16502 26.6673 3.37699 26.5795 3.53327 26.4232C3.68955 26.267 3.77734 26.055 3.77734 25.834C3.77734 25.613 3.68955 25.401 3.53327 25.2447C3.37699 25.0884 3.16502 25.0007 2.94401 25.0007Z" fill="#00A6FF"/>
</g>
<defs>
<clipPath id="clip0_55055_72171">
<rect width="40" height="40" fill="white" transform="translate(0.444336)"/>
</clipPath>
</defs>
</svg>
