<svg width="41" height="40" viewBox="0 0 41 40" fill="none" xmlns="http://www.w3.org/2000/svg">
<g clip-path="url(#clip0_54551_50898)">
<path d="M19.3047 23.7891H21.8047V38.7891H19.3047V23.7891Z" fill="#35A822"/>
<path d="M28.5841 13.7881C28.5841 19.3663 25.931 24.2631 20.5548 24.2631C15.1785 24.2631 12.5254 19.3663 12.5254 13.7881C12.5254 8.21 16.3604 3.23813 20.5548 0C24.7491 3.23813 28.5841 8.20938 28.5841 13.7881Z" fill="#35A822"/>
<path d="M35.9459 26.0233C31.8484 29.9677 26.3759 31.6239 22.574 27.9608C18.7721 24.2977 20.4927 19.0327 24.5902 15.0858C28.6877 11.1389 35.0509 10.2364 40.3952 10.8021C40.9827 15.9527 40.0434 22.0783 35.9459 26.0233Z" fill="#85BF4B"/>
<path d="M5.16348 26.024C9.26098 29.9684 14.7335 31.6246 18.5385 27.9615C22.3435 24.2984 20.6197 19.0334 16.5222 15.0865C12.4247 11.1396 6.05848 10.2428 0.714105 10.8084C0.126605 15.9534 1.06598 22.079 5.16348 26.024Z" fill="#85BF4B"/>
<path d="M19.7118 30.6423L11.735 38.9417C11.65 39.03 11.5929 39.1414 11.5708 39.262C11.5487 39.3825 11.5625 39.5069 11.6105 39.6197C11.6585 39.7324 11.7387 39.8286 11.8409 39.8962C11.9432 39.9638 12.063 39.9998 12.1856 39.9998H28.9243C29.0469 39.9998 29.1668 39.9638 29.269 39.8962C29.3713 39.8286 29.4514 39.7324 29.4994 39.6197C29.5474 39.5069 29.5612 39.3825 29.5391 39.262C29.517 39.1414 29.4599 39.03 29.375 38.9417L21.3981 30.6423C21.289 30.5287 21.158 30.4384 21.0132 30.3767C20.8683 30.315 20.7124 30.2832 20.555 30.2832C20.3975 30.2832 20.2416 30.315 20.0968 30.3767C19.9519 30.4384 19.821 30.5287 19.7118 30.6423Z" fill="#8C4830"/>
</g>
<defs>
<clipPath id="clip0_54551_50898">
<rect width="40" height="40" fill="white" transform="translate(0.554688)"/>
</clipPath>
</defs>
</svg>
