<svg width="41" height="40" viewBox="0 0 41 40" fill="none" xmlns="http://www.w3.org/2000/svg">
<g clip-path="url(#clip0_54551_50890)">
<path d="M11.2039 36.3853C9.36787 34.299 7.53197 32.1292 6.36358 29.5422C5.19527 26.7882 4.86144 23.6171 5.44563 20.6128C6.02982 17.6085 7.36501 14.7711 9.28447 12.351C9.11759 14.4373 9.86866 16.6071 11.2873 18.1927C10.4528 14.187 11.788 9.84742 14.4585 6.67625C17.129 3.50508 20.8009 1.41867 24.6397 0C22.7203 2.00286 22.4699 5.17403 23.221 7.84456C23.9721 10.515 25.5577 12.8517 26.9764 15.2718C28.395 17.6919 29.7303 20.1955 29.8138 22.9494C30.5649 21.5307 31.3994 20.112 31.9001 18.5265C32.4008 16.9408 32.6512 15.2718 32.234 13.6862C33.7361 15.5222 34.5707 17.3581 34.9879 19.6948C35.4051 22.0315 35.3217 24.4515 35.0714 26.7882C34.7375 29.3753 34.0699 32.0458 32.6513 34.2155C30.9822 36.8025 28.3117 38.6384 25.3909 39.6399C20.2167 40.5579 15.1261 39.8068 11.2039 36.3853Z" fill="#F03010"/>
<path d="M17.5459 39.473C24.3889 42.1435 31.1486 34.0486 27.3932 27.7897C27.3932 27.7062 27.3098 27.7062 27.3098 27.6228C27.6436 31.0443 26.809 33.5479 25.2234 34.9666C26.058 32.9638 25.4738 30.6271 24.4723 28.6242C23.4709 26.7048 22.0522 24.9523 20.9673 23.1164C19.8824 21.197 19.048 19.0272 19.5487 16.8574C17.5458 18.3596 16.1271 20.6128 15.543 23.0329C14.9588 25.453 15.2926 28.1235 16.3775 30.3767C15.1257 29.4588 14.2078 27.9566 14.1243 26.371C12.789 27.9566 11.9545 30.0429 12.0379 32.1292C12.038 35.3839 14.625 38.3047 17.5459 39.473Z" fill="#FEBF1E"/>
</g>
<defs>
<clipPath id="clip0_54551_50890">
<rect width="40" height="40" fill="white" transform="translate(0.22168)"/>
</clipPath>
</defs>
</svg>
