<svg width="41" height="40" viewBox="0 0 41 40" fill="none" xmlns="http://www.w3.org/2000/svg">
<g clip-path="url(#clip0_55055_72167)">
<path d="M20.1462 40C26.5228 39.9811 31.7719 34.6527 31.7235 28.2759C31.6559 19.3704 23.4585 9.92125 20.6831 0.430391C20.599 0.142891 20.3549 -0.000389828 20.111 7.96542e-07C19.8669 -0.000389828 19.6228 0.142891 19.5388 0.430391C16.7634 9.92125 8.56596 19.3704 8.49838 28.2759C8.44994 34.6527 13.6991 39.9811 20.0756 40" fill="#59D8FF"/>
<path d="M23.9834 36.7961C23.6341 36.7961 23.297 36.6065 23.1244 36.2757C22.8774 35.8019 23.0614 35.2173 23.5351 34.9702C25.453 33.9704 26.8372 32.1949 27.3324 30.0994C27.4556 29.579 27.9748 29.2564 28.497 29.3798C29.0171 29.5027 29.3391 30.0244 29.2162 30.5441C28.5912 33.1878 26.8466 35.4269 24.4298 36.6864C24.2868 36.7608 24.134 36.7961 23.9834 36.7961Z" fill="#E8FAFF"/>
<path d="M24.0171 38.7098H23.9466C17.57 38.6896 12.3209 33.0173 12.3693 26.2292C12.4195 19.1834 16.96 11.8177 20.428 4.35172C20.9965 3.12805 21.0684 1.74445 20.6887 0.449767C20.6868 0.443282 20.6849 0.436876 20.683 0.430392C20.599 0.142892 20.3549 -0.000389479 20.1109 1.14578e-06C19.8669 -0.000467604 19.6229 0.142892 19.5387 0.430392C16.5833 10.537 7.47937 20.5965 8.59171 30.0024C9.27116 35.7482 14.2899 40 20.0757 40H20.1462C22.1331 39.9941 24.0102 39.472 25.6521 38.5639C25.1162 38.6486 24.573 38.708 24.0171 38.7098Z" fill="#59D8FF"/>
</g>
<defs>
<clipPath id="clip0_55055_72167">
<rect width="40" height="40" fill="white" transform="translate(0.111328)"/>
</clipPath>
</defs>
</svg>
