<svg width="40" height="40" viewBox="0 0 40 40" fill="none" xmlns="http://www.w3.org/2000/svg">
<rect x="0.5" y="0.5" width="39" height="39" rx="19.5" fill="#020202"/>
<g clip-path="url(#clip0_55120_34700)">
<path d="M11 14C11 13.9435 11 14.057 11 14C11 12.5413 11.5795 11.1424 12.6109 10.1109C13.6424 9.07946 15.0413 8.5 16.5 8.5C17.5221 8.5233 18.5205 8.81214 19.3972 9.33812C20.2738 9.86411 20.9985 10.6091 21.5 11.5C22.0085 11.2655 22.5 10.5 24.5 10.5C26.4035 10.5 28.096 12.2185 28.5 14C30.05 14.85 31.5 16.6075 31.5 18.5C31.5 19.8261 30.9732 21.0979 30.0356 22.0355C29.0979 22.9732 27.8261 23.5 26.5 23.5H13.5C12.1739 23.5 10.9022 22.9732 9.9645 22.0355C9.02681 21.0979 8.50003 19.8261 8.50003 18.5C8.49703 17.5987 8.7253 16.7117 9.163 15.9239C9.60071 15.136 10.2332 14.4736 11 14Z" fill="#BEC3D2"/>
<path d="M31.5 18.5C31.5 16.61 30.05 14.85 28.5 14C28.2616 13.036 27.7327 12.1685 26.985 11.515C26.3071 10.8866 25.424 10.5259 24.5 10.5C23.7791 10.4686 23.0614 10.6145 22.41 10.925C21.995 11.14 21.75 11.385 21.5 11.5C20.9985 10.6091 20.2738 9.86411 19.3971 9.33812C18.5205 8.81214 17.5221 8.5233 16.5 8.5C15.112 8.49975 13.7753 9.02499 12.7588 9.97011C11.7423 10.9152 11.1212 12.2101 11.0205 13.5945C11.7886 13.2038 12.6382 13.0001 13.5 13C14.5221 13.0233 15.5205 13.3121 16.3971 13.8381C17.2738 14.3641 17.9985 15.1091 18.5 16C18.75 15.885 18.995 15.64 19.41 15.425C20.0614 15.1145 20.7791 14.9686 21.5 15C22.424 15.0259 23.3071 15.3866 23.985 16.015C24.7327 16.6685 25.2616 17.536 25.5 18.5C27.05 19.35 28.5 21.11 28.5 23C28.5 23.028 28.4965 23.055 28.496 23.0825C29.3884 22.694 30.148 22.0534 30.6816 21.2394C31.2152 20.4254 31.4997 19.4733 31.5 18.5Z" fill="#DCE1EB"/>
<path d="M26.1511 13.6629C26.4717 13.3422 26.3698 12.7205 25.9234 12.2741C25.477 11.8277 24.8553 11.7258 24.5346 12.0464C24.214 12.367 24.316 12.9888 24.7623 13.4352C25.2087 13.8815 25.8305 13.9835 26.1511 13.6629Z" fill="#FAFCFF"/>
<path d="M19.2472 11.2639C19.4083 11.1028 19.3572 10.7905 19.133 10.5663C18.9089 10.3421 18.5966 10.291 18.4355 10.4521C18.2744 10.6132 18.3255 10.9255 18.5497 11.1497C18.7738 11.3738 19.0861 11.4249 19.2472 11.2639Z" fill="#FAFCFF"/>
<path d="M26.9171 13.8145C26.9978 13.7339 26.9723 13.5777 26.8602 13.4656C26.7481 13.3535 26.5919 13.328 26.5113 13.4087C26.4306 13.4893 26.4561 13.6455 26.5682 13.7576C26.6803 13.8697 26.8365 13.8952 26.9171 13.8145Z" fill="#FAFCFF"/>
<path d="M11.5 23H11C10.8674 23 10.7402 23.0527 10.6464 23.1464C10.5527 23.2402 10.5 23.3674 10.5 23.5C10.5 23.6326 10.5527 23.7598 10.6464 23.8536C10.7402 23.9473 10.8674 24 11 24H11.5C11.6326 24 11.7598 23.9473 11.8536 23.8536C11.9473 23.7598 12 23.6326 12 23.5C12 23.3674 11.9473 23.2402 11.8536 23.1464C11.7598 23.0527 11.6326 23 11.5 23Z" fill="#00A6FF"/>
<path d="M21 22C21 21.4696 20.7893 20.9609 20.4142 20.5858C20.0391 20.2107 19.5304 20 19 20C18.4696 20 17.9609 20.2107 17.5858 20.5858C17.2107 20.9609 17 21.4696 17 22C17 22.1326 17.0527 22.2598 17.1464 22.3536C17.2402 22.4473 17.3674 22.5 17.5 22.5C17.6326 22.5 17.7598 22.4473 17.8536 22.3536C17.9473 22.2598 18 22.1326 18 22C18 21.8022 18.0586 21.6089 18.1685 21.4444C18.2784 21.28 18.4346 21.1518 18.6173 21.0761C18.8 21.0004 19.0011 20.9806 19.1951 21.0192C19.3891 21.0578 19.5673 21.153 19.7071 21.2929C19.847 21.4327 19.9422 21.6109 19.9808 21.8049C20.0194 21.9989 19.9996 22.2 19.9239 22.3827C19.8482 22.5654 19.72 22.7216 19.5556 22.8315C19.3911 22.9414 19.1978 23 19 23H13C12.8674 23 12.7402 23.0527 12.6464 23.1464C12.5527 23.2402 12.5 23.3674 12.5 23.5C12.5 23.6326 12.5527 23.7598 12.6464 23.8536C12.7402 23.9473 12.8674 24 13 24H19C19.5304 24 20.0391 23.7893 20.4142 23.4142C20.7893 23.0391 21 22.5304 21 22Z" fill="#00A6FF"/>
<path d="M16 26H15.5C15.3674 26 15.2402 26.0527 15.1464 26.1464C15.0527 26.2402 15 26.3674 15 26.5C15 26.6326 15.0527 26.7598 15.1464 26.8536C15.2402 26.9473 15.3674 27 15.5 27H16C16.1326 27 16.2598 26.9473 16.3536 26.8536C16.4473 26.7598 16.5 26.6326 16.5 26.5C16.5 26.3674 16.4473 26.2402 16.3536 26.1464C16.2598 26.0527 16.1326 26 16 26ZM20 26H17.5C17.3674 26 17.2402 26.0527 17.1464 26.1464C17.0527 26.2402 17 26.3674 17 26.5C17 26.6326 17.0527 26.7598 17.1464 26.8536C17.2402 26.9473 17.3674 27 17.5 27H20C20.1978 27 20.3911 27.0586 20.5556 27.1685C20.72 27.2784 20.8482 27.4346 20.9239 27.6173C20.9996 27.8 21.0194 28.0011 20.9808 28.1951C20.9422 28.3891 20.847 28.5673 20.7071 28.7071C20.5673 28.847 20.3891 28.9422 20.1951 28.9808C20.0011 29.0194 19.8 28.9996 19.6173 28.9239C19.4346 28.8482 19.2784 28.72 19.1685 28.5556C19.0586 28.3911 19 28.1978 19 28C19 27.8674 18.9473 27.7402 18.8536 27.6464C18.7598 27.5527 18.6326 27.5 18.5 27.5C18.3674 27.5 18.2402 27.5527 18.1464 27.6464C18.0527 27.7402 18 27.8674 18 28C18 28.3956 18.1173 28.7822 18.3371 29.1111C18.5568 29.44 18.8692 29.6964 19.2346 29.8478C19.6001 29.9991 20.0022 30.0387 20.3902 29.9616C20.7781 29.8844 21.1345 29.6939 21.4142 29.4142C21.6939 29.1345 21.8844 28.7781 21.9616 28.3902C22.0387 28.0022 21.9991 27.6001 21.8478 27.2346C21.6964 26.8692 21.44 26.5568 21.1111 26.3371C20.7822 26.1173 20.3956 26 20 26Z" fill="#00A6FF"/>
<path d="M23.5 26H22.5C22.3674 26 22.2402 26.0527 22.1464 26.1464C22.0527 26.2402 22 26.3674 22 26.5C22 26.6326 22.0527 26.7598 22.1464 26.8536C22.2402 26.9473 22.3674 27 22.5 27H23.5C23.6326 27 23.7598 26.9473 23.8536 26.8536C23.9473 26.7598 24 26.6326 24 26.5C24 26.3674 23.9473 26.2402 23.8536 26.1464C23.7598 26.0527 23.6326 26 23.5 26Z" fill="#00A6FF"/>
<path d="M27 26H25C24.8674 26 24.7402 26.0527 24.6464 26.1464C24.5527 26.2402 24.5 26.3674 24.5 26.5C24.5 26.6326 24.5527 26.7598 24.6464 26.8536C24.7402 26.9473 24.8674 27 25 27H27C27.5304 27 28.0391 27.2107 28.4142 27.5858C28.7893 27.9609 29 28.4696 29 29C29 29.5304 28.7893 30.0391 28.4142 30.4142C28.0391 30.7893 27.5304 31 27 31C26.7348 31 26.4804 30.8946 26.2929 30.7071C26.1054 30.5196 26 30.2652 26 30C26 29.7348 26.1054 29.4804 26.2929 29.2929C26.4804 29.1054 26.7348 29 27 29C27.1326 29 27.2598 28.9473 27.3536 28.8536C27.4473 28.7598 27.5 28.6326 27.5 28.5C27.5 28.3674 27.4473 28.2402 27.3536 28.1464C27.2598 28.0527 27.1326 28 27 28C26.4696 28 25.9609 28.2107 25.5858 28.5858C25.2107 28.9609 25 29.4696 25 30C25 30.5304 25.2107 31.0391 25.5858 31.4142C25.9609 31.7893 26.4696 32 27 32C27.7956 32 28.5587 31.6839 29.1213 31.1213C29.6839 30.5587 30 29.7956 30 29C30 28.2044 29.6839 27.4413 29.1213 26.8787C28.5587 26.3161 27.7956 26 27 26Z" fill="#00A6FF"/>
<path d="M16 24.5H14.5C14.3674 24.5 14.2402 24.5527 14.1464 24.6464C14.0527 24.7402 14 24.8674 14 25C14 25.1326 14.0527 25.2598 14.1464 25.3536C14.2402 25.4473 14.3674 25.5 14.5 25.5H16C16.1326 25.5 16.2598 25.4473 16.3536 25.3536C16.4473 25.2598 16.5 25.1326 16.5 25C16.5 24.8674 16.4473 24.7402 16.3536 24.6464C16.2598 24.5527 16.1326 24.5 16 24.5ZM23.5 23.5C23.6326 23.5 23.7598 23.4473 23.8536 23.3536C23.9473 23.2598 24 23.1326 24 23C24 22.8674 23.9473 22.7402 23.8536 22.6464C23.7598 22.5527 23.6326 22.5 23.5 22.5C23.2348 22.5 22.9804 22.3946 22.7929 22.2071C22.6054 22.0196 22.5 21.7652 22.5 21.5C22.5 21.1022 22.658 20.7206 22.9393 20.4393C23.2206 20.158 23.6022 20 24 20C24.5304 20 25.0391 20.2107 25.4142 20.5858C25.7893 20.9609 26 21.4696 26 22C26.001 22.3286 25.937 22.6541 25.8117 22.9579C25.6864 23.2616 25.5023 23.5376 25.27 23.77C25.0376 24.0023 24.7616 24.1864 24.4579 24.3117C24.1541 24.437 23.8286 24.501 23.5 24.5H17.5C17.3674 24.5 17.2402 24.5527 17.1464 24.6464C17.0527 24.7402 17 24.8674 17 25C17 25.1326 17.0527 25.2598 17.1464 25.3536C17.2402 25.4473 17.3674 25.5 17.5 25.5H23.5C23.9599 25.501 24.4155 25.4111 24.8406 25.2356C25.2656 25.06 25.6519 24.8023 25.9771 24.4771C26.3023 24.1519 26.5601 23.7656 26.7356 23.3406C26.9111 22.9155 27.001 22.4599 27 22C26.9992 21.2046 26.6829 20.442 26.1204 19.8796C25.558 19.3171 24.7954 19.0008 24 19C23.3372 19.0008 22.7018 19.2644 22.2331 19.7331C21.7644 20.2018 21.5008 20.8372 21.5 21.5C21.5 22.0304 21.7107 22.5391 22.0858 22.9142C22.4609 23.2893 22.9696 23.5 23.5 23.5ZM9.5 23H9C8.86739 23 8.74021 23.0527 8.64645 23.1464C8.55268 23.2402 8.5 23.3674 8.5 23.5C8.5 23.6326 8.55268 23.7598 8.64645 23.8536C8.74021 23.9473 8.86739 24 9 24H9.5C9.63261 24 9.75979 23.9473 9.85355 23.8536C9.94732 23.7598 10 23.6326 10 23.5C10 23.3674 9.94732 23.2402 9.85355 23.1464C9.75979 23.0527 9.63261 23 9.5 23Z" fill="#00A6FF"/>
</g>
<rect x="0.5" y="0.5" width="39" height="39" rx="19.5" stroke="#F7C55A"/>
<defs>
<clipPath id="clip0_55120_34700">
<rect width="24" height="24" fill="white" transform="translate(8 8)"/>
</clipPath>
</defs>
</svg>
