<svg width="40" height="40" viewBox="0 0 40 40" fill="none" xmlns="http://www.w3.org/2000/svg">
<rect x="0.5" y="0.5" width="39" height="39" rx="19.5" fill="#020202"/>
<g clip-path="url(#clip0_55120_35989)">
<path d="M19.25 22.2737H20.75V31.2737H19.25V22.2737Z" fill="#35A822"/>
<path d="M24.8176 16.2729C24.8176 19.6198 23.2257 22.5579 20 22.5579C16.7742 22.5579 15.1824 19.6198 15.1824 16.2729C15.1824 12.926 17.4834 9.94288 20 8C22.5166 9.94288 24.8176 12.9256 24.8176 16.2729Z" fill="#35A822"/>
<path d="M29.2348 23.6138C26.7763 25.9805 23.4928 26.9742 21.2116 24.7763C18.9305 22.5785 19.9629 19.4195 22.4214 17.0513C24.8799 14.6832 28.6978 14.1417 31.9044 14.4811C32.2569 17.5715 31.6933 21.2468 29.2348 23.6138Z" fill="#85BF4B"/>
<path d="M10.7653 23.6139C13.2238 25.9805 16.5073 26.9743 18.7903 24.7764C21.0733 22.5785 20.039 19.4195 17.5805 17.0514C15.122 14.6833 11.3023 14.1452 8.09565 14.4845C7.74315 17.5715 8.30678 21.2469 10.7653 23.6139Z" fill="#85BF4B"/>
<path d="M19.4943 26.3855L14.7082 31.3651C14.6572 31.4181 14.623 31.485 14.6097 31.5573C14.5964 31.6296 14.6047 31.7043 14.6335 31.7719C14.6623 31.8396 14.7104 31.8973 14.7717 31.9378C14.8331 31.9784 14.905 32 14.9785 32H25.0218C25.0953 32 25.1672 31.9784 25.2286 31.9378C25.2899 31.8973 25.338 31.8396 25.3668 31.7719C25.3956 31.7043 25.4039 31.6296 25.3907 31.5573C25.3774 31.485 25.3431 31.4181 25.2922 31.3651L20.506 26.3855C20.4406 26.3174 20.362 26.2632 20.2751 26.2261C20.1882 26.1891 20.0946 26.17 20.0002 26.17C19.9057 26.17 19.8122 26.1891 19.7252 26.2261C19.6383 26.2632 19.5598 26.3174 19.4943 26.3855Z" fill="#8C4830"/>
</g>
<rect x="0.5" y="0.5" width="39" height="39" rx="19.5" stroke="#F7C55A"/>
<defs>
<clipPath id="clip0_55120_35989">
<rect width="24" height="24" fill="white" transform="translate(8 8)"/>
</clipPath>
</defs>
</svg>
