<svg width="40" height="40" viewBox="0 0 40 40" fill="none" xmlns="http://www.w3.org/2000/svg">
<rect x="0.5" y="0.5" width="39" height="39" rx="19.5" fill="#020202"/>
<g clip-path="url(#clip0_55120_39209)">
<path d="M14.5892 29.8312C13.4876 28.5794 12.3861 27.2775 11.685 25.7253C10.9841 24.073 10.7838 22.1702 11.1343 20.3677C11.4848 18.5651 12.2859 16.8627 13.4376 15.4106C13.3374 16.6624 13.7881 17.9642 14.6393 18.9156C14.1386 16.5122 14.9397 13.9085 16.542 12.0058C18.1443 10.103 20.3474 8.8512 22.6507 8C21.4991 9.20172 21.3489 11.1044 21.7995 12.7067C22.2501 14.309 23.2015 15.711 24.0527 17.1631C24.9039 18.6151 25.7051 20.1173 25.7552 21.7696C26.2058 20.9184 26.7065 20.0672 27.007 19.1159C27.3074 18.1645 27.4576 17.1631 27.2073 16.2117C28.1086 17.3133 28.6093 18.4148 28.8596 19.8169C29.11 21.2189 29.0599 22.6709 28.9097 24.0729C28.7094 25.6252 28.3089 27.2275 27.4577 28.5293C26.4562 30.0815 24.8539 31.1831 23.1014 31.7839C19.9969 32.3347 16.9426 31.8841 14.5892 29.8312Z" fill="#F03010"/>
<path d="M18.3946 31.6838C22.5005 33.2862 26.5562 28.4292 24.303 24.6739C24.303 24.6238 24.2529 24.6238 24.2529 24.5737C24.4532 26.6266 23.9525 28.1288 23.0011 28.98C23.5019 27.7783 23.1514 26.3763 22.5505 25.1746C21.9496 24.023 21.0984 22.9715 20.4475 21.8699C19.7965 20.7182 19.2959 19.4163 19.5963 18.1145C18.3946 19.0158 17.5434 20.3677 17.1929 21.8198C16.8423 23.2718 17.0426 24.8742 17.6936 26.2261C16.9425 25.6753 16.3917 24.774 16.3417 23.8227C15.5405 24.774 15.0398 26.0258 15.0899 27.2776C15.0899 29.2304 16.6421 30.9829 18.3946 31.6838Z" fill="#FEBF1E"/>
</g>
<rect x="0.5" y="0.5" width="39" height="39" rx="19.5" stroke="#F7C55A"/>
<defs>
<clipPath id="clip0_55120_39209">
<rect width="24" height="24" fill="white" transform="translate(8 8)"/>
</clipPath>
</defs>
</svg>
