<svg width="32" height="32" viewBox="0 0 32 32" fill="none" xmlns="http://www.w3.org/2000/svg">
<g clip-path="url(#clip0_55120_34874)">
<path d="M16 18.5C17.3807 18.5 18.5 17.3807 18.5 16C18.5 14.6193 17.3807 13.5 16 13.5C14.6193 13.5 13.5 14.6193 13.5 16C13.5 17.3807 14.6193 18.5 16 18.5Z" stroke="#767676" stroke-width="1.5" stroke-linecap="round" stroke-linejoin="round"/>
<path d="M18.75 10.25H13.25C11.5931 10.25 10.25 11.5931 10.25 13.25V18.75C10.25 20.4069 11.5931 21.75 13.25 21.75H18.75C20.4069 21.75 21.75 20.4069 21.75 18.75V13.25C21.75 11.5931 20.4069 10.25 18.75 10.25Z" stroke="#767676" stroke-width="1.5" stroke-linecap="round" stroke-linejoin="round"/>
<path d="M19.25 13.375C19.5952 13.375 19.875 13.0952 19.875 12.75C19.875 12.4048 19.5952 12.125 19.25 12.125C18.9048 12.125 18.625 12.4048 18.625 12.75C18.625 13.0952 18.9048 13.375 19.25 13.375Z" fill="#767676"/>
</g>
<rect x="0.5" y="0.5" width="31" height="31" rx="15.5" stroke="#767676"/>
<defs>
<clipPath id="clip0_55120_34874">
<rect width="32" height="32" rx="16" fill="white"/>
</clipPath>
</defs>
</svg>
