<svg width="40" height="40" viewBox="0 0 40 40" fill="none" xmlns="http://www.w3.org/2000/svg">
<g clip-path="url(#clip0_55120_34859)">
<path d="M20.0001 17.5C20.0001 16.125 21.1563 14.9813 22.5313 15C23.0129 15.0056 23.4826 15.1501 23.8839 15.4162C24.2853 15.6823 24.6013 16.0586 24.7938 16.5H27.0001L24.9813 18.5188C24.8511 20.5466 23.9534 22.4488 22.4708 23.8384C20.9883 25.2281 19.0321 26.001 17.0001 26C15.0001 26 14.5001 25.25 14.5001 25.25C14.5001 25.25 16.5001 24.5 17.5001 23C17.5001 23 13.5001 21 14.5001 15.5C14.5001 15.5 17.0001 18 20.0001 18.5V17.5Z" stroke="#767676" stroke-width="1.5" stroke-linecap="round" stroke-linejoin="round"/>
</g>
<rect x="4.5" y="4.5" width="31" height="31" rx="15.5" stroke="#767676"/>
<defs>
<clipPath id="clip0_55120_34859">
<rect x="4" y="4" width="32" height="32" rx="16" fill="white"/>
</clipPath>
</defs>
</svg>
