<svg width="40" height="40" viewBox="0 0 40 40" fill="none" xmlns="http://www.w3.org/2000/svg">
<rect x="0.5" y="0.5" width="39" height="39" rx="19.5" fill="#020202"/>
<g clip-path="url(#clip0_55120_66048)">
<path d="M20.0211 32C23.8471 31.9887 26.9965 28.7916 26.9675 24.9655C26.9269 19.6222 22.0085 13.9528 20.3432 8.25823C20.2928 8.08573 20.1464 7.99977 20 8C19.8535 7.99977 19.7071 8.08573 19.6567 8.25823C17.9914 13.9528 13.073 19.6222 13.0324 24.9655C13.0034 28.7916 16.1528 31.9887 19.9788 32" fill="#B2EDFF"/>
<path d="M22.3232 30.0782C22.1136 30.0782 21.9114 29.9644 21.8078 29.766C21.6596 29.4817 21.77 29.1309 22.0542 28.9827C23.2049 28.3828 24.0355 27.3175 24.3326 26.0602C24.4065 25.7479 24.718 25.5544 25.0314 25.6285C25.3434 25.7022 25.5366 26.0152 25.4629 26.327C25.0879 27.9132 24.0411 29.2567 22.5911 30.0124C22.5052 30.057 22.4135 30.0782 22.3232 30.0782Z" fill="#E8FAFF"/>
<path d="M22.3437 31.2259H22.3013C18.4754 31.2138 15.3259 27.8104 15.355 23.7375C15.3851 19.51 18.1094 15.0906 20.1902 10.611C20.5313 9.87683 20.5744 9.04667 20.3466 8.26986C20.3455 8.26597 20.3443 8.26213 20.3432 8.25824C20.2928 8.08574 20.1463 7.99977 20 8C19.8535 7.99972 19.7071 8.08574 19.6566 8.25824C17.8834 14.3222 12.421 20.3579 13.0884 26.0015C13.4961 29.4489 16.5073 32 19.9788 32H20.0211C21.2133 31.9964 22.3395 31.6832 23.3247 31.1383C23.0031 31.1892 22.6772 31.2248 22.3437 31.2259Z" fill="#59D8FF"/>
</g>
<rect x="0.5" y="0.5" width="39" height="39" rx="19.5" stroke="#F7C55A"/>
<defs>
<clipPath id="clip0_55120_66048">
<rect width="24" height="24" fill="white" transform="translate(8 8)"/>
</clipPath>
</defs>
</svg>
