<svg width="69" height="68" viewBox="0 0 69 68" fill="none" xmlns="http://www.w3.org/2000/svg">
<path fill-rule="evenodd" clip-rule="evenodd" d="M37.4298 47.6347V23.6256C37.4298 23.231 37.097 22.8982 36.7023 22.8982H32.2996C31.897 22.8982 31.5701 23.223 31.5701 23.6256V47.6347L34.5 50.6323L37.4298 47.6347Z" fill="#935E32"/>
<path fill-rule="evenodd" clip-rule="evenodd" d="M18.7803 44.8144H30.444V40.3279H19.6373H18.7803V44.8144Z" fill="#824A11"/>
<path fill-rule="evenodd" clip-rule="evenodd" d="M38.5579 40.3279V44.8144H50.2195V40.3279H49.3625H38.5579Z" fill="#824A11"/>
<path fill-rule="evenodd" clip-rule="evenodd" d="M45.3685 22.4338C45.3685 23.9206 45.0037 25.3856 44.3121 26.7011C45.1174 27.3289 45.8628 28.0424 46.5285 28.8357C46.9949 29.3918 47.4174 29.9798 47.7941 30.5936C49.0677 29.1107 49.7613 27.2671 49.7613 25.3258C49.7613 21.7541 47.3297 18.601 43.9036 17.4709C44.8562 18.9519 45.3685 20.6679 45.3685 22.4338Z" fill="#E2CAAE"/>
<path fill-rule="evenodd" clip-rule="evenodd" d="M24.6899 26.699C23.9963 25.3856 23.6316 23.9226 23.6316 22.4338C23.6316 20.6679 24.1438 18.9519 25.0966 17.4709C21.6723 18.603 19.2407 21.7561 19.2407 25.3258C19.2407 27.2651 19.9344 29.1108 21.2079 30.5937C21.5826 29.9798 22.0052 29.3918 22.4736 28.8358C23.1393 28.0424 23.8827 27.3289 24.6899 26.699Z" fill="#E2CAAE"/>
<path fill-rule="evenodd" clip-rule="evenodd" d="M34.4999 36.1543C34.2867 36.1543 34.1133 36.3297 34.1133 36.543C34.1133 36.7562 34.2867 36.9317 34.4999 36.9317C34.7152 36.9317 34.8886 36.7563 34.8886 36.543C34.8886 36.3297 34.7152 36.1543 34.4999 36.1543Z" fill="#824A11"/>
<path fill-rule="evenodd" clip-rule="evenodd" d="M34.4999 31.3749C34.7152 31.3749 34.8886 31.2015 34.8886 30.9882C34.8886 30.775 34.7152 30.6016 34.4999 30.6016C34.2867 30.6016 34.1133 30.775 34.1133 30.9882C34.1133 31.2015 34.2867 31.3749 34.4999 31.3749Z" fill="#824A11"/>
<path fill-rule="evenodd" clip-rule="evenodd" d="M34.1133 25.4313C34.1133 25.6446 34.2867 25.818 34.4999 25.818C34.7152 25.818 34.8886 25.6446 34.8886 25.4313C34.8886 25.2181 34.7152 25.0447 34.4999 25.0447C34.2867 25.0447 34.1133 25.2181 34.1133 25.4313Z" fill="#824A11"/>
<path fill-rule="evenodd" clip-rule="evenodd" d="M30.444 39.2019V25.1365C24.4268 26.5874 20.2014 32.0187 20.2014 38.1375V39.2019H30.444Z" fill="#6A3702"/>
<path fill-rule="evenodd" clip-rule="evenodd" d="M38.5579 25.1365V39.2019H48.7985V38.1375C48.7985 32.0187 44.5751 26.5874 38.5579 25.1365Z" fill="#6A3702"/>
<rect x="1" y="0.5" width="67" height="67" rx="33.5" stroke="#F7C55A"/>
</svg>
