<svg width="69" height="68" viewBox="0 0 69 68" fill="none" xmlns="http://www.w3.org/2000/svg">
<mask id="mask0_55399_62464" style="mask-type:luminance" maskUnits="userSpaceOnUse" x="16" y="16" width="37" height="36">
<path d="M16.5 16H52.5V52H16.5V16Z" fill="white"/>
</mask>
<g mask="url(#mask0_55399_62464)">
<path d="M51.9727 25.5195C51.9727 23.1429 50.0461 21.2163 47.6695 21.2163C47.5419 21.2163 47.4154 21.2219 47.2904 21.2328C47.1579 21.2444 47.0641 21.1094 47.1175 20.9876C47.3074 20.555 47.4034 20.0716 47.3808 19.5637C47.3088 17.9449 46.0017 16.6224 44.3838 16.5323C42.9326 16.4514 41.6781 17.3433 41.2128 18.6154C41.1645 18.7476 40.9863 18.7721 40.9069 18.656C40.4838 18.0385 39.7737 17.6332 38.9691 17.6332C37.6725 17.6332 36.6213 18.6843 36.6213 19.9809C36.6213 21.2768 40.3936 27.1099 42.1514 27.1099C42.5883 27.1099 43.0045 27.0217 43.3832 26.8627C43.4759 26.8239 43.5816 26.87 43.6153 26.9647C43.9226 27.8276 44.498 28.5637 45.241 29.0724C45.3042 29.1157 45.3311 29.1965 45.3064 29.269C45.195 29.5967 45.1359 29.9484 45.1384 30.3142C45.1498 32.001 46.5043 33.4044 48.1897 33.472C50.0072 33.5448 51.503 32.0935 51.503 30.2922C51.503 29.6271 51.2994 29.0097 50.95 28.4991C50.9068 28.436 50.9114 28.3509 50.9607 28.2924C51.5916 27.5437 51.9727 26.5757 51.9727 25.5195Z" fill="#FFD15B"/>
<path d="M50.9606 28.2924C51.5916 27.5438 51.9726 26.5757 51.9726 25.5195C51.9726 23.1429 50.0461 21.2163 47.6695 21.2163C47.5419 21.2163 47.4154 21.2219 47.2904 21.2329C47.1579 21.2445 47.0641 21.1094 47.1175 20.9876C47.3073 20.5551 47.4034 20.0716 47.3808 19.5637C47.3088 17.945 46.0017 16.6224 44.3838 16.5323C43.9482 16.508 43.5304 16.572 43.1462 16.707C44.3394 17.1292 45.2129 18.2488 45.2714 19.5637C45.294 20.0716 45.198 20.5551 45.0081 20.9876C44.9547 21.1094 45.0485 21.2445 45.181 21.2329C45.306 21.2219 45.4325 21.2163 45.5601 21.2163C47.9367 21.2163 49.8633 23.1429 49.8633 25.5195C49.8633 26.5757 49.4822 27.5438 48.8513 28.2924C48.802 28.3508 48.7974 28.436 48.8406 28.4991C49.19 29.0097 49.3936 29.627 49.3936 30.2922C49.3936 31.6796 48.5058 32.8585 47.2676 33.2942C47.5582 33.3972 47.8679 33.459 48.1897 33.472C50.0071 33.5448 51.503 32.0936 51.503 30.2922C51.503 29.627 51.2993 29.0097 50.9499 28.4991C50.9068 28.436 50.9113 28.3508 50.9606 28.2924Z" fill="#FFC344"/>
<path d="M22.5801 25.6006C22.5801 25.6006 27.6765 17.209 36.5188 20.7224C44.5083 23.8969 42.6175 31.6773 41.0072 35.6587C40.3178 37.3634 40.2721 39.2606 40.8973 40.9898L41.7454 43.3355C41.9154 43.8058 41.6832 44.3265 41.2196 44.5144L24.1712 51.4229C23.6614 51.6294 23.1368 51.16 23.2856 50.6305L24.9767 44.6109C25.3168 43.4002 24.9552 42.101 24.0386 41.2401L19.4827 36.9608L32.1875 31.0797L22.5801 25.6006Z" fill="#A8D3D8"/>
<path d="M40.8972 40.9899C40.272 39.2606 40.3177 37.3635 41.0071 35.6588C42.6174 31.6773 44.5082 23.897 36.5187 20.7224C34.5654 19.9464 32.7951 19.7514 31.222 19.9184C32.2221 20.0219 33.2854 20.2758 34.4093 20.7224C42.3988 23.897 40.508 31.6773 38.8978 35.6588C38.2084 37.3635 38.1626 39.2606 38.7879 40.9899L39.6359 43.3354C39.8059 43.8059 39.5737 44.3266 39.1101 44.5145L23.2717 50.9326C23.3444 51.319 23.7622 51.5886 24.1711 51.4229L41.2195 44.5145C41.6831 44.3266 41.9153 43.8059 41.7453 43.3354L40.8972 40.9899Z" fill="#8EBAC5"/>
<path d="M31.3154 49.7583C31.1018 49.6813 30.9764 49.4614 31.0172 49.2381C31.3002 47.6896 32.7765 42.0127 39.2492 41.6641C45.8321 41.3097 47.326 47.1553 47.5929 48.5903C47.6283 48.7808 47.5415 48.9722 47.3753 49.0717C46.6071 49.5315 44.2461 50.8165 41.0463 51.3564C37.6807 51.9244 32.6844 50.2518 31.3154 49.7583Z" fill="#8EBAC5"/>
<path d="M39.2493 41.6641C39.0743 41.6734 38.9042 41.688 38.7365 41.705C43.5491 42.2417 45.0091 46.5027 45.4029 48.2052C45.4993 48.622 45.3112 49.0524 44.9378 49.2612C43.9421 49.8178 41.7678 50.8786 38.9371 51.3564C38.7671 51.385 38.5928 51.4075 38.4153 51.4253C39.3378 51.4997 40.239 51.4925 41.0464 51.3564C44.2462 50.8164 46.6072 49.5314 47.3753 49.0716C47.5416 48.9721 47.6283 48.7806 47.593 48.5902C47.3261 47.1552 45.8321 41.3095 39.2493 41.6641Z" fill="#7CA1B1"/>
<path d="M32.3434 29.8673L21.6501 23.0871C21.4706 22.9733 21.2326 23.0285 21.1214 23.2098L17.0839 29.7973C16.9384 30.0348 17.0885 30.343 17.3652 30.3748L31.6923 32.0234L32.3434 29.8673Z" fill="#8EBAC5"/>
<path d="M21.6503 23.0871C21.4707 22.9733 21.2327 23.0285 21.1215 23.2098L20.7224 23.8609L30.9577 30.5637L30.7566 31.9157L31.6924 32.0234L32.3436 29.8674L21.6503 23.0871Z" fill="#7CA1B1"/>
<path d="M34.5792 31.1081C34.5792 32.2549 33.6497 33.1843 32.503 33.1843C31.3564 33.1843 30.4268 32.2549 30.4268 31.1081C30.4268 29.9615 31.3564 29.032 32.503 29.032C33.6497 29.032 34.5792 29.9615 34.5792 31.1081Z" fill="#7A6D79"/>
</g>
<rect x="1" y="0.5" width="67" height="67" rx="33.5" stroke="#F7C55A"/>
</svg>
