<svg width="69" height="68" viewBox="0 0 69 68" fill="none" xmlns="http://www.w3.org/2000/svg">
<path d="M39.344 27.7609L40.4874 34.4276L34.5001 31.2799L28.5127 34.4276L29.6562 27.7609L24.8123 23.0387L31.5064 22.0661L34.5001 16L37.4937 22.0661L44.1879 23.0387L39.344 27.7609Z" fill="#FFA91E"/>
<path d="M45.3242 33.8213V39.9858L34.5632 44.3571L34.5 44.3318L23.6758 39.9893V33.8213L34.5 38.1637L45.3242 33.8213Z" fill="#FFA91E"/>
<path d="M45.3242 41.4641V47.6286L34.5632 51.9999L34.5 51.9746L23.6758 47.6321V41.4641L34.5 45.8065L45.3242 41.4641Z" fill="#FFA91E"/>
<path d="M40.4873 34.4276L34.5 31.2799V16L37.4937 22.0661L44.1878 23.0387L39.3439 27.7609L40.4873 34.4276Z" fill="#FF8900"/>
<path d="M45.3242 33.8213V39.9858L34.5633 44.3571L34.5 44.3318V38.1637L45.3242 33.8213Z" fill="#FF8900"/>
<path d="M34.5 45.8065L45.3242 41.4641V47.6286L34.5633 51.9999L34.5 51.9746V45.8065Z" fill="#FF8900"/>
<rect x="1" y="0.5" width="67" height="67" rx="33.5" stroke="#F7C55A"/>
</svg>
