<svg width="69" height="68" viewBox="0 0 69 68" fill="none" xmlns="http://www.w3.org/2000/svg">
<path d="M34.5 17.125L41.4075 20.5788C41.1375 20.5281 40.8619 20.5 40.5863 20.5C39.9112 20.5 39.2475 20.6575 38.6513 20.9556L38.4375 21.0625L39 21.625L34.5 19.375L24.375 24.4375L24.5325 25.54C25.1737 30.0287 25.1231 34.5906 24.375 39.0625L24.645 39.5012L23.1487 40.9581L22.125 39.3212L22.26 38.5C22.9575 34.315 23.1038 30.1806 22.5075 25.9844L22.125 23.3125L34.5 17.125Z" fill="#A7DD60"/>
<path d="M46.7399 38.5001L46.8749 39.3213L45.1593 42.072C43.0555 45.492 39.9843 48.1301 35.4899 50.3801L34.4999 50.8751L33.5099 50.3801C30.8718 49.0582 28.723 47.607 26.9736 45.9363L28.3855 44.4851C30.1405 46.1613 32.1993 47.4776 34.4999 48.6251C38.1786 46.7857 41.2668 44.5188 43.4211 41.0201L44.6249 39.0626C44.2255 36.6551 44.023 34.2251 44.023 31.7951C44.023 30.1638 44.113 28.5382 44.293 26.9182L46.1999 28.8251C45.9918 32.0538 46.1999 35.2601 46.7399 38.5001Z" fill="#A7DD60"/>
<path d="M41.8125 24.4375L39.5625 25L34.5 29.9219V19.375L39 21.625L41.8125 24.4375Z" fill="#EBEFF7"/>
<path d="M34.5 19.375V29.9219L24.645 39.5012L24.375 39.0625C25.1231 34.5906 25.1737 30.0287 24.5325 25.54L24.375 24.4375L34.5 19.375Z" fill="#EBEFF7"/>
<path d="M34.5001 38.1963V48.625C32.1995 47.4775 30.1407 46.1613 28.3857 44.485L34.5001 38.1963Z" fill="#EBEFF7"/>
<path d="M44.625 39.0625L43.4213 41.02C41.2669 44.5187 38.1788 46.7856 34.5 48.625V38.1962L43.5 28.9375L44.0625 26.6875L44.2931 26.9181C44.1131 28.5381 44.0231 30.1637 44.0231 31.795C44.0231 34.225 44.2256 36.655 44.625 39.0625Z" fill="#EBEFF7"/>
<path d="M51.375 18.7169C51.375 19.1388 51.2062 19.5438 50.9081 19.8419L50.25 20.5L48 18.25L48.6581 17.5919C48.9562 17.2937 49.3612 17.125 49.7831 17.125C50.2219 17.125 50.6212 17.305 50.9081 17.5919C51.195 17.8787 51.375 18.2781 51.375 18.7169Z" fill="#FCD770"/>
<path d="M50.25 20.5L46.3125 24.4375V22.1875H44.0625L48 18.25L50.25 20.5Z" fill="#B27946"/>
<path d="M44.0625 22.1875H41.8125V24.4375L39 21.625L38.4375 21.0625L38.6513 20.9556C39.2475 20.6575 39.9112 20.5 40.5862 20.5C40.8619 20.5 41.1375 20.5281 41.4075 20.5788C42.2456 20.7419 43.0275 21.1525 43.6406 21.7656L44.0625 22.1875Z" fill="#CF9E76"/>
<path d="M48 27.9138C48 28.5888 47.8425 29.2525 47.5444 29.8488L47.4375 30.0625L46.2 28.825L44.2931 26.9181L44.0625 26.6875H46.3125V24.4375L46.7344 24.8594C47.5444 25.6694 48 26.7719 48 27.9138Z" fill="#CF9E76"/>
<path d="M46.3125 24.4375V26.6875H44.0625H41.8125V24.4375V22.1875H44.0625H46.3125V24.4375Z" fill="#FCD770"/>
<path d="M44.0625 26.6875L43.5 28.9375L39 29.5L39.5625 25L41.8125 24.4375V26.6875H44.0625Z" fill="#FFC729"/>
<path d="M28.3856 44.485L26.9738 45.9363L23.8125 49.1875V44.6875L39 29.5L43.5 28.9375L34.5 38.1962L28.3856 44.485Z" fill="#FCD770"/>
<path d="M39.5625 25L39 29.5L23.8125 44.6875H19.3125L23.1487 40.9581L24.645 39.5012L34.5 29.9219L39.5625 25Z" fill="#FFEAA7"/>
<path d="M23.8125 44.6875V49.1875L17.625 50.875L19.3125 44.6875H23.8125Z" fill="#FFC729"/>
<path d="M43.5 23.875H44.625V25H43.5V23.875Z" fill="black"/>
<rect x="1" y="0.5" width="67" height="67" rx="33.5" stroke="#F7C55A"/>
</svg>
