<svg width="69" height="68" viewBox="0 0 69 68" fill="none" xmlns="http://www.w3.org/2000/svg">
<mask id="mask0_55399_72436" style="mask-type:luminance" maskUnits="userSpaceOnUse" x="16" y="16" width="37" height="36">
<path d="M16.5 16H52.5V52H16.5V16Z" fill="white"/>
</mask>
<g mask="url(#mask0_55399_72436)">
<path d="M42.5192 30.6639V33.4871C42.5192 33.9241 42.5859 34.7031 42.8066 35.4526L46.2103 46.0095H22.7898L25.6455 36.5699C26.0538 35.4321 26.6248 34.3614 27.3399 33.3919L31.601 28.5399C32.0675 27.9076 32.2591 27.1142 32.1328 26.3388L31.7663 24.0904C31.6198 23.1914 31.9017 22.2755 32.5286 21.6141L36.8574 16.6669C37.1817 16.3246 37.7443 16.6654 37.5903 17.1109L36.5819 20.0267C36.3255 20.7684 36.3787 21.582 36.7295 22.284L41.9386 29.0076C42.3017 29.4763 42.5192 30.0689 42.5192 30.6639Z" fill="#D65BF5"/>
<path d="M42.8065 35.4526C42.5859 34.7031 42.5191 33.9241 42.5191 33.4871V30.6639C42.5191 30.0689 42.3017 29.4763 41.9385 29.0076L36.7295 22.284C36.3786 21.582 36.3255 20.7683 36.582 20.0267L37.5902 17.1109C37.7443 16.6654 37.1817 16.3246 36.8573 16.6669L33.6947 20.2812C33.5293 20.9513 33.6058 21.6614 33.917 22.284L39.126 29.0076C39.4892 29.4763 39.7066 30.0689 39.7066 30.6639V33.4871C39.7066 33.9241 39.7734 34.7031 39.994 35.4526L43.3977 46.0095H46.2102L42.8065 35.4526Z" fill="#CE37F5"/>
<path d="M51.6352 51.4727H17.3649C17.3457 48.5034 19.819 46.0096 22.7897 46.0096H46.2102C49.1806 46.0096 51.6543 48.5034 51.6352 51.4727Z" fill="#D65BF5"/>
<path d="M46.2102 46.0096H43.3977C46.3681 46.0096 48.8418 48.5034 48.8227 51.4727H51.6352C51.6543 48.5034 49.1806 46.0096 46.2102 46.0096Z" fill="#CE37F5"/>
<path d="M22.7898 46.0095H46.2103L44.7891 41.5933H24.1406L22.7898 46.0095Z" fill="#7D889E"/>
<path d="M44.7891 41.5933H41.9766L43.3977 46.0095H46.2102L44.7891 41.5933Z" fill="#727E95"/>
<path d="M38.646 46.0095H30.249V41.4291C30.249 40.554 30.9584 39.8447 31.8334 39.8447H37.0615C37.9366 39.8447 38.646 40.554 38.646 41.4291V46.0095Z" fill="#FFCC57"/>
<path d="M36.0048 46.0095H32.8899V42.4476H36.0048V46.0095Z" fill="#7D889E"/>
<path d="M20.6212 27.101L21.6052 29.711L24.2151 30.6949L21.6052 31.6787L20.6212 34.2888L19.6373 31.6787L17.0273 30.6949L19.6373 29.711L20.6212 27.101Z" fill="#FFCC57"/>
<path d="M25.506 20.4397L26.2872 22.5121L28.3595 23.2933L26.2872 24.0746L25.506 26.147L24.7247 24.0746L22.6523 23.2933L24.7247 22.5121L25.506 20.4397Z" fill="#FFCC57"/>
<path d="M49.1189 31.408L49.9002 33.4804L51.9726 34.2616L49.9002 35.0428L49.1189 37.1152L48.3377 35.0428L46.2654 34.2616L48.3377 33.4804L49.1189 31.408Z" fill="#FFCC57"/>
</g>
<rect x="1" y="0.5" width="67" height="67" rx="33.5" stroke="#F7C55A"/>
</svg>
