<svg width="24" height="24" viewBox="0 0 24 24" fill="none" xmlns="http://www.w3.org/2000/svg">
<g clip-path="url(#clip0_55359_60293)">
<g clip-path="url(#clip1_55359_60293)">
<path d="M10.5425 4.23438C9.73098 4.23438 9.07307 4.89297 9.07307 5.70537C9.07307 5.74769 9.07526 5.78944 9.07876 5.83084C8.93341 5.79913 8.78263 5.78194 8.62782 5.78194C7.4636 5.78194 6.51982 6.72675 6.51982 7.89222C6.51982 8.15325 6.56748 8.40306 6.65404 8.63384C5.57829 8.72944 4.7347 9.6335 4.7347 10.7353C4.7347 11.4345 5.07466 12.0541 5.59795 12.4381C5.07435 12.6113 4.67032 13.0736 4.59948 13.6579C4.50529 14.4347 5.0342 15.1431 5.79307 15.2818C5.55729 15.6324 5.41963 16.0547 5.41963 16.5091C5.41963 17.7246 6.40388 18.7099 7.61801 18.7099C8.01295 18.7099 8.38323 18.6051 8.70357 18.4226C8.85635 19.1884 9.53151 19.7656 10.3415 19.7656C11.264 19.7656 12.0119 19.0169 12.0119 18.0933V5.70537C12.0119 4.89297 11.354 4.23438 10.5425 4.23438Z" fill="#FFAAB1"/>
<path d="M7.76595 18.4219C7.57617 18.53 7.36876 18.6106 7.14917 18.6585C7.30026 18.6914 7.45698 18.7092 7.61792 18.7092C7.69501 18.7092 7.77114 18.7051 7.8462 18.6973C7.81192 18.6088 7.78489 18.5168 7.76595 18.4219Z" fill="#E27F86"/>
<path d="M19.1741 14.6359C19.3556 14.3565 19.4438 14.014 19.4006 13.6572C19.3028 12.8507 18.5704 12.2763 17.7648 12.3741C17.6662 12.3861 17.5711 12.4076 17.4802 12.4376" fill="#E6989E"/>
<path d="M16.382 9.74438C17.0364 9.38619 17.4802 8.69075 17.4802 7.89153C17.4802 6.72606 16.5364 5.78125 15.3722 5.78125C14.9356 5.78125 14.53 5.91413 14.1936 6.14166" fill="#E6989E"/>
<path d="M14.5591 17.7389C14.9541 18.3243 15.6232 18.7091 16.382 18.7091C17.5961 18.7091 18.5804 17.7238 18.5804 16.5084C18.5804 15.8271 18.2712 15.2181 17.7856 14.8145" fill="#E6989E"/>
<path d="M13.4574 4.23438C14.269 4.23438 14.9269 4.89297 14.9269 5.70538C14.9269 5.74769 14.9247 5.78944 14.9212 5.83084C15.0665 5.79913 15.2173 5.78194 15.3722 5.78194C16.5364 5.78194 17.4802 6.72675 17.4802 7.89222C17.4802 8.15325 17.4325 8.40306 17.3459 8.63384C18.4217 8.72944 19.2653 9.6335 19.2653 10.7353C19.2653 11.4345 18.9253 12.0541 18.402 12.4381C18.9256 12.6113 19.3297 13.0736 19.4005 13.6579C19.4947 14.4347 18.9658 15.1431 18.2069 15.2818C18.4427 15.6324 18.5803 16.0547 18.5803 16.5091C18.5803 17.7246 17.5961 18.7099 16.382 18.7099C15.987 18.7099 15.6168 18.6051 15.2964 18.4226C15.1436 19.1884 14.4685 19.7656 13.6585 19.7656C12.7359 19.7656 11.988 19.0169 11.988 18.0933V5.70538C11.988 4.89297 12.6459 4.23438 13.4574 4.23438Z" fill="#FFAAB1"/>
<path d="M16.2589 14.5701C16.3849 14.5407 16.4633 14.4146 16.4339 14.2886C16.4045 14.1625 16.2784 14.0842 16.1524 14.1136C15.7729 14.2022 15.4343 14.4191 15.1953 14.7255C14.863 14.5824 14.4952 14.5491 14.1363 14.6328C14.0102 14.6622 13.9319 14.7883 13.9613 14.9143C13.9907 15.0404 14.1168 15.1187 14.2428 15.0893C14.5645 15.0142 14.8961 15.0688 15.1765 15.2429C15.4569 15.417 15.6524 15.6898 15.7274 16.011C15.746 16.0911 15.7567 16.1729 15.7593 16.2542C15.7632 16.3811 15.8673 16.4813 15.9934 16.4813C15.9958 16.4813 15.9983 16.4813 16.0008 16.4812C16.1301 16.4772 16.2318 16.3691 16.2278 16.2397C16.2243 16.1276 16.2095 16.0148 16.1838 15.9047C16.0971 15.5323 15.8924 15.2076 15.6 14.9707C15.7706 14.7713 16.0017 14.6301 16.2589 14.5701Z" fill="#D4777E"/>
<path d="M9.13473 14.8802C9.14304 14.6142 9.20835 14.3471 9.33382 14.0968C9.50204 13.7612 9.76329 13.487 10.0893 13.304C10.2022 13.2407 10.2423 13.0978 10.179 12.9849C10.1156 12.872 9.97279 12.8319 9.85988 12.8953C9.45192 13.1243 9.1251 13.4671 8.91476 13.8868C8.78085 14.154 8.70207 14.4364 8.67529 14.7203C8.14523 14.9424 7.70745 15.3564 7.46023 15.8768C7.4047 15.9937 7.45442 16.1335 7.57135 16.189C7.60382 16.2045 7.63807 16.2118 7.67179 16.2118C7.75945 16.2118 7.84351 16.1624 7.88363 16.078C8.05392 15.7195 8.33738 15.4243 8.6836 15.2355C8.74926 15.747 8.98457 16.2351 9.37535 16.6154C9.42092 16.6597 9.47988 16.6818 9.53876 16.6818C9.59982 16.6818 9.66082 16.6581 9.70676 16.6109C9.79704 16.5181 9.79501 16.3697 9.70223 16.2795C9.31873 15.9062 9.12254 15.4033 9.13438 14.8951C9.1346 14.8901 9.13482 14.8852 9.13473 14.8802Z" fill="#D4777E"/>
<path d="M13.4295 8.18369C13.305 8.14863 13.1755 8.22119 13.1404 8.34578C13.1054 8.47038 13.1779 8.59981 13.3025 8.63488C13.8177 8.77991 14.2302 9.12838 14.4622 9.58069C14.4643 9.58506 14.4664 9.58944 14.4689 9.59372C14.5885 9.83147 14.6586 10.0973 14.6677 10.3772C14.68 10.7524 14.5812 11.118 14.382 11.4344C14.3131 11.544 14.346 11.6887 14.4555 11.7577C14.4943 11.7821 14.5375 11.7937 14.5802 11.7937C14.658 11.7937 14.7342 11.7549 14.7787 11.6842C15.028 11.2883 15.1516 10.831 15.1362 10.3619C15.1264 10.0632 15.0609 9.77731 14.9489 9.51513C15.3088 9.06703 15.496 8.49425 15.465 7.91903C15.458 7.78978 15.3468 7.69081 15.2183 7.69759C15.089 7.70456 14.9899 7.815 14.9969 7.94425C15.0182 8.34047 14.91 8.73525 14.6958 9.06631C14.3941 8.64806 13.9544 8.33144 13.4295 8.18369Z" fill="#D4777E"/>
<path d="M19.6331 13.6297C19.5698 13.1073 19.2659 12.6473 18.827 12.3787C19.2533 11.9434 19.4996 11.3519 19.4996 10.7353C19.4996 10.1457 19.2801 9.58225 18.8815 9.14866C18.5505 8.78863 18.1205 8.54388 17.6492 8.44303C17.6926 8.26338 17.7145 8.07906 17.7145 7.89228C17.7145 6.59944 16.6637 5.54762 15.3721 5.54762C15.3391 5.54762 15.3061 5.54856 15.2731 5.54997C15.2659 5.55028 15.2586 5.55066 15.2514 5.55103C15.2198 5.55266 15.1882 5.55481 15.1567 5.55769C15.1561 5.55775 15.1555 5.55775 15.1549 5.55781C15.0799 4.68622 14.3473 4 13.4574 4C12.8404 4 12.299 4.33003 12 4.82294C11.701 4.33003 11.1595 4 10.5425 4C9.65266 4 8.92 4.68625 8.84503 5.55778C8.38219 5.51444 7.91488 5.61116 7.51103 5.83075C7.39732 5.89259 7.35528 6.03491 7.4171 6.14862C7.47894 6.26231 7.62113 6.30437 7.73497 6.24256C8.12378 6.03109 8.58772 5.96363 9.02878 6.05984C9.03072 6.06028 9.03269 6.06041 9.03463 6.06075C9.26407 6.11159 9.47957 6.20425 9.6751 6.3365C9.71535 6.36372 9.761 6.37678 9.80619 6.37678C9.88138 6.37678 9.95525 6.34066 10.0006 6.27369C10.0731 6.16647 10.0449 6.02075 9.93769 5.94825C9.74282 5.81644 9.53182 5.71647 9.30888 5.64884C9.33853 4.99309 9.88044 4.46875 10.5425 4.46875C11.1609 4.46875 11.6746 4.92628 11.7638 5.52106C11.7573 5.58166 11.7537 9.11694 11.7537 9.11694C11.0504 9.42194 10.2341 9.27087 9.68541 8.72213C9.41991 8.45662 9.2421 8.12228 9.17125 7.75519C9.14675 7.62812 9.02403 7.54491 8.89669 7.5695C8.7696 7.59403 8.68644 7.71697 8.711 7.84406C8.79969 8.30341 9.02203 8.72169 9.35394 9.05359C9.80557 9.50522 10.4022 9.74153 11.008 9.74153C11.2582 9.74153 11.5099 9.70113 11.7537 9.61903C11.7537 9.61903 11.7572 18.2254 11.7638 18.2901C11.6676 18.9902 11.0667 19.5312 10.3414 19.5312C9.71253 19.5312 9.16057 19.1187 8.97338 18.5304C9.23063 18.3579 9.45641 18.1357 9.63519 17.8707C9.7076 17.7634 9.67932 17.6177 9.57203 17.5453C9.46475 17.4729 9.31907 17.5012 9.24666 17.6085C9.09066 17.8396 8.89063 18.0309 8.66203 18.1746C8.66528 18.1798 8.66819 18.1854 8.67125 18.1908C8.64219 18.1948 8.61372 18.2041 8.5875 18.219C8.29291 18.3868 7.95769 18.4755 7.618 18.4755C6.53503 18.4755 5.65397 17.5934 5.65397 16.5092C5.65397 16.1613 5.7446 15.8243 5.91678 15.5262C5.91685 15.5264 5.91694 15.5265 5.917 15.5267C6.03207 15.3272 6.18219 15.1468 6.36425 14.9955C6.46378 14.9127 6.47738 14.7649 6.39466 14.6654C6.31191 14.5659 6.16419 14.5522 6.06457 14.635C5.9265 14.7498 5.80332 14.8781 5.6956 15.0169C5.1315 14.8442 4.75935 14.2862 4.8321 13.6862C4.88947 13.2129 5.21897 12.8104 5.67153 12.6606C5.67194 12.6605 5.67235 12.6602 5.67275 12.6601C5.84263 12.6041 6.02407 12.5853 6.20691 12.6076C6.28857 12.6175 6.3691 12.6354 6.44632 12.6609C6.56925 12.7016 6.70178 12.6347 6.74235 12.5118C6.78291 12.3889 6.71616 12.2563 6.59325 12.2158C6.48675 12.1806 6.37582 12.1559 6.26347 12.1422C6.05425 12.1168 5.84625 12.1302 5.6476 12.1795C5.22078 11.8246 4.96907 11.2928 4.96907 10.7353C4.96907 10.2635 5.14466 9.81272 5.46347 9.46588C5.74197 9.16294 6.10797 8.96216 6.5076 8.88991C6.7185 9.33791 7.06957 9.71209 7.50544 9.95066C7.54116 9.97022 7.57972 9.97947 7.61775 9.97947C7.70063 9.97947 7.78097 9.93541 7.82357 9.85759C7.88569 9.74403 7.84403 9.60162 7.73047 9.53947C7.35716 9.33512 7.06147 9.00656 6.89794 8.61434C6.89363 8.60403 6.75413 8.11872 6.75413 7.89225C6.75413 7.51625 6.86475 7.15359 7.07403 6.84347C7.14644 6.73619 7.11816 6.5905 7.01088 6.51809C6.90357 6.44569 6.75791 6.47397 6.6855 6.58125C6.42375 6.96913 6.28538 7.42247 6.28538 7.89225C6.28538 8.07903 6.30725 8.26337 6.35063 8.443C5.87935 8.54384 5.44935 8.78859 5.11835 9.14862C4.71978 9.58222 4.50028 10.1457 4.50028 10.7353C4.50028 11.3519 4.74663 11.9434 5.17291 12.3786C4.73394 12.6473 4.43007 13.1072 4.36675 13.6297C4.2716 14.4144 4.72822 15.1473 5.43944 15.4242C5.27238 15.7595 5.18516 16.1292 5.18516 16.5091C5.18516 17.8519 6.2765 18.9443 7.61794 18.9443C7.94022 18.9443 8.25932 18.8798 8.55507 18.7562C8.82775 19.4918 9.53738 20 10.3414 20C11.052 20 11.6726 19.6082 12 19.0294C12.3273 19.6082 12.9479 20 13.6585 20C14.4626 20 15.1722 19.4918 15.4448 18.7562C15.7405 18.8798 16.0597 18.9443 16.3819 18.9443C16.7108 18.9443 17.0298 18.8797 17.3303 18.7522C17.4495 18.7017 17.5051 18.5641 17.4546 18.445C17.4041 18.3258 17.2665 18.2702 17.1473 18.3207C16.9051 18.4235 16.6476 18.4756 16.382 18.4756C16.0423 18.4756 15.707 18.3868 15.4124 18.219C15.4108 18.2181 15.4091 18.2174 15.4074 18.2165C15.1469 18.0675 14.9233 17.8605 14.7533 17.6085C14.6809 17.5012 14.5352 17.4729 14.4279 17.5454C14.3206 17.6178 14.2923 17.7634 14.3648 17.8708C14.5422 18.1337 14.7669 18.3568 15.0264 18.5311C14.839 19.119 14.2872 19.5312 13.6585 19.5312C12.9333 19.5312 12.3323 18.9902 12.2362 18.2901C12.2428 18.2254 12.2427 5.58162 12.2362 5.52103C12.3253 4.92628 12.839 4.46875 13.4574 4.46875C14.1195 4.46875 14.6614 4.99313 14.6911 5.64887C14.4682 5.71678 14.2552 5.81769 14.0622 5.94822C13.955 6.02075 13.9269 6.16644 13.9994 6.27366C14.0447 6.34063 14.1186 6.37675 14.1938 6.37675C14.2389 6.37675 14.2846 6.36372 14.3248 6.33647C14.5236 6.20203 14.749 6.10728 14.9833 6.0575C15.1386 6.01856 15.3413 6.01628 15.3721 6.01628C16.4052 6.01628 17.2457 6.85781 17.2457 7.89219C17.2457 8.11863 17.2056 8.34044 17.1264 8.5515C17.1259 8.55288 17.1256 8.55434 17.1251 8.55572C16.9668 8.97466 16.6632 9.32391 16.2694 9.53944C16.1559 9.60159 16.1142 9.74403 16.1763 9.85756C16.2189 9.93541 16.2993 9.97944 16.3822 9.97944C16.4202 9.97944 16.4588 9.97016 16.4945 9.95062C16.9326 9.71081 17.2812 9.33828 17.492 8.88981C17.8918 8.96203 18.2578 9.16281 18.5364 9.46581C18.8552 9.81266 19.0308 10.2635 19.0308 10.7352C19.0308 11.2929 18.7789 11.8247 18.352 12.1797C18.1524 12.1301 17.9446 12.1169 17.7363 12.1422C17.624 12.1558 17.5131 12.1806 17.4066 12.2157C17.2836 12.2563 17.2169 12.3888 17.2575 12.5118C17.298 12.6347 17.4305 12.7014 17.5535 12.6609C17.6307 12.6354 17.7113 12.6174 17.7929 12.6075C17.9748 12.5854 18.1562 12.6037 18.3271 12.6601C18.3275 12.6602 18.3279 12.6604 18.3283 12.6606C18.7808 12.8103 19.1103 13.2129 19.1678 13.6861C19.2405 14.2862 18.8684 14.8441 18.3043 15.0168C18.1959 14.877 18.0726 14.7492 17.9353 14.635C17.8358 14.5522 17.688 14.5658 17.6053 14.6653C17.5225 14.7649 17.5361 14.9127 17.6356 14.9954C17.7872 15.1214 17.9175 15.2681 18.0248 15.4318C18.0322 15.4431 18.0395 15.4542 18.0466 15.4656C18.0548 15.4787 18.0627 15.492 18.0706 15.5053C18.2508 15.8084 18.3459 16.1531 18.3459 16.5092C18.3459 16.9858 18.1734 17.4455 17.8604 17.8036C17.7752 17.9011 17.7851 18.0491 17.8826 18.1343C17.98 18.2195 18.1281 18.2096 18.2133 18.1121C18.6011 17.6686 18.8146 17.0993 18.8146 16.5092C18.8146 16.1293 18.7274 15.7596 18.5604 15.4243C19.2716 15.1474 19.7283 14.4144 19.6331 13.6297Z" fill="#D4777E"/>
</g>
</g>
<rect x="0.5" y="0.5" width="23" height="23" rx="11.5" stroke="#DCDCDC"/>
<defs>
<clipPath id="clip0_55359_60293">
<rect width="24" height="24" rx="12" fill="white"/>
</clipPath>
<clipPath id="clip1_55359_60293">
<rect width="16" height="16" fill="white" transform="translate(4 4)"/>
</clipPath>
</defs>
</svg>
