<svg width="24" height="24" viewBox="0 0 24 24" fill="none" xmlns="http://www.w3.org/2000/svg">
<g clip-path="url(#clip0_55359_60286)">
<g clip-path="url(#clip1_55359_60286)">
<path d="M8.39272 18.5541C7.65833 17.7196 6.92397 16.8517 6.45661 15.8169C5.98929 14.7153 5.85576 13.4468 6.08943 12.2451C6.32311 11.0434 6.85719 9.90844 7.62497 8.9404C7.55822 9.77493 7.85865 10.6428 8.42611 11.2771C8.09229 9.67479 8.6264 7.93897 9.69458 6.6705C10.7628 5.40203 12.2315 4.56747 13.7671 4C12.9993 4.80114 12.8992 6.06961 13.1996 7.13782C13.5 8.20601 14.1343 9.14068 14.7017 10.1087C15.2692 11.0768 15.8033 12.0782 15.8367 13.1798C16.1371 12.6123 16.4709 12.0448 16.6712 11.4106C16.8715 10.7763 16.9717 10.1087 16.8048 9.47447C17.4056 10.2089 17.7394 10.9432 17.9063 11.8779C18.0732 12.8126 18.0399 13.7806 17.9397 14.7153C17.8062 15.7501 17.5392 16.8183 16.9717 17.6862C16.3041 18.721 15.2359 19.4554 14.0675 19.856C11.9979 20.2232 9.96162 19.9227 8.39272 18.5541Z" fill="#F03010"/>
<path d="M10.9296 19.7884C13.6668 20.8566 16.3707 17.6187 14.8685 15.1151C14.8685 15.0817 14.8351 15.0817 14.8351 15.0483C14.9687 16.4169 14.6348 17.4184 14.0006 17.9859C14.3344 17.1847 14.1007 16.2501 13.7002 15.4489C13.2996 14.6812 12.7321 13.9802 12.2982 13.2458C11.8642 12.478 11.5304 11.6101 11.7307 10.7422C10.9296 11.343 10.3621 12.2443 10.1284 13.2124C9.89473 14.1804 10.0283 15.2486 10.4622 16.1499C9.96152 15.7827 9.59434 15.1819 9.56095 14.5476C9.02684 15.1819 8.69305 16.0164 8.72641 16.8509C8.72644 18.1528 9.76123 19.3211 10.9296 19.7884Z" fill="#FEBF1E"/>
</g>
</g>
<rect x="0.5" y="0.5" width="23" height="23" rx="11.5" stroke="#DCDCDC"/>
<defs>
<clipPath id="clip0_55359_60286">
<rect width="24" height="24" rx="12" fill="white"/>
</clipPath>
<clipPath id="clip1_55359_60286">
<rect width="16" height="16" fill="white" transform="translate(4 4)"/>
</clipPath>
</defs>
</svg>
