<svg width="41" height="40" viewBox="0 0 41 40" fill="none" xmlns="http://www.w3.org/2000/svg">
<g clip-path="url(#clip0_54787_64811)">
<path d="M34.9937 25.5264V26.368H40.7764V22.5724H39.9339V25.5264H34.9937ZM34.9937 13V13.8416H39.9339V16.7959H40.7764V13H34.9937ZM32.0115 19.5109V17.5552H33.3333C33.9777 17.5552 34.209 17.7697 34.209 18.3557V18.7022C34.209 19.3045 33.9859 19.5109 33.3333 19.5109H32.0115ZM34.1097 19.8574C34.7127 19.7006 35.1339 19.1394 35.1339 18.4711C35.1339 18.0503 34.9688 17.6706 34.6549 17.3653C34.2584 16.9856 33.7295 16.7959 33.044 16.7959H31.1853V22.5722H32.0115V20.27H33.2507C33.8867 20.27 34.1429 20.534 34.1429 21.1943V22.5724H34.9854V21.3263C34.9854 20.4186 34.7707 20.0721 34.1097 19.973V19.8574ZM27.1541 20.0471H29.6985V19.288H27.1541V17.555H29.9462V16.7959H26.3113V22.5722H30.0702V21.813H27.1541V20.0471ZM24.3864 20.3525V20.7485C24.3864 21.5819 24.0807 21.8544 23.3126 21.8544H23.1308C22.3624 21.8544 21.9907 21.6067 21.9907 20.4597V18.9083C21.9907 17.7531 22.379 17.5137 23.1472 17.5137H23.3124C24.0641 17.5137 24.3037 17.7943 24.3118 18.57H25.2206C25.1381 17.4312 24.3781 16.7134 23.238 16.7134C22.6846 16.7134 22.2219 16.8867 21.875 17.2167C21.3545 17.7036 21.0654 18.5288 21.0654 19.684C21.0654 20.798 21.3133 21.6233 21.8254 22.1348C22.1723 22.4731 22.6516 22.6546 23.1224 22.6546C23.6181 22.6546 24.0726 22.4565 24.3037 22.0275H24.4192V22.5722H25.1792V19.5933H22.9405V20.3525H24.3864ZM17.1003 17.555H18.0009C18.8519 17.555 19.3145 17.7695 19.3145 18.9249V20.4431C19.3145 21.5983 18.8519 21.813 18.0009 21.813H17.1003V17.555ZM18.075 22.5724C19.653 22.5724 20.2394 21.3758 20.2394 19.6842C20.2394 17.9678 19.6116 16.7961 18.0584 16.7961H16.274V22.5724H18.075ZM12.2841 20.0471H14.8286V19.288H12.2841V17.555H15.0763V16.7959H11.4413V22.5722H15.2003V21.813H12.2841V20.0471ZM7.41008 16.7959H6.56752V22.5722H10.3676V21.813H7.41008V16.7959ZM0.776367 22.5724V26.3682H6.55912V25.5264H1.61893V22.5724H0.776367ZM0.776367 13V16.7959H1.61893V13.8416H6.55912V13H0.776367Z" fill="black"/>
</g>
<defs>
<clipPath id="clip0_54787_64811">
<rect width="40" height="40" fill="white" transform="translate(0.776367)"/>
</clipPath>
</defs>
</svg>
