<svg width="24" height="24" viewBox="0 0 24 24" fill="none" xmlns="http://www.w3.org/2000/svg">
<g clip-path="url(#clip0_55359_60313)">
<path d="M15.7032 12.031C15.734 11.9895 15.7547 11.9414 15.7637 11.8904C15.7726 11.8395 15.7696 11.7872 15.7549 11.7377L13.8549 5.40435C13.8344 5.33542 13.7922 5.27497 13.7345 5.23202C13.6768 5.18906 13.6068 5.16591 13.5349 5.16602H8.86824C8.81182 5.16604 8.75633 5.18039 8.70696 5.20771C8.6576 5.23503 8.61598 5.27444 8.586 5.32224C8.55602 5.37004 8.53866 5.42467 8.53556 5.481C8.53245 5.53734 8.5437 5.59354 8.56824 5.64435L10.4416 9.49935H8.56991C8.50743 9.49926 8.44618 9.51673 8.39315 9.54977C8.34012 9.58281 8.29744 9.63009 8.26999 9.68621C8.24253 9.74234 8.23141 9.80505 8.23788 9.8672C8.24434 9.92934 8.26815 9.98842 8.30658 10.0377L15.1032 18.7493C15.1345 18.7894 15.1744 18.8218 15.2201 18.844C15.2657 18.8662 15.3158 18.8778 15.3666 18.8777C15.4201 18.8781 15.4729 18.8649 15.5199 18.8393C15.589 18.8037 15.6435 18.7451 15.6739 18.6736C15.7043 18.6021 15.7088 18.5222 15.6866 18.4477L13.7782 12.166H15.4449C15.4954 12.1646 15.5449 12.1516 15.5896 12.1282C15.6344 12.1049 15.6732 12.0716 15.7032 12.031Z" fill="url(#paint0_linear_55359_60313)"/>
</g>
<rect x="0.5" y="0.5" width="23" height="23" rx="11.5" stroke="#DCDCDC"/>
<defs>
<linearGradient id="paint0_linear_55359_60313" x1="9.44491" y1="12.0227" x2="16.9782" y2="12.0227" gradientUnits="userSpaceOnUse">
<stop stop-color="#FFB300"/>
<stop offset="0.27" stop-color="#FFBA11"/>
<stop offset="0.8" stop-color="#FFCD3C"/>
<stop offset="1" stop-color="#FFD54F"/>
</linearGradient>
<clipPath id="clip0_55359_60313">
<rect width="24" height="24" rx="12" fill="white"/>
</clipPath>
</defs>
</svg>
