<svg width="40" height="40" viewBox="0 0 40 40" fill="none" xmlns="http://www.w3.org/2000/svg">
<path d="M34.4121 4.45703L21.9199 13.7351L24.23 8.26117L34.4121 4.45703Z" fill="#E2761B" stroke="#E2761B" stroke-linecap="round" stroke-linejoin="round"/>
<path d="M5.57315 4.45703L17.9649 13.823L15.7678 8.26117L5.57315 4.45703ZM29.9172 25.9636L26.5901 31.0609L33.7087 33.0195L35.7552 26.0766L29.9172 25.9636ZM4.25488 26.0766L6.28878 33.0195L13.4074 31.0609L10.0804 25.9636L4.25488 26.0766Z" fill="#E4761B" stroke="#E4761B" stroke-linecap="round" stroke-linejoin="round"/>
<path d="M13.0061 17.3515L11.0225 20.3522L18.0909 20.666L17.8398 13.0703L13.0061 17.3515ZM26.9798 17.3515L22.0834 12.9824L21.9201 20.666L28.976 20.3522L26.9798 17.3515ZM13.4079 31.0615L17.6515 28.99L13.9854 26.1274L13.4079 31.0615ZM22.3344 28.99L26.5906 31.0615L26.0005 26.1274L22.3344 28.99Z" fill="#E4761B" stroke="#E4761B" stroke-linecap="round" stroke-linejoin="round"/>
<path d="M26.5899 31.0618L22.3338 28.9902L22.6728 31.7649L22.6351 32.9325L26.5899 31.0618ZM13.4072 31.0618L17.362 32.9325L17.3369 31.7649L17.6508 28.9902L13.4072 31.0618Z" fill="#D7C1B3" stroke="#D7C1B3" stroke-linecap="round" stroke-linejoin="round"/>
<path d="M17.4253 24.2939L13.8848 23.2519L16.3832 22.1094L17.4253 24.2939ZM22.5602 24.2939L23.6023 22.1094L26.1133 23.2519L22.5602 24.2939Z" fill="#233447" stroke="#233447" stroke-linecap="round" stroke-linejoin="round"/>
<path d="M13.4081 31.0609L14.0107 25.9636L10.0811 26.0766L13.4081 31.0609ZM25.9881 25.9636L26.5908 31.0609L29.9178 26.0766L25.9881 25.9636ZM28.9762 20.3516L21.9204 20.6654L22.5732 24.2938L23.6153 22.1093L26.1263 23.2517L28.9762 20.3516ZM13.8852 23.2517L16.3962 22.1093L17.4257 24.2938L18.0911 20.6654L11.0227 20.3516L13.8852 23.2517Z" fill="#CD6116" stroke="#CD6116" stroke-linecap="round" stroke-linejoin="round"/>
<path d="M11.0225 20.3516L13.9854 26.1268L13.885 23.2517L11.0225 20.3516ZM26.126 23.2517L26.0005 26.1268L28.976 20.3516L26.126 23.2517ZM18.0909 20.6654L17.4255 24.2938L18.2541 28.575L18.4424 22.9379L18.0909 20.6654ZM21.9201 20.6654L21.5812 22.9253L21.7318 28.575L22.573 24.2938L21.9201 20.6654Z" fill="#E4751F" stroke="#E4751F" stroke-linecap="round" stroke-linejoin="round"/>
<path d="M22.5728 24.294L21.7316 28.5752L22.3342 28.9896L26.0003 26.127L26.1258 23.252L22.5728 24.294ZM13.8848 23.252L13.9852 26.127L17.6512 28.9896L18.2539 28.5752L17.4253 24.294L13.8848 23.252Z" fill="#F6851B" stroke="#F6851B" stroke-linecap="round" stroke-linejoin="round"/>
<path d="M22.6351 32.9312L22.6728 31.7636L22.3589 31.4874H17.6257L17.3369 31.7636L17.362 32.9312L13.4072 31.0605L14.7883 32.1905L17.588 34.1365H22.3966L25.2089 32.1905L26.5899 31.0605L22.6351 32.9312Z" fill="#C0AD9E" stroke="#C0AD9E" stroke-linecap="round" stroke-linejoin="round"/>
<path d="M22.3338 28.9885L21.7311 28.5742H18.2534L17.6508 28.9885L17.3369 31.7632L17.6257 31.487H22.3589L22.6728 31.7632L22.3338 28.9885Z" fill="#161616" stroke="#161616" stroke-linecap="round" stroke-linejoin="round"/>
<path d="M34.9391 14.3378L36.0063 9.21535L34.4118 4.45703L22.334 13.4212L26.9793 17.3509L33.5455 19.2718L35.0019 17.5769L34.3741 17.125L35.3785 16.2084L34.6001 15.6058L35.6045 14.84L34.9391 14.3378ZM3.99121 9.21535L5.05838 14.3378L4.38041 14.84L5.38481 15.6058L4.61896 16.2084L5.62335 17.125L4.99561 17.5769L6.43942 19.2718L13.0056 17.3509L17.651 13.4212L5.57313 4.45703L3.99121 9.21535Z" fill="#763D16" stroke="#763D16" stroke-linecap="round" stroke-linejoin="round"/>
<path d="M33.5455 19.2724L26.9793 17.3515L28.9755 20.3521L26 26.1274L29.9172 26.0772H35.7552L33.5455 19.2724ZM13.0057 17.3515L6.43944 19.2724L4.25488 26.0772H10.0804L13.985 26.1274L11.022 20.3521L13.0057 17.3515ZM21.9197 20.666L22.334 13.4218L24.2423 8.26172H15.7678L17.651 13.4218L18.0904 20.666L18.2411 22.951L18.2536 28.5756H21.7313L21.7565 22.951L21.9197 20.666Z" fill="#F6851B" stroke="#F6851B" stroke-linecap="round" stroke-linejoin="round"/>
</svg>
