<svg width="18" height="18" viewBox="0 0 18 18" fill="none" xmlns="http://www.w3.org/2000/svg">
<path d="M12.3892 7.00977H15.7642V3.63477" stroke="#767676" stroke-linecap="round" stroke-linejoin="round"/>
<path d="M4.62646 4.62591C5.20049 4.05104 5.88222 3.59498 6.63266 3.28382C7.38309 2.97266 8.18751 2.8125 8.9999 2.8125C9.81229 2.8125 10.6167 2.97266 11.3671 3.28382C12.1176 3.59498 12.7993 4.05104 13.3733 4.62591L15.764 7.0095" stroke="#767676" stroke-linecap="round" stroke-linejoin="round"/>
<path d="M5.61084 10.9902H2.23584V14.3652" stroke="#767676" stroke-linecap="round" stroke-linejoin="round"/>
<path d="M13.3733 13.3738C12.7993 13.9487 12.1176 14.4047 11.3671 14.7159C10.6167 15.0271 9.81229 15.1872 8.9999 15.1872C8.18751 15.1872 7.38309 15.0271 6.63266 14.7159C5.88222 14.4047 5.20049 13.9487 4.62647 13.3738L2.23584 10.9902" stroke="#767676" stroke-linecap="round" stroke-linejoin="round"/>
</svg>
