<svg width="41" height="40" viewBox="0 0 41 40" fill="none" xmlns="http://www.w3.org/2000/svg">
<g clip-path="url(#clip0_54787_64822)">
<path d="M9.07338 12.7896C15.5955 6.40347 26.1701 6.40347 32.6922 12.7896L33.4777 13.555C33.5557 13.6297 33.6178 13.7194 33.6603 13.8188C33.7027 13.9181 33.7246 14.025 33.7246 14.1331C33.7246 14.2411 33.7027 14.348 33.6603 14.4474C33.6178 14.5467 33.5557 14.6365 33.4777 14.7111L30.792 17.3435C30.7127 17.42 30.6068 17.4627 30.4966 17.4627C30.3865 17.4627 30.2806 17.42 30.2013 17.3435L29.1211 16.2847C24.5713 11.8308 17.1944 11.8308 12.6445 16.2847L11.487 17.4221C11.4079 17.499 11.3019 17.5419 11.1916 17.5419C11.0813 17.5419 10.9754 17.499 10.8963 17.4221L8.21461 14.7885C8.13655 14.7138 8.07443 14.6241 8.03199 14.5247C7.98955 14.4254 7.96767 14.3185 7.96767 14.2104C7.96767 14.1024 7.98955 13.9955 8.03199 13.8961C8.07443 13.7968 8.13655 13.707 8.21461 13.6324L9.07338 12.7896ZM38.2463 18.2222L40.6359 20.5625C40.7139 20.6372 40.7761 20.7269 40.8185 20.8263C40.8609 20.9256 40.8828 21.0326 40.8828 21.1406C40.8828 21.2486 40.8609 21.3555 40.8185 21.4549C40.7761 21.5542 40.7139 21.644 40.6359 21.7187L29.8599 32.2693C29.7015 32.4226 29.4896 32.5083 29.2692 32.5083C29.0487 32.5083 28.8369 32.4226 28.6784 32.2693L21.0308 24.7804C20.9909 24.7424 20.9379 24.7212 20.8828 24.7212C20.8277 24.7212 20.7747 24.7424 20.7348 24.7804L13.0872 32.2733C12.9288 32.4266 12.7169 32.5123 12.4965 32.5123C12.276 32.5123 12.0641 32.4266 11.9057 32.2733L1.12975 21.7227C1.05169 21.648 0.98957 21.5582 0.947131 21.4589C0.904692 21.3595 0.882812 21.2526 0.882812 21.1446C0.882812 21.0366 0.904692 20.9296 0.947131 20.8303C0.98957 20.7309 1.05169 20.6412 1.12975 20.5665L3.51937 18.2222C3.67747 18.0683 3.88943 17.9821 4.11011 17.9821C4.33078 17.9821 4.54274 18.0683 4.70085 18.2222L12.3484 25.7138C12.388 25.7524 12.4412 25.774 12.4965 25.774C12.5518 25.774 12.6049 25.7524 12.6445 25.7138L20.2921 18.2222C20.4502 18.0683 20.6621 17.9821 20.8828 17.9821C21.1035 17.9821 21.3154 18.0683 21.4735 18.2222L29.1211 25.7098C29.1607 25.7484 29.2139 25.77 29.2692 25.77C29.3245 25.77 29.3776 25.7484 29.4172 25.7098L37.0648 18.2222C37.2232 18.0689 37.435 17.9832 37.6555 17.9832C37.876 17.9832 38.0878 18.0689 38.2463 18.2222Z" fill="black"/>
</g>
<defs>
<clipPath id="clip0_54787_64822">
<rect width="40" height="40" fill="white" transform="translate(0.887695)"/>
</clipPath>
</defs>
</svg>
