<svg width="41" height="40" viewBox="0 0 41 40" fill="none" xmlns="http://www.w3.org/2000/svg">
<path d="M26.2734 21.3085C27.1468 21.3068 28.0136 21.4599 28.8336 21.7607C29.4508 21.981 30.1297 21.9512 30.7252 21.6776C31.2936 21.4266 31.9092 21.3003 32.5305 21.3071C33.1929 21.2856 33.852 21.4083 34.4623 21.6665C34.7617 21.8005 35.0848 21.8737 35.4127 21.8818C35.7407 21.8898 36.067 21.8326 36.3726 21.7133C36.4676 21.6754 36.5679 21.638 36.673 21.6022C36.8674 21.5362 37.0746 21.5175 37.2776 21.5476C37.4806 21.5778 37.6735 21.6558 37.8402 21.7754C38.007 21.895 38.1429 22.0525 38.2366 22.2351C38.3303 22.4177 38.3792 22.6199 38.3791 22.8251V25.4765H26.2734V21.3085Z" fill="#9F8D8A"/>
<path d="M20.2207 14.5163C20.9999 14.4621 21.7813 14.5863 22.5053 14.8793C23.057 15.093 23.6708 15.0797 24.2128 14.8425C24.4045 14.7602 24.6019 14.6918 24.8034 14.6379C24.9775 14.5928 25.1595 14.5882 25.3356 14.6245C25.5117 14.6608 25.6771 14.737 25.8191 14.8473C25.9611 14.9575 26.0759 15.0989 26.1547 15.2605C26.2335 15.4221 26.2742 15.5996 26.2736 15.7793V18.877H20.2207V14.5163Z" fill="#9F8D8A"/>
<path d="M2.0625 31.0273H14.1682V38.1586H2.0625V31.0273Z" fill="#FF8574"/>
<path d="M14.168 31.0273H26.2737V38.1586H14.168V31.0273Z" fill="#FF8574"/>
<path d="M2.0625 16.7656H14.1682V23.8969H2.0625V16.7656Z" fill="#FF8574"/>
<path d="M14.168 16.7656H26.2737V23.8969H14.168V16.7656Z" fill="#FF8574"/>
<path d="M26.2734 31.0273H38.3791V38.1586H26.2734V31.0273Z" fill="#FF8574"/>
<path d="M2.0625 23.8965H8.11539V31.0277H2.0625V23.8965Z" fill="#D85656"/>
<path d="M8.11523 23.8965H20.2209V31.0277H8.11523V23.8965Z" fill="#FF8574"/>
<path d="M2.0625 9.63281H8.11539V16.7641H2.0625V9.63281Z" fill="#FF8574"/>
<path d="M8.11523 9.63281H20.2209V16.7641H8.11523V9.63281Z" fill="#FF8574"/>
<path d="M26.2734 1.8418H38.3791V8.97305H26.2734V1.8418Z" fill="#FF8574"/>
<path d="M20.2207 23.8965H32.3264V31.0277H20.2207V23.8965Z" fill="#FF8574"/>
<path d="M32.3262 23.8965H38.3791V31.0277H32.3262V23.8965Z" fill="#FF8574"/>
<path d="M38.1035 21.405C37.8788 21.2422 37.618 21.136 37.3434 21.0956C37.0689 21.0551 36.7886 21.0816 36.5264 21.1727C36.4191 21.2092 36.3107 21.2494 36.2042 21.2919C35.9544 21.388 35.6881 21.4339 35.4206 21.4269C35.153 21.4198 34.8895 21.36 34.6451 21.2508C33.9729 20.9662 33.247 20.8307 32.5174 20.8535C31.8359 20.8484 31.1611 20.9885 30.538 21.2645C30.0507 21.49 29.4944 21.5151 28.9888 21.3344C28.7373 21.2433 28.4814 21.165 28.2221 21.0995C28.1058 21.0718 27.9832 21.091 27.8809 21.1529C27.7787 21.2149 27.7049 21.3146 27.6756 21.4306C27.6464 21.5465 27.6639 21.6693 27.7246 21.7724C27.7852 21.8755 27.884 21.9506 27.9995 21.9813C28.2292 22.0392 28.4559 22.1086 28.6786 22.1893C29.4071 22.4513 30.2093 22.4168 30.9126 22.0931C31.4222 21.8688 31.9739 21.7562 32.5307 21.7629C32.5402 21.7629 32.5511 21.7629 32.5606 21.762C33.1498 21.7463 33.7357 21.8559 34.2794 22.0835C34.6343 22.2409 35.0168 22.3267 35.4049 22.3358C35.793 22.3449 36.1791 22.2772 36.541 22.1366C36.6332 22.0998 36.727 22.0652 36.8198 22.0335C36.9456 21.9909 37.0798 21.979 37.2113 21.9986C37.3427 22.0182 37.4676 22.0688 37.5755 22.1463C37.6835 22.2238 37.7714 22.3259 37.8321 22.4441C37.8927 22.5623 37.9243 22.6933 37.9243 22.8262V23.6691C37.6602 23.5205 37.3622 23.4425 37.0591 23.4426H26.7285V15.7804C26.7293 15.5289 26.6718 15.2807 26.5606 15.0552C26.4493 14.8297 26.2872 14.6331 26.0872 14.4807C25.8913 14.3287 25.6628 14.2242 25.4197 14.1755C25.1766 14.1267 24.9255 14.1349 24.6861 14.1995C24.4634 14.2591 24.2453 14.3346 24.0334 14.4256C23.6016 14.6141 23.1129 14.6255 22.6727 14.4573C22.4325 14.3625 22.1864 14.2836 21.9358 14.2213C21.8191 14.193 21.6959 14.212 21.5932 14.2742C21.4904 14.3364 21.4165 14.4368 21.3875 14.5533C21.3584 14.6698 21.3767 14.7931 21.4383 14.8962C21.4999 14.9994 21.5997 15.0739 21.7161 15.1037C21.9277 15.1563 22.1356 15.2229 22.3384 15.303C23.0023 15.5589 23.7401 15.5439 24.393 15.2611C24.5646 15.1874 24.7412 15.1262 24.9216 15.078C25.0262 15.05 25.1359 15.0466 25.242 15.0681C25.3481 15.0897 25.4478 15.1356 25.5332 15.2022C25.6223 15.2699 25.6944 15.3574 25.744 15.4577C25.7936 15.558 25.8192 15.6684 25.8189 15.7803V16.5376C25.5548 16.3889 25.2567 16.3109 24.9536 16.311H20.6754V10.9544C20.6749 10.4839 20.4877 10.0328 20.1551 9.70008C19.8224 9.36738 19.3713 9.18023 18.9008 9.17969H2.06211C1.94152 9.17969 1.82587 9.22759 1.7406 9.31286C1.65533 9.39813 1.60742 9.51378 1.60742 9.63438V38.1594C1.60742 38.28 1.65533 38.3956 1.7406 38.4809C1.82587 38.5662 1.94152 38.6141 2.06211 38.6141H38.3793C38.4999 38.6141 38.6155 38.5662 38.7008 38.4809C38.7861 38.3956 38.834 38.28 38.834 38.1594V22.8259C38.8356 22.5477 38.77 22.2733 38.6428 22.0259C38.5157 21.7786 38.3306 21.5656 38.1035 21.405ZM8.56969 10.0891H18.9008C19.1302 10.0894 19.3501 10.1806 19.5123 10.3428C19.6745 10.505 19.7657 10.725 19.766 10.9544V16.3109H8.56969V10.0891ZM19.766 24.3516V30.5734H8.56969V24.3516H19.766ZM2.5168 10.0891H7.66031V16.3109H2.5168V10.0891ZM2.5168 17.2204H13.7129V23.4422H2.5168V17.2204ZM25.8189 37.7048H14.6226V33.3256C14.621 33.2061 14.5724 33.0919 14.4873 33.0079C14.4022 32.9239 14.2874 32.8768 14.1679 32.8768C14.0483 32.8768 13.9335 32.9239 13.8484 33.0079C13.7633 33.0919 13.7147 33.2061 13.7131 33.3256V37.7047H2.5168V31.4828H5.91602C6.03558 31.4812 6.14972 31.4326 6.23372 31.3475C6.31772 31.2624 6.36482 31.1477 6.36482 31.0281C6.36482 30.9085 6.31772 30.7937 6.23372 30.7086C6.14972 30.6235 6.03558 30.5749 5.91602 30.5734H2.5168V24.3516H7.66031V31.0281C7.66031 31.1487 7.70822 31.2644 7.79349 31.3496C7.87876 31.4349 7.99441 31.4828 8.115 31.4828H25.8189V37.7048ZM20.6754 30.5734V23.8969C20.6754 23.7763 20.6275 23.6606 20.5422 23.5754C20.4569 23.4901 20.3413 23.4422 20.2207 23.4422H14.6226V17.2204H24.9536C25.183 17.2206 25.4029 17.3119 25.5652 17.4741C25.7274 17.6363 25.8186 17.8562 25.8189 18.0856V23.4422H22.4785C22.3579 23.4422 22.2423 23.4901 22.157 23.5754C22.0717 23.6606 22.0238 23.7763 22.0238 23.8969C22.0238 24.0175 22.0717 24.1331 22.157 24.2184C22.2423 24.3037 22.3579 24.3516 22.4785 24.3516H31.8717V30.5734H20.6754ZM37.9246 37.7047H26.7285V31.4828H37.9246V37.7047ZM37.9246 25.477V30.5734H32.7812V24.3516H37.0594C37.2888 24.3519 37.5087 24.4431 37.6709 24.6053C37.8331 24.7675 37.9243 24.9875 37.9246 25.2169V25.477Z" fill="#973B3B"/>
<path d="M37.0598 1.38672H27.5939C27.1235 1.38726 26.6724 1.5744 26.3397 1.90708C26.007 2.23977 25.8199 2.69084 25.8193 3.16133V7.65266C25.8199 8.12316 26.007 8.57425 26.3397 8.90695C26.6724 9.23966 27.1234 9.42681 27.5939 9.42734H37.0598C37.5303 9.42681 37.9814 9.23966 38.3141 8.90695C38.6468 8.57425 38.8339 8.12316 38.8344 7.65266V3.16133C38.8339 2.69084 38.6467 2.23977 38.314 1.90708C37.9814 1.5744 37.5303 1.38726 37.0598 1.38672ZM37.925 7.65234C37.9248 7.88174 37.8335 8.10166 37.6713 8.26386C37.5091 8.42606 37.2892 8.51731 37.0598 8.51758H27.5939C27.3646 8.51725 27.1448 8.42602 26.9827 8.26389C26.8205 8.10176 26.7293 7.88195 26.7289 7.65266V3.16133C26.7292 2.93198 26.8205 2.71211 26.9826 2.54992C27.1448 2.38772 27.3646 2.29645 27.5939 2.29609H37.0598C37.2892 2.29638 37.5091 2.38763 37.6713 2.54983C37.8335 2.71203 37.9247 2.93194 37.925 3.16133V7.65234Z" fill="#973B3B"/>
</svg>
