<svg width="40" height="40" viewBox="0 0 40 40" fill="none" xmlns="http://www.w3.org/2000/svg">
<path d="M18.4833 39.3728C28.3682 39.3728 36.3816 31.3594 36.3816 21.4745C36.3816 11.5895 28.3682 3.57617 18.4833 3.57617C8.5983 3.57617 0.584961 11.5895 0.584961 21.4745C0.584961 31.3594 8.5983 39.3728 18.4833 39.3728Z" fill="#FC892E"/>
<path d="M33.5454 13.4684L32.8601 13.3303C34.1109 15.7733 34.8177 18.541 34.8177 21.4742C34.8177 31.0971 27.2233 38.9451 17.7012 39.3545C17.9605 39.3657 18.2209 39.3725 18.483 39.3725C28.3679 39.3725 36.3813 31.3591 36.3813 21.4742C36.3813 18.3462 35.578 15.4062 34.1678 12.8477L33.5454 13.4684Z" fill="#FC892E"/>
<path d="M18.4829 34.7666C25.8231 34.7666 31.7735 28.8163 31.7735 21.4761C31.7735 14.1359 25.8231 8.18555 18.4829 8.18555C11.1428 8.18555 5.19238 14.1359 5.19238 21.4761C5.19238 28.8163 11.1428 34.7666 18.4829 34.7666Z" fill="white"/>
<path d="M27.9539 14.0752C29.3778 16.1915 30.2099 18.7374 30.2099 21.4744C30.2099 28.5403 24.6671 34.3352 17.7012 34.7413C17.9599 34.7564 18.2204 34.7649 18.483 34.7649C25.8114 34.7649 31.7735 28.8028 31.7735 21.4744C31.7735 18.3375 30.6804 15.4516 28.8561 13.1758L27.9539 14.0752Z" fill="white"/>
<path d="M18.4829 30.4657C23.4483 30.4657 27.4735 26.4404 27.4735 21.475C27.4735 16.5096 23.4483 12.4844 18.4829 12.4844C13.5174 12.4844 9.49219 16.5096 9.49219 21.475C9.49219 26.4404 13.5174 30.4657 18.4829 30.4657Z" fill="#FC892E"/>
<path d="M24.8244 17.1969C25.5165 18.4701 25.91 19.9279 25.91 21.4761C25.91 26.1701 22.2939 30.0349 17.7012 30.4324C17.9589 30.4547 18.2195 30.4667 18.483 30.4667C23.4405 30.4667 27.4736 26.4336 27.4736 21.4761C27.4736 19.5233 26.8475 17.7142 25.786 16.2383L24.8244 17.1969Z" fill="#FC892E"/>
<path d="M18.483 26.5559C21.2896 26.5559 23.5647 24.2808 23.5647 21.4743C23.5647 18.6677 21.2896 16.3926 18.483 16.3926C15.6765 16.3926 13.4014 18.6677 13.4014 21.4743C13.4014 24.2808 15.6765 26.5559 18.483 26.5559Z" fill="#D85656"/>
<path d="M21.8323 20.1784C21.9416 20.5924 22.0011 21.0265 22.0011 21.4745C22.0011 24.0107 20.1333 26.1188 17.7012 26.4959C17.9561 26.5355 18.2172 26.5562 18.483 26.5562C21.285 26.5562 23.5646 24.2765 23.5646 21.4745C23.5646 20.6014 23.3432 19.779 22.9536 19.0605L21.8323 20.1784Z" fill="#D85656"/>
<path d="M17.716 22.2786C17.1625 21.7233 17.1639 20.8244 17.7191 20.2709L33.0342 5.00218C33.5894 4.44859 34.4883 4.44999 35.0418 5.00523C35.5954 5.56046 35.594 6.45937 35.0388 7.01288L19.7237 22.2816C19.1685 22.8352 18.2696 22.8339 17.716 22.2786Z" fill="#F1BE82"/>
<path d="M35.0424 5.00506C34.7663 4.72822 34.4045 4.58922 34.0422 4.58789C34.2228 5.08996 34.1131 5.67295 33.7103 6.07456L18.3952 21.3433C18.1168 21.6208 17.752 21.7587 17.3877 21.7574C17.456 21.9473 17.5646 22.126 17.7166 22.2784C18.2702 22.8336 19.169 22.835 19.7243 22.2814L35.0393 7.01271C35.5946 6.45912 35.596 5.56029 35.0424 5.00506Z" fill="#F1BE82"/>
<path d="M29.4004 12.6339L33.5452 13.4694L38.8084 8.22222L34.6635 7.38672L29.4004 12.6339Z" fill="#D85656"/>
<path d="M27.3962 10.6231L26.5732 6.4757L31.8364 1.22852L32.6593 5.37587L27.3962 10.6231Z" fill="#D85656"/>
</svg>
