<svg width="41" height="40" viewBox="0 0 41 40" fill="none" xmlns="http://www.w3.org/2000/svg">
<path d="M16.6884 0.585938C14.6596 0.585938 13.0148 2.23242 13.0148 4.26344C13.0148 4.36922 13.0203 4.47359 13.029 4.57711C12.6657 4.49781 12.2887 4.45484 11.9017 4.45484C8.99116 4.45484 6.63171 6.81688 6.63171 9.73055C6.63171 10.3831 6.75085 11.0077 6.96725 11.5846C4.27788 11.8236 2.16889 14.0837 2.16889 16.8382C2.16889 18.5863 3.01881 20.1352 4.32702 21.0952C3.01803 21.5283 2.00796 22.684 1.83085 24.1448C1.59538 26.0866 2.91764 27.8577 4.81483 28.2045C4.22538 29.0811 3.88124 30.1366 3.88124 31.2728C3.88124 34.3115 6.34186 36.7747 9.37717 36.7747C10.3645 36.7747 11.2902 36.5127 12.0911 36.0564C12.473 37.971 14.1609 39.4139 16.1858 39.4139C18.4923 39.4139 20.362 37.5422 20.362 35.2332V4.26344C20.3619 2.23242 18.7173 0.585938 16.6884 0.585938Z" fill="#FFAAB1"/>
<path d="M9.74703 36.0566C9.27258 36.327 8.75406 36.5284 8.20508 36.6483C8.58281 36.7305 8.97461 36.7749 9.37695 36.7749C9.56969 36.7749 9.76 36.7646 9.94766 36.7452C9.86195 36.5241 9.79437 36.294 9.74703 36.0566Z" fill="#E27F86"/>
<path d="M38.2668 26.5917C38.7207 25.8931 38.9412 25.037 38.8331 24.145C38.5886 22.1287 36.7578 20.6926 34.7437 20.9373C34.4972 20.9672 34.2593 21.021 34.0322 21.096" fill="#E6989E"/>
<path d="M31.2865 14.3629C32.9224 13.4674 34.0319 11.7288 34.0319 9.73078C34.0319 6.81711 31.6725 4.45508 28.7619 4.45508C27.6705 4.45508 26.6565 4.78727 25.8154 5.35609" fill="#E6989E"/>
<path d="M26.7295 34.3481C27.7171 35.8116 29.3897 36.7738 31.2868 36.7738C34.3221 36.7738 36.7828 34.3105 36.7828 31.272C36.7828 29.5687 36.0097 28.0463 34.7957 27.0371" fill="#E6989E"/>
<path d="M23.9753 0.585938C26.0041 0.585938 27.6489 2.23242 27.6489 4.26344C27.6489 4.36922 27.6434 4.47359 27.6346 4.57711C27.998 4.49781 28.3749 4.45484 28.7621 4.45484C31.6726 4.45484 34.0321 6.81688 34.0321 9.73055C34.0321 10.3831 33.9129 11.0077 33.6965 11.5846C36.3859 11.8236 38.4949 14.0838 38.4949 16.8382C38.4949 18.5863 37.645 20.1352 36.3368 21.0952C37.6457 21.5283 38.6558 22.684 38.8329 24.1448C39.0684 26.0866 37.7461 27.8577 35.8489 28.2045C36.4384 29.0811 36.7825 30.1366 36.7825 31.2728C36.7825 34.3115 34.3219 36.7747 31.2866 36.7747C30.2993 36.7747 29.3736 36.5127 28.5727 36.0564C28.1907 37.971 26.5029 39.4139 24.4779 39.4139C22.1715 39.4139 20.3018 37.5422 20.3018 35.2332V4.26344C20.3017 2.23242 21.9464 0.585938 23.9753 0.585938Z" fill="#FFAAB1"/>
<path d="M30.9792 26.4242C31.2944 26.3507 31.4903 26.0355 31.4167 25.7204C31.3432 25.4053 31.028 25.2096 30.713 25.283C29.7642 25.5044 28.9178 26.0468 28.3203 26.8127C27.4896 26.4551 26.5699 26.3717 25.6727 26.5811C25.3575 26.6546 25.1617 26.9697 25.2352 27.2848C25.3087 27.6 25.624 27.7958 25.9389 27.7222C26.7432 27.5345 27.5722 27.6709 28.2732 28.1063C28.9742 28.5415 29.4631 29.2235 29.6504 30.0266C29.6971 30.2268 29.7238 30.4314 29.7302 30.6345C29.7399 30.9518 30.0003 31.2023 30.3155 31.2023C30.3216 31.2023 30.3278 31.2022 30.3339 31.2021C30.6574 31.1921 30.9115 30.9218 30.9014 30.5983C30.8928 30.3179 30.8558 30.0361 30.7916 29.7607C30.5747 28.8299 30.063 28.0179 29.3321 27.4257C29.7585 26.9273 30.3363 26.5742 30.9792 26.4242Z" fill="#D4777E"/>
<path d="M13.1689 27.1995C13.1896 26.5345 13.3529 25.8668 13.6666 25.2411C14.0871 24.402 14.7403 23.7166 15.5553 23.2591C15.8375 23.1007 15.9378 22.7435 15.7795 22.4613C15.6211 22.1791 15.264 22.0788 14.9817 22.2372C13.9618 22.8097 13.1448 23.6668 12.6189 24.7159C12.2842 25.3839 12.0872 26.0901 12.0203 26.7997C10.6951 27.355 9.60065 28.3901 8.9826 29.6909C8.84377 29.9832 8.96807 30.3327 9.26041 30.4716C9.34159 30.5102 9.42721 30.5285 9.51151 30.5285C9.73065 30.5285 9.9408 30.405 10.0411 30.1939C10.4668 29.2979 11.1755 28.5597 12.041 28.0878C12.2052 29.3666 12.7935 30.5867 13.7704 31.5375C13.8843 31.6483 14.0317 31.7035 14.1789 31.7035C14.3316 31.7035 14.4841 31.6442 14.5989 31.5263C14.8246 31.2943 14.8196 30.9234 14.5876 30.6977C13.6289 29.7646 13.1384 28.5072 13.168 27.2368C13.1685 27.2243 13.1691 27.212 13.1689 27.1995Z" fill="#D4777E"/>
<path d="M23.906 10.4582C23.5946 10.3706 23.2709 10.552 23.1832 10.8635C23.0955 11.175 23.2769 11.4986 23.5885 11.5862C24.8765 11.9488 25.9076 12.82 26.4876 13.9507C26.493 13.9617 26.4983 13.9726 26.5044 13.9833C26.8034 14.5777 26.9786 15.2424 27.0015 15.9421C27.0323 16.8801 26.7852 17.7941 26.2873 18.5851C26.1148 18.8589 26.1971 19.2207 26.4709 19.3932C26.5679 19.4543 26.6759 19.4833 26.7826 19.4833C26.9772 19.4833 27.1676 19.3864 27.2789 19.2095C27.9021 18.2197 28.2112 17.0765 28.1726 15.9037C28.1482 15.1569 27.9843 14.4423 27.7045 13.7868C28.6041 12.6666 29.0721 11.2347 28.9946 9.7966C28.9772 9.47348 28.6991 9.22606 28.378 9.24301C28.0548 9.26043 27.8069 9.53653 27.8244 9.85965C27.8777 10.8502 27.6071 11.8372 27.0716 12.6648C26.3174 11.6192 25.2183 10.8276 23.906 10.4582Z" fill="#D4777E"/>
<path d="M39.415 24.0743C39.2566 22.7681 38.4969 21.6182 37.3996 20.9466C38.4653 19.8584 39.0811 18.3798 39.0811 16.8383C39.0811 15.3643 38.5323 13.9556 37.5359 12.8716C36.7084 11.9716 35.6334 11.3597 34.4552 11.1076C34.5636 10.6584 34.6183 10.1977 34.6183 9.7307C34.6183 6.49859 31.9914 3.86906 28.7624 3.86906C28.68 3.86906 28.5974 3.87141 28.5149 3.87492C28.4968 3.8757 28.4787 3.87664 28.4607 3.87758C28.3815 3.88164 28.3026 3.88703 28.2238 3.89422C28.2224 3.89438 28.2209 3.89437 28.2195 3.89453C28.032 1.71555 26.2004 0 23.9758 0C22.4332 0 21.0796 0.825078 20.3321 2.05734C19.5846 0.825078 18.231 0 16.6884 0C14.4638 0 12.6322 1.71562 12.4447 3.89445C11.2876 3.78609 10.1193 4.02789 9.10974 4.57687C8.82544 4.73148 8.72036 5.08727 8.8749 5.37156C9.0295 5.65578 9.38497 5.76094 9.66958 5.60641C10.6416 5.07773 11.8015 4.90906 12.9041 5.14961C12.909 5.1507 12.9139 5.15102 12.9187 5.15188C13.4923 5.27898 14.0311 5.51062 14.5199 5.84125C14.6205 5.9093 14.7347 5.94195 14.8476 5.94195C15.0356 5.94195 15.2203 5.85164 15.3336 5.68422C15.5148 5.41617 15.4445 5.05188 15.1764 4.87063C14.6892 4.54109 14.1617 4.29117 13.6043 4.12211C13.6785 2.48273 15.0333 1.17188 16.6884 1.17188C18.2345 1.17188 19.5186 2.3157 19.7416 3.80266C19.7253 3.95414 19.7163 12.7923 19.7163 12.7923C17.9583 13.5548 15.9175 13.1772 14.5457 11.8053C13.8819 11.1416 13.4374 10.3057 13.2603 9.38797C13.199 9.07031 12.8922 8.86227 12.5739 8.92375C12.2561 8.98508 12.0483 9.29242 12.1097 9.61016C12.3314 10.7585 12.8872 11.8042 13.717 12.634C14.8461 13.763 16.3376 14.3538 17.8521 14.3538C18.4776 14.3538 19.107 14.2528 19.7164 14.0476C19.7164 14.0476 19.7251 35.5636 19.7417 35.7253C19.5012 37.4754 17.9988 38.8281 16.1858 38.8281C14.6135 38.8281 13.2336 37.7968 12.7656 36.3261C13.4087 35.8948 13.9732 35.3391 14.4201 34.6768C14.6011 34.4086 14.5304 34.0444 14.2622 33.8634C13.994 33.6823 13.6298 33.753 13.4488 34.0212C13.0588 34.5991 12.5587 35.0773 11.9872 35.4366C11.9954 35.4496 12.0026 35.4634 12.0103 35.4769C11.9376 35.487 11.8665 35.5102 11.8009 35.5474C11.0644 35.967 10.2264 36.1888 9.37716 36.1888C6.66974 36.1888 4.46708 33.9835 4.46708 31.2729C4.46708 30.4034 4.69365 29.5606 5.12411 28.8156C5.12427 28.816 5.1245 28.8163 5.12466 28.8166C5.41232 28.318 5.78763 27.867 6.24279 27.4887C6.49161 27.2818 6.5256 26.9123 6.3188 26.6635C6.11193 26.4147 5.74263 26.3805 5.49357 26.5875C5.14841 26.8745 4.84044 27.1953 4.57115 27.5423C3.16091 27.1106 2.23052 25.7155 2.4124 24.2154C2.55583 23.0323 3.37958 22.0259 4.51099 21.6516C4.512 21.6513 4.51302 21.6506 4.51404 21.6503C4.93872 21.5102 5.39232 21.4633 5.84943 21.5189C6.05357 21.5437 6.25489 21.5886 6.44794 21.6523C6.75529 21.7539 7.08661 21.5869 7.18802 21.2795C7.28943 20.9722 7.12255 20.6409 6.81529 20.5395C6.54904 20.4516 6.27169 20.3897 5.99083 20.3555C5.46779 20.292 4.94779 20.3255 4.45115 20.4488C3.38411 19.5615 2.75482 18.2321 2.75482 16.8383C2.75482 15.6588 3.1938 14.5318 3.99083 13.6647C4.68708 12.9073 5.60208 12.4054 6.60115 12.2248C7.12841 13.3448 8.00607 14.2802 9.09575 14.8766C9.18505 14.9255 9.28146 14.9487 9.37654 14.9487C9.58372 14.9487 9.78458 14.8385 9.89107 14.644C10.0464 14.3601 9.94224 14.0041 9.65833 13.8487C8.72505 13.3378 7.98583 12.5164 7.577 11.5359C7.56622 11.5101 7.21747 10.2968 7.21747 9.73063C7.21747 8.79063 7.49404 7.88398 8.01724 7.10867C8.19825 6.84047 8.12755 6.47625 7.85935 6.29523C7.59107 6.11422 7.22693 6.18492 7.04591 6.45312C6.39154 7.42281 6.0456 8.55617 6.0456 9.73063C6.0456 10.1976 6.10029 10.6584 6.20872 11.1075C5.03052 11.3596 3.95552 11.9715 3.12802 12.8716C2.13161 13.9555 1.58286 15.3642 1.58286 16.8382C1.58286 18.3798 2.19872 19.8584 3.26443 20.9466C2.167 21.6181 1.40732 22.768 1.24904 24.0742C1.01115 26.0359 2.15271 27.8684 3.93075 28.5605C3.5131 29.3988 3.29505 30.3231 3.29505 31.2728C3.29505 34.6297 6.02341 37.3606 9.377 37.3606C10.1827 37.3606 10.9804 37.1995 11.7198 36.8905C12.4015 38.7295 14.1756 40 16.1858 40C17.9622 40 19.5136 39.0205 20.3321 37.5734C21.1504 39.0205 22.7018 40 24.4783 40C26.4886 40 28.2627 38.7295 28.9441 36.8905C29.6835 37.1995 30.4813 37.3607 31.287 37.3607C32.1091 37.3607 32.9068 37.1991 33.658 36.8806C33.956 36.7542 34.095 36.4103 33.9686 36.1124C33.8423 35.8145 33.4985 35.6754 33.2004 35.8018C32.5948 36.0587 31.9511 36.1889 31.2871 36.1889C30.4378 36.1889 29.5997 35.9671 28.8633 35.5475C28.8592 35.5452 28.8548 35.5435 28.8507 35.5413C28.1993 35.1687 27.6405 34.6512 27.2154 34.0213C27.0344 33.753 26.6701 33.6823 26.402 33.8634C26.1337 34.0445 26.063 34.4086 26.2441 34.6769C26.6876 35.3342 27.2494 35.8921 27.8981 36.3277C27.4296 37.7975 26.0501 38.8281 24.4783 38.8281C22.6654 38.8281 21.1629 37.4754 20.9226 35.7252C20.9393 35.5634 20.939 3.95406 20.9226 3.80258C21.1455 2.3157 22.4297 1.17188 23.9758 1.17188C25.6309 1.17188 26.9858 2.48281 27.0598 4.12219C26.5027 4.29195 25.9701 4.54422 25.4877 4.87055C25.2197 5.05188 25.1493 5.41609 25.3307 5.68414C25.4439 5.85156 25.6286 5.94187 25.8165 5.94187C25.9294 5.94187 26.0436 5.9093 26.1443 5.84117C26.6411 5.50508 27.2046 5.2682 27.7904 5.14375C28.1787 5.04641 28.6853 5.0407 28.7624 5.0407C31.3452 5.0407 33.4465 7.14453 33.4465 9.73047C33.4465 10.2966 33.3461 10.8511 33.1483 11.3787C33.1469 11.3822 33.1462 11.3859 33.145 11.3893C32.7493 12.4366 31.9901 13.3098 31.0057 13.8486C30.7218 14.004 30.6177 14.3601 30.773 14.6439C30.8795 14.8385 31.0804 14.9486 31.2876 14.9486C31.3826 14.9486 31.479 14.9254 31.5684 14.8766C32.6636 14.277 33.5351 13.3457 34.0622 12.2245C35.0616 12.4051 35.9767 12.907 36.6731 13.6645C37.4701 14.5316 37.9091 15.6587 37.9091 16.8381C37.9091 18.2322 37.2795 19.5619 36.2122 20.4492C35.7133 20.3252 35.1936 20.2923 34.673 20.3554C34.3922 20.3896 34.1148 20.4514 33.8486 20.5393C33.5412 20.6407 33.3744 20.972 33.4758 21.2794C33.5772 21.5867 33.9084 21.7535 34.2159 21.6522C34.4089 21.5885 34.6103 21.5436 34.8144 21.5187C35.2691 21.4635 35.7227 21.5092 36.15 21.6502C36.151 21.6505 36.1519 21.651 36.1529 21.6514C37.2843 22.0258 38.108 23.0322 38.2515 24.2153C38.4334 25.7154 37.5031 27.1103 36.093 27.5421C35.822 27.1926 35.5137 26.873 35.1704 26.5874C34.9215 26.3805 34.5521 26.4145 34.3453 26.6634C34.1384 26.9122 34.1723 27.2816 34.4212 27.4885C34.8002 27.8036 35.126 28.1702 35.3942 28.5796C35.4126 28.6077 35.4309 28.6356 35.4486 28.664C35.4691 28.6967 35.489 28.7299 35.5086 28.7632C35.9592 29.5209 36.1968 30.3827 36.1968 31.2729C36.1968 32.4644 35.7658 33.6137 34.9831 34.509C34.7701 34.7527 34.795 35.1228 35.0386 35.3358C35.2822 35.5488 35.6523 35.5239 35.8654 35.2803C36.8348 34.1714 37.3687 32.7482 37.3687 31.273C37.3687 30.3232 37.1508 29.399 36.7331 28.5607C38.5112 27.8684 39.6529 26.036 39.415 24.0743Z" fill="#D4777E"/>
</svg>
