<svg width="41" height="40" viewBox="0 0 41 40" fill="none" xmlns="http://www.w3.org/2000/svg">
<mask id="mask0_54539_46478" style="mask-type:luminance" maskUnits="userSpaceOnUse" x="0" y="0" width="41" height="40">
<path d="M0.777344 3.8147e-06H40.7773V40H0.777344V3.8147e-06Z" fill="white"/>
</mask>
<g mask="url(#mask0_54539_46478)">
<path d="M35.1119 8.53503V5.998C35.1119 3.92105 33.4282 2.23737 31.3512 2.23737H26.2281C24.2975 2.23737 22.7324 3.80245 22.7324 5.73307V8.59511C22.7324 10.5465 24.3143 12.1284 26.2657 12.1284H28.2402C29.4383 12.1284 30.4095 11.1571 30.4095 9.95909C30.4095 11.7132 30.1052 13.455 29.4988 15.1009C29.0404 16.3448 28.7901 17.6893 28.7901 19.0924C28.7901 21.4449 29.4941 23.6327 30.7023 25.4576C27.6698 23.8807 24.1448 23.5862 20.9278 24.5736C18.6431 21.0655 14.6862 18.746 10.1875 18.746C6.86336 18.746 3.83547 20.0128 1.55898 22.0893L1.55859 36.1774L8.07766 37.0723C16.5376 38.2337 25.1344 37.9301 33.4913 36.1749H33.4914C35.8431 35.6809 37.7841 34.0081 38.5853 31.7424C39.5058 29.1396 39.9961 26.346 39.9961 23.4034C39.9961 17.8371 38.1816 12.6946 35.1119 8.53503Z" fill="#FFBFA4"/>
</g>
</svg>
