<svg width="41" height="40" viewBox="0 0 41 40" fill="none" xmlns="http://www.w3.org/2000/svg">
<path d="M39.9602 15.4637V37.5395C39.9602 38.0035 39.7759 38.4486 39.4479 38.7769C39.1199 39.1052 38.675 39.2898 38.2109 39.2902H2.89844C2.43424 39.29 1.98912 39.1055 1.66095 38.7772C1.33279 38.4489 1.14844 38.0037 1.14844 37.5395V15.4637C1.14844 14.9765 1.34195 14.5094 1.6864 14.1649C2.03085 13.8205 2.49803 13.627 2.98516 13.627H38.1234C38.3647 13.6269 38.6036 13.6743 38.8264 13.7666C39.0493 13.8588 39.2518 13.9941 39.4224 14.1647C39.593 14.3353 39.7283 14.5378 39.8206 14.7607C39.9128 14.9836 39.9603 15.2224 39.9602 15.4637Z" fill="#CF8BFC"/>
<path d="M37.8707 14.3574V35.3848C37.8707 35.617 37.8249 35.847 37.736 36.0615C37.6472 36.2761 37.5169 36.471 37.3526 36.6352C37.1883 36.7994 36.9934 36.9296 36.7788 37.0184C36.5642 37.1072 36.3342 37.1528 36.102 37.1527H5.0082C4.53931 37.1527 4.08962 36.9665 3.75806 36.6349C3.4265 36.3034 3.24023 35.8537 3.24023 35.3848V14.3574" fill="#EDE6F5"/>
<path d="M20.5551 13.9699V37.1512H20.2926C20.0152 36.4528 19.5344 35.8539 18.9126 35.4321C18.2907 35.0103 17.5565 34.7851 16.8051 34.7855H5.0082C4.53944 34.7855 4.08987 34.5994 3.75834 34.268C3.4268 33.9366 3.24044 33.4871 3.24023 33.0184V11.9887C3.24023 11.5198 3.4265 11.0701 3.75806 10.7385C4.08962 10.407 4.53931 10.2207 5.0082 10.2207H16.8051C17.7995 10.2207 18.7532 10.6157 19.4565 11.3188C20.1597 12.0219 20.5549 12.9755 20.5551 13.9699Z" fill="#EDE6F5"/>
<path d="M37.8703 11.9895V33.0168C37.8705 33.2492 37.8249 33.4793 37.7361 33.694C37.6473 33.9088 37.517 34.1039 37.3528 34.2682C37.1885 34.4326 36.9934 34.5629 36.7787 34.6518C36.564 34.7407 36.3339 34.7864 36.1016 34.7863H24.3047C24.0833 34.786 23.8624 34.8056 23.6445 34.8449C23.0157 34.9573 22.426 35.2283 21.9313 35.6325C21.4366 36.0367 21.0534 36.5605 20.818 37.1543H20.5547V13.9707C20.554 13.478 20.6505 12.9901 20.8387 12.5348C21.0269 12.0795 21.3031 11.6658 21.6514 11.3175C21.9998 10.9691 22.4135 10.6929 22.8688 10.5047C23.3241 10.3165 23.812 10.22 24.3047 10.2207H36.1016C36.3339 10.2206 36.5639 10.2663 36.7786 10.3551C36.9932 10.444 37.1882 10.5743 37.3525 10.7385C37.5168 10.9028 37.647 11.0978 37.7359 11.3125C37.8247 11.5271 37.8704 11.7572 37.8703 11.9895Z" fill="#EDE6F5"/>
<path d="M23.6438 10.2793V34.8426C23.0149 34.9549 22.4252 35.226 21.9305 35.6302C21.4359 36.0343 21.0526 36.5581 20.8172 37.152H20.5547V13.9707C20.5547 13.0908 20.8641 12.2388 21.4288 11.564C21.9935 10.8891 22.7776 10.4344 23.6438 10.2793Z" fill="#EDE6F5"/>
<path d="M15.1887 6.93418L16.5441 6.66074C17.184 6.53105 17.184 5.61621 16.5441 5.48887L15.1887 5.21387C14.5353 5.08158 13.9354 4.75966 13.4639 4.28834C12.9925 3.81703 12.6704 3.21721 12.5379 2.56387L12.2637 1.2084C12.134 0.568555 11.2191 0.568555 11.0918 1.2084L10.8168 2.56387C10.6839 3.21698 10.3615 3.81642 9.8897 4.28721C9.41794 4.758 8.81784 5.07924 8.16445 5.21074L6.80898 5.48887C6.16914 5.61855 6.16914 6.5334 6.80898 6.66074L8.16445 6.93418C8.8178 7.06666 9.41761 7.38875 9.88893 7.86021C10.3602 8.33167 10.6822 8.93158 10.8145 9.58496L11.0895 10.9404C11.2191 11.5803 12.134 11.5803 12.2613 10.9404L12.5363 9.58496C12.6688 8.93126 12.991 8.33113 13.4628 7.85965C13.9346 7.38816 14.5349 7.06625 15.1887 6.93418Z" fill="#FDB62F"/>
<path d="M33.3242 14.7492L34.925 14.4242C35.6805 14.268 35.6805 13.1906 34.925 13.0375L33.3242 12.7133C32.5524 12.5567 31.8438 12.1763 31.2869 11.6194C30.73 11.0625 30.3495 10.3539 30.193 9.58203L29.8688 7.98125C29.7125 7.225 28.6352 7.225 28.4813 7.98125L28.157 9.58203C28.0005 10.3539 27.62 11.0625 27.0631 11.6194C26.5062 12.1763 25.7976 12.5567 25.0258 12.7133L23.425 13.0375C22.6695 13.1938 22.6695 14.2711 23.425 14.4242L25.0258 14.7492C25.7976 14.9056 26.5062 15.2859 27.0631 15.8427C27.62 16.3994 28.0005 17.1079 28.157 17.8797L28.4813 19.4812C28.6375 20.2367 29.7148 20.2367 29.8688 19.4812L30.193 17.8797C30.3495 17.1079 30.7299 16.3993 31.2868 15.8426C31.8437 15.2858 32.5524 14.9055 33.3242 14.7492Z" fill="#FDB62F"/>
<path d="M16.5117 15.0762H6.90234C6.74487 15.0762 6.59385 15.1387 6.4825 15.2501C6.37115 15.3614 6.30859 15.5124 6.30859 15.6699C6.30859 15.8274 6.37115 15.9784 6.4825 16.0898C6.59385 16.2011 6.74487 16.2637 6.90234 16.2637H16.5117C16.6692 16.2637 16.8202 16.2011 16.9316 16.0898C17.0429 15.9784 17.1055 15.8274 17.1055 15.6699C17.1055 15.5124 17.0429 15.3614 16.9316 15.2501C16.8202 15.1387 16.6692 15.0762 16.5117 15.0762Z" fill="#93818E"/>
<path d="M16.5115 17.9824H6.90208C6.74824 17.988 6.60255 18.053 6.49569 18.1639C6.38882 18.2747 6.3291 18.4226 6.3291 18.5766C6.3291 18.7305 6.38882 18.8785 6.49569 18.9893C6.60255 19.1001 6.74824 19.1651 6.90208 19.1707H16.5115C16.6653 19.1651 16.811 19.1001 16.9179 18.9893C17.0247 18.8785 17.0844 18.7305 17.0844 18.5766C17.0844 18.4226 17.0247 18.2747 16.9179 18.1639C16.811 18.053 16.6653 17.988 16.5115 17.9824Z" fill="#93818E"/>
<path d="M16.5119 23.7988H14.3767C14.2228 23.8044 14.0772 23.8694 13.9703 23.9803C13.8634 24.0911 13.8037 24.239 13.8037 24.393C13.8037 24.5469 13.8634 24.6949 13.9703 24.8057C14.0772 24.9165 14.2228 24.9815 14.3767 24.9871H16.5119C16.6657 24.9815 16.8114 24.9165 16.9183 24.8057C17.0251 24.6949 17.0848 24.5469 17.0848 24.393C17.0848 24.239 17.0251 24.0911 16.9183 23.9803C16.8114 23.8694 16.6657 23.8044 16.5119 23.7988Z" fill="#93818E"/>
<path d="M6.90013 24.9855H12.3962C12.4761 24.9884 12.5557 24.9752 12.6303 24.9467C12.7049 24.9181 12.773 24.8748 12.8305 24.8194C12.888 24.7639 12.9337 24.6974 12.965 24.6239C12.9962 24.5504 13.0123 24.4713 13.0123 24.3914C13.0123 24.3115 12.9962 24.2324 12.965 24.1589C12.9337 24.0854 12.888 24.0189 12.8305 23.9635C12.773 23.908 12.7049 23.8647 12.6303 23.8361C12.5557 23.8076 12.4761 23.7944 12.3962 23.7973H6.90013C6.74628 23.8028 6.6006 23.8679 6.49373 23.9787C6.38686 24.0895 6.32715 24.2375 6.32715 24.3914C6.32715 24.5454 6.38686 24.6933 6.49373 24.8041C6.6006 24.9149 6.74628 24.98 6.90013 24.9855Z" fill="#93818E"/>
<path d="M16.5115 29.6133H6.90208C6.74824 29.6189 6.60255 29.6839 6.49569 29.7947C6.38882 29.9055 6.3291 30.0535 6.3291 30.2074C6.3291 30.3614 6.38882 30.5093 6.49569 30.6201C6.60255 30.7309 6.74824 30.796 6.90208 30.8016H16.5115C16.6653 30.796 16.811 30.7309 16.9179 30.6201C17.0247 30.5093 17.0844 30.3614 17.0844 30.2074C17.0844 30.0535 17.0247 29.9055 16.9179 29.7947C16.811 29.6839 16.6653 29.6189 16.5115 29.6133Z" fill="#93818E"/>
<path d="M16.5115 20.8906H6.90208C6.74824 20.8962 6.60255 20.9612 6.49569 21.0721C6.38882 21.1829 6.3291 21.3308 6.3291 21.4848C6.3291 21.6387 6.38882 21.7867 6.49569 21.8975C6.60255 22.0083 6.74824 22.0733 6.90208 22.0789H16.5115C16.6653 22.0733 16.811 22.0083 16.9179 21.8975C17.0247 21.7867 17.0844 21.6387 17.0844 21.4848C17.0844 21.3308 17.0247 21.1829 16.9179 21.0721C16.811 20.9612 16.6653 20.8962 16.5115 20.8906Z" fill="#93818E"/>
<path d="M16.5115 26.7051H6.90208C6.74824 26.7107 6.60255 26.7757 6.49569 26.8865C6.38882 26.9973 6.3291 27.1453 6.3291 27.2992C6.3291 27.4532 6.38882 27.6011 6.49569 27.7119C6.60255 27.8227 6.74824 27.8878 6.90208 27.8934H16.5115C16.6653 27.8878 16.811 27.8227 16.9179 27.7119C17.0247 27.6011 17.0844 27.4532 17.0844 27.2992C17.0844 27.1453 17.0247 26.9973 16.9179 26.8865C16.811 26.7757 16.6653 26.7107 16.5115 26.7051Z" fill="#93818E"/>
<path d="M25.0555 19.1711H26.4618C26.5416 19.174 26.6212 19.1608 26.6958 19.1322C26.7704 19.1037 26.8385 19.0604 26.896 19.0049C26.9535 18.9494 26.9993 18.883 27.0305 18.8094C27.0618 18.7359 27.0779 18.6568 27.0779 18.577C27.0779 18.4971 27.0618 18.418 27.0305 18.3445C26.9993 18.2709 26.9535 18.2045 26.896 18.149C26.8385 18.0935 26.7704 18.0503 26.6958 18.0217C26.6212 17.9931 26.5416 17.9799 26.4618 17.9828H25.0555C24.9757 17.9799 24.8961 17.9931 24.8215 18.0217C24.7469 18.0503 24.6788 18.0935 24.6213 18.149C24.5638 18.2045 24.518 18.2709 24.4868 18.3445C24.4556 18.418 24.4395 18.4971 24.4395 18.577C24.4395 18.6568 24.4556 18.7359 24.4868 18.8094C24.518 18.883 24.5638 18.9494 24.6213 19.0049C24.6788 19.0604 24.7469 19.1037 24.8215 19.1322C24.8961 19.1608 24.9757 19.174 25.0555 19.1711Z" fill="#93818E"/>
<path d="M34.6667 17.9828H31.9675C31.8137 17.9884 31.668 18.0534 31.5611 18.1642C31.4542 18.2751 31.3945 18.423 31.3945 18.577C31.3945 18.7309 31.4542 18.8788 31.5611 18.9897C31.668 19.1005 31.8137 19.1655 31.9675 19.1711H34.6667C34.7466 19.174 34.8262 19.1608 34.9008 19.1322C34.9754 19.1037 35.0435 19.0604 35.101 19.0049C35.1585 18.9494 35.2042 18.883 35.2355 18.8094C35.2667 18.7359 35.2828 18.6568 35.2828 18.577C35.2828 18.4971 35.2667 18.418 35.2355 18.3445C35.2042 18.2709 35.1585 18.2045 35.101 18.149C35.0435 18.0935 34.9754 18.0503 34.9008 18.0217C34.8262 17.9931 34.7466 17.9799 34.6667 17.9828Z" fill="#93818E"/>
<path d="M34.6669 23.7973H25.0575C24.9777 23.7944 24.8981 23.8076 24.8234 23.8361C24.7488 23.8647 24.6807 23.908 24.6232 23.9635C24.5657 24.0189 24.52 24.0854 24.4887 24.1589C24.4575 24.2324 24.4414 24.3115 24.4414 24.3914C24.4414 24.4713 24.4575 24.5504 24.4887 24.6239C24.52 24.6974 24.5657 24.7639 24.6232 24.8194C24.6807 24.8748 24.7488 24.9181 24.8234 24.9467C24.8981 24.9752 24.9777 24.9884 25.0575 24.9855H34.6669C34.7467 24.9884 34.8263 24.9752 34.9009 24.9467C34.9755 24.9181 35.0436 24.8748 35.1011 24.8194C35.1586 24.7639 35.2044 24.6974 35.2356 24.6239C35.2668 24.5504 35.2829 24.4713 35.2829 24.3914C35.2829 24.3115 35.2668 24.2324 35.2356 24.1589C35.2044 24.0854 35.1586 24.0189 35.1011 23.9635C35.0436 23.908 34.9755 23.8647 34.9009 23.8361C34.8263 23.8076 34.7467 23.7944 34.6669 23.7973Z" fill="#93818E"/>
<path d="M25.0555 30.802H34.6649C34.7447 30.8048 34.8243 30.7916 34.899 30.7631C34.9736 30.7345 35.0417 30.6912 35.0992 30.6358C35.1567 30.5803 35.2024 30.5138 35.2336 30.4403C35.2649 30.3668 35.281 30.2877 35.281 30.2078C35.281 30.1279 35.2649 30.0489 35.2336 29.9753C35.2024 29.9018 35.1567 29.8353 35.0992 29.7799C35.0417 29.7244 34.9736 29.6811 34.899 29.6526C34.8243 29.624 34.7447 29.6108 34.6649 29.6137H25.0555C24.9757 29.6108 24.8961 29.624 24.8215 29.6526C24.7469 29.6811 24.6788 29.7244 24.6213 29.7799C24.5638 29.8353 24.518 29.9018 24.4868 29.9753C24.4556 30.0489 24.4395 30.1279 24.4395 30.2078C24.4395 30.2877 24.4556 30.3668 24.4868 30.4403C24.518 30.5138 24.5638 30.5803 24.6213 30.6358C24.6788 30.6912 24.7469 30.7345 24.8215 30.7631C24.8961 30.7916 24.9757 30.8048 25.0555 30.802Z" fill="#93818E"/>
<path d="M34.6669 20.891H25.0575C24.9777 20.8881 24.8981 20.9013 24.8234 20.9299C24.7488 20.9585 24.6807 21.0018 24.6232 21.0572C24.5657 21.1127 24.52 21.1791 24.4887 21.2527C24.4575 21.3262 24.4414 21.4053 24.4414 21.4852C24.4414 21.565 24.4575 21.6441 24.4887 21.7176C24.52 21.7912 24.5657 21.8576 24.6232 21.9131C24.6807 21.9686 24.7488 22.0119 24.8234 22.0404C24.8981 22.069 24.9777 22.0822 25.0575 22.0793H34.6669C34.7467 22.0822 34.8263 22.069 34.9009 22.0404C34.9755 22.0119 35.0436 21.9686 35.1011 21.9131C35.1586 21.8576 35.2044 21.7912 35.2356 21.7176C35.2668 21.6441 35.2829 21.565 35.2829 21.4852C35.2829 21.4053 35.2668 21.3262 35.2356 21.2527C35.2044 21.1791 35.1586 21.1127 35.1011 21.0572C35.0436 21.0018 34.9755 20.9585 34.9009 20.9299C34.8263 20.9013 34.7467 20.8881 34.6669 20.891Z" fill="#93818E"/>
<path d="M25.0555 27.8937H26.4516C26.5315 27.8966 26.6111 27.8834 26.6857 27.8549C26.7603 27.8263 26.8284 27.783 26.8859 27.7276C26.9434 27.6721 26.9891 27.6056 27.0204 27.5321C27.0516 27.4586 27.0677 27.3795 27.0677 27.2996C27.0677 27.2197 27.0516 27.1407 27.0204 27.0671C26.9891 26.9936 26.9434 26.9271 26.8859 26.8717C26.8284 26.8162 26.7603 26.7729 26.6857 26.7444C26.6111 26.7158 26.5315 26.7026 26.4516 26.7055H25.0555C24.9757 26.7026 24.8961 26.7158 24.8215 26.7444C24.7469 26.7729 24.6788 26.8162 24.6213 26.8717C24.5638 26.9271 24.518 26.9936 24.4868 27.0671C24.4556 27.1407 24.4395 27.2197 24.4395 27.2996C24.4395 27.3795 24.4556 27.4586 24.4868 27.5321C24.518 27.6056 24.5638 27.6721 24.6213 27.7276C24.6788 27.783 24.7469 27.8263 24.8215 27.8549C24.8961 27.8834 24.9757 27.8966 25.0555 27.8937Z" fill="#93818E"/>
<path d="M34.6669 26.7055H28.4325C28.3526 26.7026 28.273 26.7158 28.1984 26.7444C28.1238 26.7729 28.0557 26.8162 27.9982 26.8717C27.9407 26.9271 27.895 26.9936 27.8637 27.0671C27.8325 27.1407 27.8164 27.2197 27.8164 27.2996C27.8164 27.3795 27.8325 27.4586 27.8637 27.5321C27.895 27.6056 27.9407 27.6721 27.9982 27.7276C28.0557 27.783 28.1238 27.8263 28.1984 27.8549C28.273 27.8834 28.3526 27.8966 28.4325 27.8937H34.6669C34.7467 27.8966 34.8263 27.8834 34.9009 27.8549C34.9755 27.8263 35.0436 27.783 35.1011 27.7276C35.1586 27.6721 35.2044 27.6056 35.2356 27.5321C35.2668 27.4586 35.2829 27.3795 35.2829 27.2996C35.2829 27.2197 35.2668 27.1407 35.2356 27.0671C35.2044 26.9936 35.1586 26.9271 35.1011 26.8717C35.0436 26.8162 34.9755 26.7729 34.9009 26.7444C34.8263 26.7158 34.7467 26.7026 34.6669 26.7055Z" fill="#93818E"/>
</svg>
